<?xml version="1.0" encoding="utf-8"?>
<!-- Generator: Adobe Illustrator 16.2.1, SVG Export Plug-In . SVG Version: 6.00 Build 0)  -->
<!DOCTYPE svg PUBLIC "-//W3C//DTD SVG 1.1//EN" "http://www.w3.org/Graphics/SVG/1.1/DTD/svg11.dtd">
<svg version="1.1" id="Capa_1" xmlns="http://www.w3.org/2000/svg" xmlns:xlink="http://www.w3.org/1999/xlink" x="0px" y="0px"
	 width="77.558px" height="32.638px" viewBox="76.382 169.679 77.558 32.638" enable-background="new 76.382 169.679 77.558 32.638"
	 xml:space="preserve">
<g>
	<rect x="100.739" y="198.361" fill="#524640" width="0.878" height="3.883"/>
	<polygon fill="#524640" points="109.36,199.13 110.548,199.13 110.548,202.244 111.426,202.244 111.426,199.13 112.611,199.13 
		112.611,198.361 109.36,198.361 	"/>
	<polygon fill="#524640" points="115.589,200.646 117.056,200.646 117.056,199.877 115.589,199.877 115.589,199.13 117.299,199.13 
		117.299,198.361 114.71,198.361 114.71,202.244 117.397,202.244 117.397,201.476 115.589,201.476 	"/>
	<polygon fill="#524640" points="135.909,199.13 137.096,199.13 137.096,202.244 137.977,202.244 137.977,199.13 139.159,199.13 
		139.159,198.361 135.909,198.361 	"/>
	<rect x="141.418" y="198.361" fill="#524640" width="0.878" height="3.883"/>
	<polygon fill="#524640" points="151.073,200.646 152.542,200.646 152.542,199.877 151.073,199.877 151.073,199.13 152.784,199.13 
		152.784,198.361 150.196,198.361 150.196,202.244 152.882,202.244 152.882,201.476 151.073,201.476 	"/>
	<path fill="#524640" d="M132.124,199.128c0.428,0,0.824,0.233,1.032,0.608l0.03,0.055h0.881l-0.046-0.139
		c-0.28-0.807-1.042-1.351-1.897-1.351c-1.108,0-2.008,0.9-2.008,2.009c0,1.107,0.9,2.006,2.008,2.006
		c0.854,0,1.617-0.542,1.897-1.351l0.046-0.136h-0.883l-0.029,0.053c-0.208,0.375-0.604,0.606-1.032,0.606
		c-0.65,0-1.181-0.529-1.181-1.179C130.943,199.659,131.473,199.128,132.124,199.128z"/>
	<polygon fill="#524640" points="106.746,200.749 105.087,198.362 104.206,198.362 104.206,202.244 105.087,202.244 
		105.087,199.854 106.733,202.244 106.746,202.242 106.746,202.244 107.627,202.244 107.627,198.362 106.746,198.362 	"/>
	<path fill="#524640" d="M122.684,199.789c0-0.785-0.632-1.418-1.413-1.425v-0.003h-1.484v0.001v3.882h0.881v-1.03h0.241l0.727,1.03
		h1.062l-0.824-1.173C122.35,200.84,122.684,200.355,122.684,199.789z M121.262,200.332h-0.595v-1.089h0.595v0.002
		c0.299,0.003,0.541,0.245,0.541,0.544C121.803,200.088,121.562,200.33,121.262,200.332z"/>
	<path fill="#524640" d="M126.059,198.361l-1.54,3.883h0.956l0.354-0.887h1.277l0.353,0.887h0.956l-1.54-3.883H126.059z
		 M126.158,200.52l0.309-0.776l0.308,0.776H126.158z"/>
	<polygon fill="#524640" points="146.238,200.862 145.248,198.361 144.292,198.361 145.833,202.244 146.647,202.244 
		148.187,198.361 147.231,198.361 	"/>
	<path fill="#524640" d="M96.157,188.978c-0.132,0.249-0.297,0.479-0.513,0.695c-0.479,0.498-1.091,0.746-1.803,0.746
		s-1.308-0.248-1.804-0.746c-0.48-0.479-0.728-1.09-0.728-1.787c0-0.711,0.247-1.307,0.728-1.819
		c0.497-0.497,1.092-0.745,1.804-0.745s1.323,0.248,1.803,0.745c0.216,0.216,0.381,0.462,0.531,0.728h4.699
		c-0.215-1.505-0.893-2.796-2.035-3.905c-1.192-1.208-2.609-1.888-4.239-2.047c-0.233-0.019-0.473-0.03-0.724-0.036
		c-0.002,0-0.003,0-0.006,0c-0.012,0-0.024,0-0.037-0.002c-1.949,0.003-3.601,0.697-4.988,2.085
		c-1.391,1.373-2.069,3.045-2.069,4.997c0,1.954,0.678,3.625,2.069,4.999c0.41,0.407,0.842,0.756,1.297,1.041
		c1.021,0.612,2.21,0.979,3.478,1.022c0.06,0.002,0.12,0.004,0.18,0.004c0.018,0,0.035,0,0.054,0
		c1.947-0.002,3.615-0.681,4.986-2.067c1.142-1.109,1.804-2.417,2.035-3.906H96.157z"/>
	<path fill="#524640" d="M147.539,194.388c0.013,0,0.028-0.003,0.041-0.003h0.001c0.002,0,0.002,0,0.002,0
		c1.706-0.055,3.197-0.686,4.418-1.92c1.31-1.279,1.939-2.831,1.939-4.647c0-1.817-0.63-3.354-1.939-4.648
		c-1.23-1.244-2.723-1.876-4.462-1.938h-3.3h-1.273h-3.53l-1.641,5.343l-1.63-5.31l0.012-0.033h-0.021h-4.783h-0.021l0.01,0.033
		l-1.628,5.309l-1.642-5.342h-4.803l0.722,2.353c-0.191-0.24-0.399-0.472-0.629-0.696c-1.355-1.389-3.025-2.082-4.99-2.084h-0.002
		h-0.004h-0.003c-1.951,0-3.622,0.696-4.996,2.084c-0.591,0.583-1.053,1.22-1.394,1.91c-0.161-0.856-0.568-1.606-1.227-2.253
		c-0.784-0.801-1.723-1.233-2.815-1.31h-7.386c1.693,1.712,2.741,4.064,2.741,6.661c0,2.513-0.982,4.797-2.58,6.492h4.502v-3.553
		l2.029,3.553h4.847l-2.369-4.199c0.17-0.125,0.492-0.369,0.938-0.753c0.262-0.218,0.479-0.483,0.666-0.783
		c0.161,1.626,0.843,3.041,2.047,4.232c1.374,1.389,3.044,2.067,4.996,2.067c1.971,0,3.642-0.678,4.999-2.067
		c1.299-1.268,1.988-2.788,2.088-4.549l1.858,6.053h0.007h4.797h0.006l1.626-5.298l1.626,5.298h0.006h4.798h0.005l2.77-9.019v9.019
		H147.539z M147.185,185.325c0.046-0.017,0.124-0.017,0.184-0.017c0.662,0,1.262,0.246,1.739,0.739
		c0.491,0.492,0.739,1.078,0.739,1.77c0,0.691-0.248,1.292-0.739,1.77c-0.478,0.494-1.078,0.738-1.739,0.738h-0.184V185.325z
		 M107.783,186.175c0,0.028,0,0.028,0,0.028c0,0.034,0,0.034,0,0.064v0.061c-0.032,0.246-0.14,0.444-0.34,0.645
		c-0.186,0.185-0.415,0.308-0.691,0.308h-1.514c-0.003-0.001-0.007-0.001-0.007-0.001h-0.003v-2.229h1.523
		c0.276,0.015,0.506,0.123,0.691,0.322c0.232,0.216,0.322,0.446,0.34,0.754V186.175z M120.188,189.673
		c-0.498,0.513-1.076,0.762-1.806,0.762c-0.693,0-1.307-0.249-1.786-0.762c-0.511-0.479-0.76-1.091-0.76-1.787
		c0-0.711,0.249-1.307,0.76-1.819c0.479-0.497,1.093-0.745,1.786-0.745c0.73,0,1.308,0.248,1.806,0.745
		c0.496,0.513,0.762,1.108,0.762,1.819C120.949,188.582,120.683,189.193,120.188,189.673z"/>
	<circle fill="#524640" cx="78.868" cy="185.26" r="1.057"/>
	<circle fill="#524640" cx="81.428" cy="180.653" r="0.485"/>
	<circle fill="#524640" cx="79.539" cy="180.889" r="0.663"/>
	<circle fill="#524640" cx="80.538" cy="177.762" r="1.319"/>
	<circle fill="#524640" cx="83.276" cy="176.601" r="0.841"/>
	<circle fill="#524640" cx="84.577" cy="173.664" r="0.623"/>
	<circle fill="#524640" cx="87.643" cy="174.694" r="0.977"/>
	<circle fill="#524640" cx="87.603" cy="170.537" r="0.84"/>
	<path fill="#524640" d="M90.7,172.53c0.57,0.375,1.334,0.216,1.708-0.352c0.303-0.461,0.255-1.05-0.074-1.457
		c0.142-0.012,0.279-0.084,0.363-0.215c0.147-0.223,0.085-0.524-0.139-0.671c-0.224-0.148-0.524-0.086-0.671,0.138
		c-0.076,0.116-0.097,0.251-0.067,0.376c-0.529-0.205-1.147-0.02-1.472,0.474C89.972,171.394,90.131,172.155,90.7,172.53z"/>
	<circle fill="#524640" cx="94.432" cy="173.738" r="0.977"/>
	<circle fill="#524640" cx="96.22" cy="170.656" r="0.977"/>
	<circle fill="#524640" cx="98.166" cy="172.422" r="0.623"/>
	<circle fill="#524640" cx="101.568" cy="177.962" r="0.842"/>
	<circle fill="#524640" cx="79.75" cy="194.611" r="0.841"/>
	<circle fill="#524640" cx="77.006" cy="192.388" r="0.623"/>
	<path fill="#524640" d="M84.374,187.874c0-5.233,4.243-9.475,9.474-9.475c2.349,0,4.496,0.856,6.152,2.272
		c0.421-0.203,0.985-0.876,0.882-0.885c0.073-0.417-0.101-0.857-0.477-1.105c-0.122-0.078-0.253-0.13-0.387-0.155l0.005,0
		c0,0-0.279-0.022-0.262-0.3c0.038-0.031,0.074-0.066,0.102-0.108c0.147-0.225,0.086-0.526-0.139-0.673
		c-0.224-0.148-0.526-0.086-0.672,0.139c-0.147,0.224-0.084,0.525,0.139,0.673c0.046,0.028,0.096,0.048,0.147,0.062
		c0.003,0.01,0.009,0.02,0.02,0.031c0.098,0.095,0.055,0.192,0.023,0.24c-0.133,0.057-0.258,0.136-0.364,0.244
		c-0.062-0.104-0.15-0.196-0.258-0.268c-0.214-0.141-0.467-0.17-0.697-0.104c0.122-0.494-0.07-1.028-0.52-1.324
		c-0.147-0.097-0.308-0.158-0.474-0.186c0.067-0.053,0.126-0.117,0.175-0.192c0.081-0.124,0.123-0.264,0.131-0.402
		c0,0.001,0.004,0.003,0.004,0.003s0.155-0.617,0.658-0.376c0.451,0.297,1.058,0.172,1.355-0.28c0.296-0.451,0.17-1.059-0.281-1.354
		c-0.451-0.297-1.058-0.169-1.354,0.281c-0.11,0.166-0.161,0.352-0.161,0.537v0c0,0,0,0.004,0,0.01c0,0,0,0,0,0
		c0,0.08-0.018,0.532-0.496,0.493c-0.002,0-0.002,0-0.002,0c-0.031-0.025-0.062-0.053-0.095-0.076
		c-0.369-0.242-0.855-0.157-1.122,0.183c-0.074-0.168-0.195-0.32-0.361-0.428c-0.452-0.297-1.056-0.172-1.353,0.279
		c-0.05,0.077-0.086,0.156-0.113,0.238c-0.016-0.01-0.03-0.021-0.045-0.032c-0.245-0.16-0.535-0.197-0.796-0.123
		c0.051-0.054,0.098-0.113,0.14-0.177c0.374-0.568,0.216-1.333-0.354-1.708c-0.57-0.374-1.334-0.214-1.708,0.355
		c-0.197,0.299-0.245,0.654-0.164,0.977c-0.486-0.229-1.077-0.073-1.379,0.389c-0.19,0.289-0.224,0.633-0.125,0.939
		c0.008,0.024,0.017,0.049,0.027,0.073c0.011,0.029,0.025,0.056,0.04,0.084c0.204,0.382,0.526,0.292,0.748,0.426
		c0.001,0.002,0.004,0.005,0.005,0.005c0.21,0.113,0.355,0.333,0.355,0.589c0,0.37-0.299,0.669-0.67,0.669
		c-0.37,0-0.669-0.3-0.669-0.669c0-0.035,0.006-0.068,0.01-0.101c0-0.004,0-0.007,0-0.011c0.041-0.401-0.1-0.57-0.162-0.624
		c-0.009-0.008-0.018-0.016-0.028-0.021c-0.137-0.092-0.292-0.135-0.444-0.138l-0.001-0.001c-0.003,0-0.005,0-0.008,0
		c-0.002,0-0.005,0-0.005,0c-0.035-0.003-0.071,0.001-0.113,0.01c-0.073,0.009-0.143,0.028-0.211,0.055
		c-0.097,0.024-0.204,0.046-0.319,0.041c-0.168-0.005-0.317-0.161-0.538-0.247c-0.001,0-0.001,0-0.003,0
		c-0.426-0.181-0.933-0.039-1.197,0.362c-0.13,0.198-0.176,0.427-0.151,0.643c0,0.003-0.002,0.005-0.001,0.009
		c0.002,0.011,0.005,0.021,0.007,0.034c0.023,0.15,0.081,0.293,0.173,0.419c0.016,0.055-0.017,0.073-0.077,0.071
		c-0.005,0.001-0.015,0.002-0.021,0.004c-0.035,0.003-0.068,0.013-0.102,0.02c-0.03,0.005-0.061,0.012-0.093,0.02
		c-0.067,0.017-0.108,0.045-0.14,0.067c-0.017,0.01-0.033,0.021-0.05,0.031c-0.04,0.015-0.109,0.011-0.139-0.136
		c-0.011-0.029-0.021-0.059-0.032-0.089c-0.006-0.017-0.014-0.033-0.02-0.05c-0.01-0.029-0.021-0.053-0.033-0.073
		c0-0.002-0.001,0-0.001-0.002c-0.075-0.145-0.186-0.271-0.33-0.367c-0.452-0.297-1.058-0.171-1.354,0.28
		c-0.297,0.45-0.171,1.058,0.28,1.353c0.209,0.138,0.453,0.183,0.682,0.148l0.027,0.019c0.124-0.066,0.265-0.108,0.414-0.108
		c0.488,0,0.885,0.397,0.885,0.885s-0.396,0.884-0.885,0.884s-0.885-0.396-0.885-0.884c0-0.004,0.002-0.009,0.002-0.015
		c-0.061-0.252-0.211-0.484-0.446-0.636c-0.487-0.32-1.142-0.185-1.462,0.303c-0.321,0.487-0.186,1.142,0.302,1.462
		c0.146,0.095,0.306,0.149,0.469,0.168c-0.339,0.002-0.67,0.165-0.873,0.468c-0.035-0.029-0.071-0.056-0.107-0.081
		c-0.609-0.4-1.426-0.23-1.827,0.377c-0.399,0.607-0.229,1.426,0.378,1.826c0.202,0.132,0.427,0.202,0.653,0.214
		c-0.038,0.041-0.073,0.086-0.104,0.132c-0.322,0.49-0.187,1.142,0.301,1.462c0.134,0.089,0.281,0.138,0.43,0.161
		c0.342,0.235,0.382,0.663,0.197,0.966c-0.046,0.061-0.396,0.49-0.924,0.132c-0.081-0.1-0.178-0.187-0.291-0.262
		c-0.607-0.399-1.425-0.229-1.825,0.379c-0.303,0.461-0.279,1.043,0.018,1.473c-0.203-0.058-0.417-0.031-0.602,0.062
		c0.03-0.348-0.125-0.7-0.437-0.904c-0.451-0.296-1.057-0.171-1.354,0.28c-0.296,0.452-0.171,1.058,0.28,1.353
		c0.327,0.216,0.736,0.208,1.049,0.016c0,0.275,0.131,0.543,0.378,0.705c0.388,0.255,0.909,0.148,1.165-0.24
		c0.024-0.039,0.043-0.075,0.061-0.114h0.001c0.04-0.085,0.062-0.176,0.071-0.266c0.124-0.292,0.345-0.329,0.442-0.329
		c0.012,0,0.023,0.001,0.036,0.001c0.007,0.001,0.012,0.002,0.012,0.002l-0.003-0.001c0.12-0.002,0.24-0.021,0.356-0.054
		c0,0,0,0,0,0.002c0.002-0.002,0.005-0.003,0.007-0.005c0.096-0.028,0.188-0.067,0.275-0.12c0.27-0.043,0.35,0.204,0.28,0.414
		c0,0.001-0.001,0.001-0.001,0.001c-0.028,0.042-0.048,0.084-0.068,0.13c-0.004,0.003-0.005,0.007-0.008,0.012
		c-0.032,0.038-0.042,0.073-0.038,0.106c-0.125,0.405,0.021,0.859,0.393,1.104c0.185,0.121,0.392,0.169,0.595,0.157
		c0.071-0.024,0.146-0.04,0.226-0.04c0.05-0.016,0.099-0.033,0.146-0.057c-0.008,0.022-0.013,0.046-0.019,0.068
		c0.315,0.061,0.555,0.337,0.555,0.67c0,0.377-0.306,0.682-0.682,0.682c-0.3,0-0.552-0.195-0.643-0.463
		c-0.021-0.04-0.042-0.087-0.06-0.147c-0.006-0.096-0.027-0.187-0.06-0.276c-0.001-0.004-0.001-0.007-0.001-0.011
		c0-0.002-0.001-0.002-0.003-0.002c-0.071-0.183-0.195-0.345-0.371-0.462c-0.452-0.295-1.058-0.17-1.353,0.28
		c-0.297,0.453-0.172,1.058,0.28,1.354c0.383,0.252,0.877,0.197,1.2-0.103c0.006-0.004,0.012-0.011,0.019-0.016
		c0.005-0.003,0.009-0.008,0.013-0.014c0.003-0.001,0.006-0.003,0.008-0.006c0.23-0.246,0.299-0.08,0.321,0.067
		c-0.139,0.5,0.053,1.056,0.511,1.357c0.019,0.012,0.039,0.024,0.059,0.035c-0.111,0.07-0.209,0.165-0.287,0.283
		c-0.296,0.451-0.17,1.056,0.28,1.353c0.448,0.295,1.046,0.173,1.345-0.268c-0.001,0.351,0.17,0.696,0.485,0.904
		c0.497,0.326,1.164,0.187,1.49-0.31c0.12-0.248,0.079-0.442,0.079-0.442l0.006,0.003c-0.003-0.022-0.005-0.045-0.005-0.066
		c0-0.229,0.184-0.414,0.412-0.414c0.228,0,0.413,0.185,0.413,0.414c0,0.135-0.067,0.252-0.167,0.33l0.001,0h-0.002
		c-0.046,0.035-0.098,0.06-0.155,0.073c-0.036,0.019-0.074,0.043-0.109,0.071c-0.015,0.013-0.029,0.027-0.043,0.042
		c-0.02,0.019-0.042,0.035-0.058,0.057c-0.038,0.042-0.072,0.086-0.104,0.135c-0.142,0.215-0.206,0.461-0.198,0.7
		c-0.121,0.662-0.585,0.356-0.585,0.356c-0.287-0.19-0.673-0.109-0.863,0.178c-0.188,0.289-0.108,0.675,0.179,0.865
		c0.288,0.188,0.674,0.109,0.863-0.179c0.019-0.027,0.031-0.056,0.044-0.083l0.001,0.002c0,0,0.001-0.004,0.003-0.011
		c0.007-0.017,0.013-0.033,0.02-0.051c0.06-0.144,0.248-0.485,0.637-0.316c0.07,0.08,0.152,0.153,0.245,0.214
		c0.106,0.07,0.221,0.121,0.336,0.154c-0.02,0.02-0.039,0.044-0.056,0.069c-0.148,0.224-0.084,0.525,0.139,0.673
		c0.224,0.146,0.525,0.083,0.672-0.141c0.129-0.197,0.096-0.454-0.067-0.613c0.26-0.08,0.493-0.247,0.652-0.49
		c0.058-0.087,0.1-0.18,0.133-0.274c0.099,0.222,0.26,0.417,0.477,0.56c0.609,0.399,1.426,0.231,1.825-0.379
		c0.053-0.079,0.094-0.161,0.127-0.249c0.034-0.09,0.056-0.174,0.071-0.256C87.045,195.549,84.374,192.023,84.374,187.874z"/>
</g>
</svg>
