<?xml version="1.0" encoding="utf-8"?>
<!-- Generator: Adobe Illustrator 16.2.1, SVG Export Plug-In . SVG Version: 6.00 Build 0)  -->
<!DOCTYPE svg PUBLIC "-//W3C//DTD SVG 1.1//EN" "http://www.w3.org/Graphics/SVG/1.1/DTD/svg11.dtd">
<svg version="1.1" id="Capa_1" xmlns="http://www.w3.org/2000/svg" xmlns:xlink="http://www.w3.org/1999/xlink" x="0px" y="0px"
	 width="240.553px" height="128.052px" viewBox="0 0 240.553 128.052" enable-background="new 0 0 240.553 128.052"
	 xml:space="preserve">
<g>
	<g>
		<path d="M19.337,102.681c-0.098-0.969-0.206-4.423-0.326-10.359c-0.121-5.937-0.363-10.893-0.728-14.867
			c-0.363-3.974-1.055-6.979-2.071-9.015c-1.553-3.294-3.781-4.942-6.689-4.942c-1.211,0-2.303,0.352-3.271,1.053
			c-0.97,0.704-1.526,1.637-1.672,2.799c0.192,2.425,1.986,4.266,5.379,5.525c2.083,0.775,3.683,2.061,4.798,3.853
			c1.115,1.794,1.551,3.757,1.309,5.889c-0.484,3.248-1.647,5.696-3.489,7.343c-1.843,1.648-4.991,2.666-9.45,3.053v-1.309
			c2.132,0,3.926-0.338,5.379-1.018c1.454-0.678,2.182-1.404,2.182-2.181c0-1.259-1.043-2.253-3.126-2.98
			c-4.896-2.083-7.173-5.646-6.833-10.687c0.241-2.955,1.041-5.646,2.398-8.069c1.355-2.423,3.21-4.325,5.561-5.706
			c2.351-1.382,5.053-2.047,8.106-2c2.472,0.098,4.835,0.752,7.088,1.963c2.253,1.213,4.059,3.176,5.416,5.889h0.072
			c0.291-2.617,1.32-4.592,3.09-5.925c1.769-1.333,4.059-1.974,6.87-1.927c5.234,0.291,9.014,2.763,11.341,7.416h0.146
			c0.629-2.568,1.89-4.446,3.779-5.635c1.891-1.188,4.047-1.781,6.471-1.781c1.551,0,2.955,0.279,4.217,0.836
			c1.26,0.559,2.337,1.431,3.234,2.617c0.896,1.188,1.441,2.605,1.636,4.253c0.097,0.922,0.146,2.375,0.146,4.362
			c0.097,2.229,0.411,3.828,0.945,4.798c0.532,0.97,1.768,1.356,3.707,1.163v1.309c-2.957-0.291-4.943,0.182-5.961,1.417
			c-1.018,1.236-1.575,3.139-1.672,5.707c0.193,2.812,0.291,4.969,0.291,6.47c-0.194,7.367,1.041,11.123,3.707,11.269
			c1.211-0.146,2.52-0.823,3.926-2.035l0.436,1.163l-12.795,9.814c-2.325-2.084-3.938-3.708-4.833-4.871
			c-0.897-1.163-1.503-2.313-1.817-3.453c-0.316-1.139-0.498-2.811-0.545-5.017c-0.05-2.204-0.098-4.155-0.146-5.853
			c-0.049-4.021,0.654-7.014,2.109-8.978c1.453-1.963,3.318-3.295,5.597-3.998c2.278-0.702,4.386-1.345,6.325-1.927v-0.146
			c-2.86,0.146-5.078-0.12-6.652-0.8c-1.575-0.678-2.653-1.599-3.234-2.763c-0.582-1.163-0.958-2.81-1.127-4.942
			c-0.17-2.133-0.279-3.417-0.328-3.854c-0.339-2.083-1.284-3.077-2.834-2.98c-2.182,0-3.417,2.133-3.708,6.397
			c0.048,1.987,0.084,3.806,0.108,5.452c0.024,1.648,0.037,3.66,0.037,6.034c0,3.684-0.437,6.882-1.309,9.596
			c-0.873,2.715-2.617,5.671-5.234,8.869l-11.05,13.231l-8.942-7.852l-5.524,6.979l-0.728-0.873l11.486-14.757l8.797,7.706
			c-0.243-7.754-0.412-12.904-0.509-15.448c-0.098-2.544-0.206-4.847-0.327-6.906c-0.122-2.06-0.353-5.367-0.691-9.923
			c-0.242-2.182-0.752-3.999-1.525-5.453c-0.776-1.453-1.794-2.18-3.055-2.18c-1.551,0-2.398,1.235-2.544,3.707
			c0.097,0.34,0.146,0.945,0.146,1.817c0.193,1.356,0.424,2.799,0.691,4.325c0.266,1.526,0.483,3.029,0.654,4.508
			c0.169,1.479,0.254,2.848,0.254,4.107c0,2.811-0.352,5.113-1.055,6.906s-2.217,4.168-4.543,7.123l-12.723,16.213l-8.941-7.852
			l-4.289,5.161l-0.873-0.872l10.979-13.667L19.337,102.681z"/>
		<path d="M97.559,72.292c0.919,1.357,2.75,2.908,5.489,4.653c2.736,1.745,5.439,2.884,8.105,3.417v0.872
			c-2.617-0.146-3.926,0.944-3.926,3.271v15.339c0,3.006,0.654,4.508,1.963,4.508c0.047,0,0.084,0,0.108,0s0.037,0.049,0.037,0.145
			c0.192-0.047,0.423-0.12,0.69-0.218c0.266-0.097,0.508-0.206,0.727-0.327s0.484-0.266,0.8-0.436s0.521-0.255,0.618-0.255
			l0.436,0.8c-2.907,1.891-6.131,4.605-9.668,8.143c-0.775-0.582-1.6-1.225-2.473-1.927c-0.872-0.702-1.721-1.575-2.543-2.618
			c-0.825-1.041-1.334-2.289-1.527-3.743c-2.715,1.794-6.156,4.556-10.323,8.288c-2.617-1.455-4.411-2.884-5.38-4.289
			c-0.97-1.406-1.453-3.005-1.453-4.799v-17.52c0-2.617,1.551-4.555,4.652-5.816C90.239,77.115,94.796,74.619,97.559,72.292z
			 M90.144,102.244c0,1.938,0.582,2.98,1.744,3.126c0.582-0.096,1.188-0.388,1.818-0.873l2.543-1.816V83.343
			c-1.551-0.775-3.586-2.277-6.105-4.508V102.244z"/>
		<path d="M132.889,72.438c0.679,0.679,1.672,1.539,2.981,2.58c1.309,1.043,2.98,2.072,5.016,3.09
			c2.036,1.018,4.24,1.77,6.615,2.254v1.018c-1.261,0-2.229,0.254-2.907,0.763c-0.68,0.509-1.019,1.394-1.019,2.653v21.01
			c0,0.582,0.424,1.406,1.273,2.473c0.847,1.066,1.319,1.696,1.417,1.889c0.727,1.164,1.091,2.691,1.091,4.581
			c0,2.132-0.644,4.228-1.927,6.288c-1.285,2.059-3.297,3.744-6.034,5.053c-2.738,1.309-6.143,1.963-10.214,1.963
			c-4.216,0-7.367-0.654-9.45-1.963c-2.084-1.309-3.175-3.006-3.271-5.09c0-1.647,0.509-2.932,1.526-3.852
			c1.019-0.922,2.351-1.382,3.999-1.382c1.986,0,3.537,0.411,4.652,1.236c1.114,0.823,1.646,2.059,1.599,3.707
			c0,1.211-0.316,2.108-0.944,2.69c-0.631,0.581-1.745,1.138-3.345,1.672c-0.775,1.064,0.461,1.6,3.708,1.6
			c2.374,0,4.663-0.473,6.87-1.418c2.204-0.945,3.403-2.315,3.598-4.107c0.291-1.891,0.206-3.369-0.254-4.436
			c-0.461-1.066-1.163-2.229-2.108-3.488c-0.945-1.261-1.685-2.581-2.217-3.963c-0.534-1.381-0.8-3.162-0.8-5.343
			c-4.314,3.296-7.755,6.106-10.323,8.433c-2.326-1.405-4.047-2.727-5.162-3.961c-1.115-1.236-1.672-2.896-1.672-4.98V84.651
			c0-1.211,0.424-2.156,1.273-2.835c0.847-0.679,2.689-1.684,5.524-3.017c2.836-1.333,4.858-2.326,6.07-2.981
			C129.666,75.164,131.145,74.037,132.889,72.438z M132.599,83.779c-1.406-0.582-3.442-1.865-6.106-3.854v21.883
			c0,0.727,0.156,1.49,0.473,2.29c0.314,0.8,0.836,1.177,1.562,1.127c0.532-0.097,1.891-0.945,4.071-2.544V83.779z"/>
		<path d="M165.312,81.089l9.741-8.65c4.555,2.229,6.834,5.161,6.834,8.796l11.922-8.796c2.665,3.635,5.5,5.986,8.506,7.051v0.873
			c-2.618,0-3.926,1.188-3.926,3.562v17.303c0,0.63,0.182,1.261,0.545,1.89c0.363,0.631,0.98,0.945,1.854,0.945
			c0.679,0,1.575-0.411,2.689-1.236l0.437,0.728l-10.541,8.796c-3.878-2.472-5.815-5.645-5.815-9.523V83.343
			c0-2.084-0.606-3.126-1.817-3.126c-0.388,0-0.764,0.108-1.126,0.327c-0.364,0.218-0.837,0.558-1.418,1.018
			c-0.582,0.461-1.019,0.789-1.309,0.981v19.847c0,1.309,0.653,1.963,1.962,1.963v1.018c-1.552,0.389-2.992,1.211-4.325,2.471
			c-1.333,1.262-2.339,2.764-3.017,4.508c-1.212-1.842-2.594-3.392-4.144-4.652c-1.552-1.26-2.958-2.035-4.217-2.326v-1.018h0.8
			c1.355,0,2.035-1.26,2.035-3.781V82.397c0-1.453-0.581-2.181-1.745-2.181c-0.63,0-1.938,0.728-3.925,2.181v19.847
			c0,1.406,0.654,2.108,1.963,2.108v1.018c-3.344,1.018-5.816,3.344-7.415,6.979c-2.957-3.78-6.034-6.106-9.232-6.979v-1.018
			c0.483,0,0.872,0.049,1.163,0.145c0.872-0.096,1.514-0.387,1.926-0.871c0.411-0.484,0.618-1.551,0.618-3.199V84.215
			c0-2.277-0.8-3.417-2.399-3.417c-1.066,0-1.866,0.437-2.398,1.309l-0.582-1.018l9.669-8.65c1.986,1.018,3.599,2.205,4.835,3.562
			C164.694,77.357,165.312,79.054,165.312,81.089z"/>
		<path d="M225.505,72.292c0.92,1.357,2.75,2.908,5.488,4.653s5.44,2.884,8.105,3.417v0.872c-2.616-0.146-3.925,0.944-3.925,3.271
			v15.339c0,3.006,0.654,4.508,1.963,4.508c0.048,0,0.085,0,0.108,0c0.024,0,0.037,0.049,0.037,0.145
			c0.192-0.047,0.424-0.12,0.69-0.218c0.266-0.097,0.509-0.206,0.727-0.327s0.484-0.266,0.8-0.436
			c0.314-0.17,0.521-0.255,0.618-0.255l0.436,0.8c-2.907,1.891-6.131,4.605-9.668,8.143c-0.775-0.582-1.6-1.225-2.472-1.927
			s-1.721-1.575-2.544-2.618c-0.825-1.041-1.334-2.289-1.527-3.743c-2.715,1.794-6.155,4.556-10.322,8.288
			c-2.618-1.455-4.411-2.884-5.381-4.289c-0.97-1.406-1.453-3.005-1.453-4.799v-17.52c0-2.617,1.55-4.555,4.652-5.816
			C218.187,77.115,222.742,74.619,225.505,72.292z M218.09,102.244c0,1.938,0.581,2.98,1.745,3.126
			c0.581-0.096,1.187-0.388,1.817-0.873l2.544-1.816V83.343c-1.552-0.775-3.587-2.277-6.106-4.508V102.244z"/>
	</g>
	<g>
		<path d="M74.96,13.312c-3.775-0.05-6.848,0.153-9.219,0.612c-2.372,0.459-4.629,1.098-6.771,1.913
			c-4.285,1.479-6.426,4.234-6.426,8.262c0,1.531,0.775,2.998,2.333,4.4c1.556,1.402,3.558,2.13,6.005,2.18
			c2.04-0.152,3.902-0.561,5.586-1.225l0.307,1.225c-2.398,0.715-4.49,1.148-6.274,1.301c-3.111,0-5.509-1.109-7.192-3.328
			c-1.682-2.219-2.576-4.984-2.677-8.301c0.153-2.805,0.638-5.253,1.454-7.345c1.07-2.55,2.881-4.832,5.432-6.848
			c2.55-2.015,5.457-3.544,8.722-4.59C69.502,0.523,72.715,0,75.878,0c5.1,0,10.048,0.994,14.842,2.983
			c4.795,1.989,8.76,5.049,11.897,9.182c3.137,4.131,4.935,9.256,5.394,15.377c0.51,8.519-1.76,15.379-6.809,20.58
			c-5.05,5.203-11.094,7.805-18.133,7.805c-2.805,0-6.3-0.943-10.48-2.832c-0.256-0.152-1.621-0.879-4.094-2.18
			c-2.475-1.301-4.438-2.282-5.891-2.945c-1.454-0.662-2.666-0.995-3.635-0.995c-2.805,0-4.54,1.888-5.202,5.661l-1.224-0.459
			c1.07-4.998,3.098-8.594,6.082-10.787c2.984-2.192,6.389-3.29,10.213-3.29c1.938,0,3.711,0.269,5.317,0.804
			c1.607,0.535,3.864,1.416,6.771,2.64c1.326-0.969,1.99-1.963,1.99-2.983c0-0.918-0.473-1.695-1.416-2.334
			c-0.943-0.638-2.334-1.352-4.17-2.143c-1.836-0.79-3.315-1.491-4.437-2.104c-2.652-1.479-4.056-3.468-4.208-5.968
			c0.051-1.224,0.383-2.524,0.994-3.901c0.612-1.377,1.453-2.895,2.525-4.553C73.276,15.901,74.195,14.485,74.96,13.312z
			 M76.49,13.312c-0.766,0.868-1.224,1.76-1.378,2.678c0.051,1.071,1.098,2.016,3.137,2.831c2.04,0.816,4.195,1.696,6.466,2.64
			c2.269,0.943,3.761,2.104,4.476,3.48c0.662,1.48,0.994,2.984,0.994,4.514c0,1.684-0.434,3.278-1.301,4.782
			c-0.867,1.505-1.912,2.907-3.137,4.208s-2.371,2.538-3.442,3.711c4.539,3.061,8.618,4.667,12.241,4.819
			c3.672-0.05,6.451-1.351,8.34-3.901c1.885-2.55,2.83-5.406,2.83-8.569c0.152-2.651-0.523-5.202-2.027-7.65
			c-1.506-2.448-3.57-4.615-6.197-6.503c-2.627-1.887-5.751-3.455-9.372-4.705C84.497,14.396,80.621,13.618,76.49,13.312z"/>
		<path d="M133.41,13.924c0.969,1.429,2.895,3.06,5.776,4.896c2.881,1.837,5.726,3.035,8.531,3.596v0.919
			c-2.755-0.153-4.132,0.994-4.132,3.442v16.144c0,3.162,0.688,4.742,2.066,4.742c0.05,0,0.089,0,0.114,0s0.039,0.052,0.039,0.153
			c0.202-0.05,0.445-0.127,0.727-0.229c0.279-0.102,0.535-0.217,0.765-0.344s0.509-0.279,0.842-0.459
			c0.33-0.178,0.547-0.268,0.649-0.268l0.46,0.841c-3.061,1.989-6.453,4.847-10.176,8.569c-0.816-0.612-1.683-1.288-2.602-2.027
			c-0.917-0.739-1.811-1.658-2.678-2.755s-1.403-2.41-1.606-3.94c-2.857,1.889-6.478,4.795-10.864,8.723
			c-2.754-1.531-4.642-3.035-5.661-4.514c-1.021-1.479-1.529-3.162-1.529-5.051V27.925c0-2.754,1.631-4.793,4.896-6.121
			C125.709,18.999,130.503,16.372,133.41,13.924z M125.606,45.444c0,2.041,0.612,3.137,1.837,3.29
			c0.611-0.102,1.249-0.407,1.913-0.918l2.677-1.913v-20.35c-1.633-0.816-3.774-2.397-6.427-4.744V45.444z"/>
		<path d="M150.166,23.487l-0.765-0.766c1.224-0.918,2.855-2.219,4.896-3.901c2.04-1.684,3.979-3.263,5.815-4.743
			c3.824,3.928,7.063,6.401,9.716,7.421v0.918c-2.755,0-4.131,1.251-4.131,3.749v17.52c0,2.296,0.79,3.52,2.372,3.673
			c1.224-0.203,2.218-0.637,2.982-1.301l0.459,0.766c-2.805,2.295-4.871,4.017-6.196,5.164c-1.327,1.147-2.959,2.513-4.896,4.093
			c-2.143-1.326-3.724-2.881-4.744-4.666s-1.529-3.315-1.529-4.591V26.472c0-1.581-0.103-2.666-0.307-3.252
			s-0.587-0.906-1.146-0.957C151.926,22.263,151.084,22.672,150.166,23.487z M159.271,12.547c-3.214-2.651-4.82-5.177-4.82-7.574
			c0-1.326,0.536-2.46,1.606-3.404c1.071-0.943,2.423-1.416,4.056-1.416c1.529,0,2.816,0.524,3.863,1.569
			c1.045,1.045,1.568,2.283,1.568,3.71C165.544,7.727,163.452,10.099,159.271,12.547z"/>
		<path d="M177.02,10.175C178.55,3.392,184.696,0,195.458,0v1.377c-4.693,0-7.039,2.678-7.039,8.033v33.511
			c0,2.856,0.842,4.334,2.524,4.437c1.378-0.153,2.78-0.688,4.209-1.606l0.306,1.071c-2.499,1.683-6.503,4.718-12.012,9.104
			c-2.906-3.774-6.248-6.631-10.022-8.569l0.306-0.841c0.408,0.102,0.919,0.255,1.53,0.458c1.071-0.101,1.606-0.509,1.606-1.224
			V16.755c0-1.58-0.217-3.162-0.649-4.743c-0.435-1.581-1.008-3.086-1.722-4.515c-0.715-1.428-1.454-2.524-2.219-3.289l0.765-0.918
			c1.837,1.887,3.111,4.182,3.825,6.885H177.02z"/>
		<path d="M201.119,23.64c-3.213-1.07-4.923-3.467-5.126-7.191c0.102-2.549,1.032-4.819,2.792-6.809s4.118-3.009,7.077-3.061h1.684
			v1.377h-0.918c-3.061,0.307-4.591,1.199-4.591,2.678c0,0.409,0.191,0.766,0.573,1.071c0.383,0.307,0.957,0.625,1.722,0.956
			c0.766,0.333,1.785,0.754,3.061,1.263c3.469,1.377,5.203,4.412,5.203,9.104l12.546-9.104c2.04,2.245,3.455,4.298,4.247,6.159
			c0.79,1.862,1.186,3.89,1.186,6.082v17.673c0,4.743-0.74,8.786-2.219,12.127c-1.479,3.339-3.852,6.323-7.115,8.951
			c-3.265,2.626-7.573,5.188-12.929,7.688l-0.46-0.994c4.08-1.786,6.962-4.234,8.646-7.345c1.684-3.112,2.524-7.702,2.524-13.771
			v-23.26c0-3.416-0.74-5.125-2.219-5.125c-0.203,0-0.535,0.103-0.994,0.306c-0.46,0.204-0.97,0.511-1.53,0.919
			c-0.562,0.408-1.122,0.815-1.683,1.223v19.127c0,1.939,0.662,2.984,1.988,3.138c0.919-0.153,1.964-0.562,3.137-1.224v1.07
			c-4.183,2.754-7.677,5.84-10.481,9.258c-3.315-4.08-6.503-6.783-9.563-8.11v-0.842c2.295-0.306,3.443-1.071,3.443-2.295V23.64z"/>
	</g>
	<g>
		<g>
			<path d="M10.954,34.77c-0.666,0.296-1.352,0.472-2.053,0.527c-1.074-0.056-1.93-0.444-2.566-1.165
				c-0.639-0.722-0.957-1.618-0.957-2.691c-0.037-0.942,0.176-1.849,0.638-2.719c0.462-0.869,1.044-1.543,1.747-2.024
				c1.092-0.722,2.479-1.082,4.162-1.082c1.571,0,3.005,0.343,4.3,1.026c1.294,0.685,2.64,1.553,4.036,2.607
				s2.307,1.591,2.732,1.609c0.573-0.129,0.859-0.453,0.859-0.971s-0.259-1.036-0.775-1.555c-0.52-0.517-1.305-0.905-2.358-1.164
				l0.056-0.472c2.348,0.647,3.523,1.804,3.523,3.468c0,1.035-0.398,1.891-1.193,2.565c-0.796,0.676-1.738,0.995-2.829,0.957
				c-1.129-0.055-2.913-0.749-5.354-2.08c-0.204,0.148-0.334,0.333-0.389,0.554c0.018,0.297,0.489,0.736,1.414,1.318
				c0.926,0.584,1.651,1.148,2.178,1.692c0.527,0.546,0.717,1.234,0.569,2.067c-0.073,0.573-0.286,1.067-0.638,1.484
				c-0.352,0.415-0.722,0.768-1.109,1.054c-0.389,0.287-0.797,0.597-1.221,0.929c0.351,0.204,0.863,0.505,1.539,0.902
				s1.4,0.758,2.178,1.082c0.777,0.323,1.488,0.494,2.137,0.513c0.609,0,1.142-0.269,1.595-0.804
				c0.452-0.537,0.735-1.147,0.847-1.832l0.471,0.084c-0.463,1.83-1.341,3.223-2.635,4.174c-1.295,0.954-2.637,1.41-4.023,1.374
				c-2.071,0-4.309-0.759-6.713-2.274c-1.905-1.166-3.08-1.729-3.523-1.692c-0.37,0.037-0.707,0.277-1.012,0.722
				c-0.307,0.443-0.458,0.869-0.458,1.275v0.444H5.655v-0.389c0-1.405,0.489-2.622,1.471-3.647c0.979-1.027,2.145-1.541,3.495-1.541
				c0.739,0,1.521,0.121,2.344,0.361s1.512,0.537,2.067,0.888c0.055,0,0.102,0.019,0.138,0.056c0.407,0,0.61-0.166,0.61-0.499
				c0-0.074-0.004-0.13-0.014-0.167s-0.023-0.073-0.041-0.111c-0.167-0.277-0.634-0.642-1.401-1.096
				c-0.768-0.453-1.341-0.836-1.72-1.15c-0.38-0.314-0.643-0.758-0.791-1.332c0-0.166-0.037-0.361-0.11-0.582
				c0.019-0.814,0.29-1.518,0.817-2.109s1.216-1.229,2.066-1.914c-0.665-0.462-1.521-0.873-2.565-1.234
				c-1.046-0.361-2.03-0.541-2.954-0.541c-1.924,0-2.94,0.777-3.052,2.33c0.036,0.148,0.069,0.311,0.097,0.486
				s0.051,0.318,0.07,0.43c0.092,0.407,0.397,0.814,0.914,1.221c0.518,0.406,1.139,0.619,1.859,0.638
				c0.722-0.073,1.332-0.239,1.831-0.499L10.954,34.77z"/>
			<path d="M30.788,34.326l4.55-3.356c0.629,0.739,1.11,1.424,1.442,2.053c0.334,0.629,0.5,1.405,0.5,2.33v6.353
				c0,1.628-0.223,3.024-0.666,4.189s-1.23,2.242-2.357,3.231c-1.129,0.99-2.812,2.029-5.049,3.121l-0.168-0.36
				c1.738-0.722,2.854-1.771,3.344-3.149c0.49-1.377,0.734-2.843,0.734-4.396v-8.6c0-1.203-0.259-1.804-0.776-1.804
				c-0.166,0-0.314,0.032-0.444,0.097c-0.129,0.065-0.272,0.162-0.43,0.292s-0.384,0.296-0.68,0.499v7.352
				c0,0.703,0.213,1.082,0.639,1.138c0.296-0.056,0.564-0.166,0.805-0.333l0.11,0.389c-1.312,0.758-2.515,1.701-3.606,2.829
				c-0.555-0.739-1.15-1.322-1.789-1.747c-0.639-0.426-1.217-0.693-1.734-0.805v-0.389c0.48,0,0.832-0.088,1.055-0.264
				s0.333-0.559,0.333-1.151v-9.849c0-0.776-0.171-1.654-0.513-2.635c-0.343-0.98-0.727-1.618-1.152-1.914l0.277-0.333
				c0.61,0.592,1.072,1.425,1.388,2.497h0.056c0.148-1.406,0.947-2.372,2.398-2.899c1.453-0.527,3.076-0.791,4.869-0.791v0.5h-0.639
				c-0.942,0-1.594,0.286-1.955,0.859c-0.36,0.573-0.541,1.351-0.541,2.331V34.326z"/>
			<path d="M47.101,31.024l3.023,4.883l-6.131,3.883c0.758,2.072,2.025,3.107,3.801,3.107c0.535,0,1.369-0.379,2.497-1.137
				l0.222,0.305c-0.463,0.334-0.887,0.639-1.276,0.916c-0.388,0.277-0.907,0.656-1.554,1.137c-0.647,0.481-1.184,0.902-1.608,1.263
				c-0.426,0.36-0.74,0.652-0.943,0.874c-2.053-0.777-3.45-1.674-4.188-2.691c-0.74-1.017-1.11-2.256-1.11-3.717v-2.164
				c0.073-0.98,0.181-1.752,0.319-2.316c0.139-0.563,0.447-1.077,0.93-1.539c0.48-0.463,1.238-0.879,2.274-1.249L47.101,31.024z
				 M43.937,32.855h-0.055v6.464l2.664-1.748L43.937,32.855z"/>
		</g>
	</g>
</g>
</svg>
