<?xml version="1.0" encoding="utf-8"?>
<!-- Generator: Adobe Illustrator 16.2.1, SVG Export Plug-In . SVG Version: 6.00 Build 0)  -->
<!DOCTYPE svg PUBLIC "-//W3C//DTD SVG 1.1//EN" "http://www.w3.org/Graphics/SVG/1.1/DTD/svg11.dtd">
<svg version="1.1" id="Capa_1" xmlns="http://www.w3.org/2000/svg" xmlns:xlink="http://www.w3.org/1999/xlink" x="0px" y="0px"
	 width="208.898px" height="467.092px" viewBox="-923.29 11.353 208.898 467.092"
	 enable-background="new -923.29 11.353 208.898 467.092" xml:space="preserve">
<g>
	<g>
		<path fill="#FFFFFF" d="M-876.517,309.199l-9.791,10.825l-20.349,4.495v18.375l30.14-6.66v15.222l-45.004,9.942v-40.262
			l9.585-10.727l20.555-4.542v-18.372l-15.122,3.342v6.193l-15.019,3.318v-12.808l9.585-10.726l25.885-5.718l9.534,6.5
			L-876.517,309.199L-876.517,309.199z"/>
		<path fill="#FFFFFF" d="M-823.726,331.185l-9.635,10.737l-26.553,5.867l-9.431-6.525v-29.659l-3.126-2.249l3.127-3.683v-29.607
			l9.637-10.792l26.347-5.821l9.634,6.534v29.607l3.076,2.312l-3.076,3.62V331.185L-823.726,331.185z M-854.48,308.32v23.045
			l15.89-3.511v-23.046l-3.075-2.259l3.075-3.671v-23.046l-15.89,3.512v23.044l3.126,2.301L-854.48,308.32z"/>
		<path fill="#FFFFFF" d="M-797.481,333.995l-14.864,3.285v-38.268l-3.076-2.261l3.076-3.671v-19.529l-4.255,0.939v-15.222
			l9.177-5.543l9.942-2.198v38.268l3.127,2.302l-3.127,3.63V333.995L-797.481,333.995z"/>
		<path fill="#FFFFFF" d="M-780.872,311.953l-9.431-6.526l30.806-62.291l14.865-3.284v48.871l4.15-0.918v15.224l-4.15,0.917v18.374
			l-14.916,3.294v-2.52l0.051-0.012v-15.853L-780.872,311.953z M-769.543,294.227l10.046-2.218v-18.06L-769.543,294.227z"/>
	</g>
	<g>
		<polygon fill="#534741" points="-779.211,208.401 -779.211,207.871 -784.146,204.586 -784.146,205.116 		"/>
		<polygon fill="#534741" points="-784.146,199.807 -779.211,203.093 -779.211,202.563 -784.146,199.277 		"/>
		<path fill="#534741" d="M-762.125,215.706c0.088,0.292,0.185,0.439,0.229,0.497c0.054,0.065,0.211,0.26,0.914,0.264
			L-762.125,215.706z"/>
		<polygon fill="#534741" points="-779.211,204.863 -779.211,204.331 -784.146,201.047 -784.146,201.577 		"/>
		<polygon fill="#534741" points="-779.211,206.631 -779.211,206.101 -784.146,202.815 -784.146,203.347 		"/>
		<path fill="#534741" d="M-762.301,214.352l2.856,1.901l0.598-0.132l-3.455-2.301v0.387
			C-762.302,214.257-762.301,214.303-762.301,214.352z"/>
		<polygon fill="#534741" points="-754.683,210.575 -754.083,210.443 -758.096,207.772 -758.694,207.906 		"/>
		<path fill="#534741" d="M-756.644,211.04c0.094-0.039,0.191-0.074,0.304-0.098l0.26-0.057l-4.011-2.67l-0.6,0.132L-756.644,211.04
			z"/>
		<polygon fill="#534741" points="-757.448,215.812 -757.366,215.793 -757.366,215.335 -762.302,212.051 -762.302,212.581 		"/>
		<polygon fill="#534741" points="-757.366,214.096 -757.366,213.566 -762.302,210.281 -762.302,210.812 		"/>
		<polygon fill="#534741" points="-779.211,217.247 -779.211,216.716 -784.146,213.432 -784.146,213.962 		"/>
		<polygon fill="#534741" points="-750.364,232.383 -750.962,232.515 -746.95,235.186 -746.354,235.053 		"/>
		<polygon fill="#534741" points="-749.844,183.188 -753.856,180.518 -754.454,180.65 -750.442,183.321 		"/>
		<polygon fill="#534741" points="-752.358,232.825 -752.957,232.957 -748.944,235.627 -748.349,235.494 		"/>
		<polygon fill="#534741" points="-746.372,231.501 -746.97,231.634 -742.959,234.304 -742.362,234.172 		"/>
		<polygon fill="#534741" points="-748.366,231.941 -748.966,232.075 -744.955,234.745 -744.356,234.613 		"/>
		<polygon fill="#534741" points="-779.211,211.94 -779.211,211.409 -784.146,208.124 -784.146,208.654 		"/>
		<polygon fill="#534741" points="-754.104,206.891 -754.704,207.023 -750.694,209.694 -750.093,209.561 		"/>
		<polygon fill="#534741" points="-779.211,213.71 -779.211,213.178 -784.146,209.894 -784.146,210.424 		"/>
		<polygon fill="#534741" points="-779.211,215.478 -779.211,214.947 -784.146,211.663 -784.146,212.194 		"/>
		<polygon fill="#534741" points="-756.351,233.705 -756.948,233.837 -752.938,236.508 -752.34,236.376 		"/>
		<polygon fill="#534741" points="-784.146,232.894 -784.146,233.425 -779.211,236.71 -779.211,236.179 		"/>
		<polygon fill="#534741" points="-784.146,229.356 -784.146,229.886 -779.211,233.17 -779.211,232.64 		"/>
		<polygon fill="#534741" points="-784.146,231.125 -784.146,231.655 -779.211,234.941 -779.211,234.41 		"/>
		<polygon fill="#534741" points="-784.146,227.586 -784.146,228.117 -779.211,231.401 -779.211,230.871 		"/>
		<polygon fill="#534741" points="-784.146,225.817 -784.146,226.348 -779.211,229.633 -779.211,229.102 		"/>
		<path fill="#534741" d="M-780.313,242.522l-4.891-3.256c-0.104,0.113-0.205,0.22-0.316,0.32l4.646,3.094l0.165-0.036
			C-780.567,242.613-780.435,242.571-780.313,242.522z"/>
		<path fill="#534741" d="M-784.442,238.002c-0.056,0.142-0.115,0.279-0.183,0.412l5.147,3.426c0.074-0.124,0.133-0.262,0.178-0.413
			L-784.442,238.002z"/>
		<polygon fill="#534741" points="-752.688,210.134 -752.089,210.003 -756.101,207.332 -756.698,207.464 		"/>
		<polygon fill="#534741" points="-784.146,234.663 -784.146,235.194 -779.211,238.479 -779.211,237.948 		"/>
		<path fill="#534741" d="M-784.149,236.43c-0.004,0.173-0.018,0.341-0.035,0.507l4.974,3.311v-0.53L-784.149,236.43z"/>
		<polygon fill="#534741" points="-754.356,233.265 -754.953,233.397 -750.94,236.068 -750.344,235.935 		"/>
		<polygon fill="#534741" points="-758.346,234.147 -758.942,234.279 -754.933,236.95 -754.335,236.817 		"/>
		<polygon fill="#534741" points="-744.378,231.061 -744.978,231.193 -740.963,233.863 -740.364,233.731 		"/>
		<path fill="#534741" d="M-757.366,212.327v-0.105c0-0.145,0.018-0.272,0.045-0.394l-4.765-3.174l-0.216,0.047v0.341
			L-757.366,212.327z"/>
		<path fill="#534741" d="M-766.378,235.877c-0.223,0.034-0.443,0.063-0.664,0.089l2.609,1.736c0.377,0.098,0.758,0.176,1.148,0.234
			L-766.378,235.877z"/>
		<path fill="#534741" d="M-764.33,235.469l-0.6,0.132l3.69,2.459c0.246-0.006,0.493-0.018,0.743-0.038L-764.33,235.469z"/>
		<polygon fill="#534741" points="-784.146,224.047 -784.146,224.578 -779.211,227.864 -779.211,227.333 		"/>
		<path fill="#534741" d="M-762.335,235.028l-0.6,0.132l3.996,2.66c0.201-0.037,0.406-0.076,0.613-0.122L-762.335,235.028z"/>
		<polygon fill="#534741" points="-760.343,234.587 -760.938,234.72 -756.928,237.391 -756.33,237.257 		"/>
		<path fill="#534741" d="M-744.474,204.458c-0.135,0.088-0.276,0.171-0.426,0.247l4.184,2.785l0.598-0.133L-744.474,204.458z"/>
		<polygon fill="#534741" points="-734.237,168.809 -736.749,167.136 -737.349,167.268 -734.237,169.339 		"/>
		<polygon fill="#534741" points="-734.237,170.578 -738.746,167.576 -739.172,167.671 -739.172,167.823 -734.237,171.108 		"/>
		<polygon fill="#534741" points="-734.237,172.346 -739.172,169.062 -739.172,169.592 -734.237,172.877 		"/>
		<polygon fill="#534741" points="-734.237,174.116 -739.172,170.83 -739.172,171.362 -734.237,174.647 		"/>
		<path fill="#534741" d="M-735.301,166.861l0.972,0.648C-734.476,167.072-734.798,166.857-735.301,166.861z"/>
		<path fill="#534741" d="M-737.7,194.813l-1.281-0.855c-0.073,0.009-0.147,0.021-0.225,0.04l-0.386,0.085l1.927,1.284v-0.132
			C-737.665,195.08-737.677,194.939-737.7,194.813z"/>
		<polygon fill="#534741" points="-742.599,195.089 -742.599,195.62 -737.665,198.905 -737.665,198.375 		"/>
		<polygon fill="#534741" points="-742.599,196.859 -742.599,197.389 -737.665,200.674 -737.665,200.144 		"/>
		<polygon fill="#534741" points="-740.991,194.391 -741.59,194.523 -737.665,197.136 -737.665,196.606 		"/>
		<polygon fill="#534741" points="-742.599,198.628 -742.599,199.159 -737.665,202.444 -737.665,201.913 		"/>
		<polygon fill="#534741" points="-741.862,181.424 -745.875,178.754 -746.474,178.886 -742.463,181.557 		"/>
		<polygon fill="#534741" points="-739.866,180.983 -743.879,178.314 -744.479,178.444 -740.467,181.116 		"/>
		<polygon fill="#534741" points="-734.237,175.885 -739.172,172.6 -739.172,173.131 -734.237,176.417 		"/>
		<polygon fill="#534741" points="-745.854,182.306 -749.864,179.635 -750.462,179.767 -746.452,182.439 		"/>
		<polygon fill="#534741" points="-743.86,181.866 -747.87,179.195 -748.47,179.326 -744.458,181.998 		"/>
		<path fill="#534741" d="M-737.874,180.542l-4.068-2.709c-0.176,0.065-0.356,0.12-0.545,0.167l4.016,2.674L-737.874,180.542z"/>
		<path fill="#534741" d="M-734.502,179.249l-5.147-3.427c-0.064,0.132-0.138,0.262-0.217,0.385l5.086,3.387
			C-734.67,179.492-734.577,179.377-734.502,179.249z"/>
		<path fill="#534741" d="M-734.237,178.161v-0.505l-4.975-3.311c-0.02,0.163-0.046,0.322-0.08,0.477l5.053,3.364
			C-734.239,178.176-734.237,178.168-734.237,178.161z"/>
		<polygon fill="#534741" points="-742.381,230.62 -742.981,230.752 -738.969,233.422 -738.368,233.289 		"/>
		<path fill="#534741" d="M-735.878,180.102l-4.665-3.107c-0.112,0.104-0.231,0.201-0.36,0.291l4.428,2.948L-735.878,180.102z"/>
		<polygon fill="#534741" points="-738.103,221.085 -738.103,221.615 -733.167,224.9 -733.167,224.37 		"/>
		<polygon fill="#534741" points="-738.103,222.853 -738.103,223.385 -733.167,226.669 -733.167,226.139 		"/>
		<polygon fill="#534741" points="-735.253,219.443 -735.853,219.574 -733.167,221.362 -733.167,220.83 		"/>
		<polygon fill="#534741" points="-738.103,224.623 -738.103,225.153 -733.167,228.439 -733.167,227.909 		"/>
		<polygon fill="#534741" points="-737.25,219.883 -737.847,220.015 -733.167,223.13 -733.167,222.6 		"/>
		<path fill="#534741" d="M-734.401,232.394l-4.838-3.222c-0.104,0.11-0.216,0.212-0.33,0.311l4.59,3.058l0.271-0.06
			C-734.601,232.458-734.499,232.426-734.401,232.394z"/>
		<path fill="#534741" d="M-742.599,200.397v0.421c0,0.036-0.004,0.071-0.004,0.107l4.938,3.288v-0.531L-742.599,200.397z"/>
		<path fill="#534741" d="M-738.444,227.934c-0.058,0.139-0.117,0.274-0.188,0.403l5.136,3.419c0.084-0.119,0.151-0.25,0.204-0.396
			L-738.444,227.934z"/>
		<path fill="#534741" d="M-738.11,226.386c-0.008,0.17-0.021,0.337-0.047,0.5l4.99,3.322v-0.531L-738.11,226.386z"/>
		<path fill="#534741" d="M-740.524,230.088c-0.158,0.074-0.326,0.141-0.5,0.198l4.049,2.695l0.601-0.132L-740.524,230.088z"/>
		<polygon fill="#534741" points="-752.108,206.45 -752.709,206.583 -748.696,209.252 -748.101,209.121 		"/>
		<polygon fill="#534741" points="-747.851,182.747 -751.86,180.076 -752.459,180.209 -748.448,182.878 		"/>
		<path fill="#534741" d="M-743.384,203.413c-0.088,0.121-0.18,0.236-0.278,0.347l4.896,3.259c0.164-0.066,0.308-0.147,0.435-0.243
			L-743.384,203.413z"/>
		<path fill="#534741" d="M-742.756,202.061c-0.041,0.149-0.09,0.295-0.144,0.437l5.146,3.424c0.043-0.146,0.069-0.305,0.08-0.476
			L-742.756,202.061z"/>
		<polygon fill="#534741" points="-762.302,189.049 -762.302,189.581 -761.192,190.319 -760.592,190.188 		"/>
		<polygon fill="#534741" points="-750.116,206.008 -750.713,206.141 -746.702,208.812 -746.103,208.679 		"/>
		<path fill="#534741" d="M-786.442,240.21c-0.154,0.078-0.32,0.144-0.487,0.206l4.063,2.705l0.598-0.131L-786.442,240.21z"/>
		<polygon fill="#534741" points="-746.125,205.127 -746.721,205.261 -742.711,207.931 -742.112,207.798 		"/>
		<polygon fill="#534741" points="-748.12,205.568 -748.719,205.7 -744.707,208.372 -744.108,208.239 		"/>
		<polygon fill="#534741" points="-779.211,210.17 -779.211,209.64 -784.146,206.355 -784.146,206.885 		"/>
		<path fill="#534741" d="M-836.248,246.536c0.059-0.138,0.115-0.277,0.169-0.416l-5.143-3.425
			c-0.056,0.139-0.113,0.277-0.174,0.415L-836.248,246.536z"/>
		<polygon fill="#534741" points="-834.852,231.542 -834.852,231.011 -839.788,227.726 -839.788,228.256 		"/>
		<polygon fill="#534741" points="-834.852,228.004 -834.852,227.472 -839.788,224.188 -839.788,224.718 		"/>
		<path fill="#534741" d="M-840.703,241.271c-0.048,0.146-0.095,0.29-0.145,0.434l5.135,3.42c0.049-0.146,0.094-0.292,0.138-0.44
			L-840.703,241.271z"/>
		<polygon fill="#534741" points="-834.852,233.312 -834.852,232.78 -839.788,229.496 -839.788,230.026 		"/>
		<polygon fill="#534741" points="-834.852,229.773 -834.852,229.241 -839.788,225.957 -839.788,226.488 		"/>
		<polygon fill="#534741" points="-834.852,220.897 -834.852,220.367 -839.788,217.082 -839.788,217.612 		"/>
		<polygon fill="#534741" points="-834.852,222.667 -834.852,222.136 -839.788,218.852 -839.788,219.381 		"/>
		<polygon fill="#534741" points="-834.852,219.127 -834.852,218.597 -839.788,215.313 -839.788,215.843 		"/>
		<polygon fill="#534741" points="-834.852,226.205 -834.852,225.674 -839.788,222.39 -839.788,222.92 		"/>
		<polygon fill="#534741" points="-834.852,224.436 -834.852,223.905 -839.788,220.62 -839.788,221.151 		"/>
		<polygon fill="#534741" points="-866.6,212.175 -861.666,215.461 -861.666,214.931 -866.6,211.645 		"/>
		<polygon fill="#534741" points="-839.788,231.265 -839.788,231.795 -834.852,235.08 -834.852,234.55 		"/>
		<polygon fill="#534741" points="-861.666,217.23 -861.666,216.699 -866.6,213.415 -866.6,213.945 		"/>
		<path fill="#534741" d="M-840.293,239.775c-0.035,0.153-0.073,0.306-0.112,0.457l5.112,3.404c0.037-0.155,0.068-0.311,0.099-0.466
			L-840.293,239.775z"/>
		<polygon fill="#534741" points="-861.666,218.999 -861.666,218.469 -866.6,215.184 -866.6,215.714 		"/>
		<path fill="#534741" d="M-839.994,238.204c-0.023,0.161-0.049,0.32-0.077,0.479l5.069,3.374c0.021-0.163,0.038-0.329,0.054-0.494
			L-839.994,238.204z"/>
		<polygon fill="#534741" points="-839.788,233.034 -839.788,233.564 -834.852,236.85 -834.852,236.319 		"/>
		<path fill="#534741" d="M-839.822,236.548c-0.011,0.169-0.023,0.339-0.038,0.506l4.995,3.325c0.004-0.173,0.011-0.349,0.011-0.523
			L-839.822,236.548z"/>
		<polygon fill="#534741" points="-839.788,234.803 -839.788,235.334 -834.852,238.62 -834.852,238.088 		"/>
		<polygon fill="#534741" points="-817.938,226.32 -817.938,226.851 -814.722,228.992 -814.97,228.296 		"/>
		<path fill="#534741" d="M-852.582,254.595c-0.162,0.07-0.325,0.138-0.489,0.205l4.307,2.867c0.189-0.048,0.376-0.1,0.563-0.154
			L-852.582,254.595z"/>
		<path fill="#534741" d="M-849.655,253.004c-0.134,0.087-0.27,0.175-0.406,0.262l4.701,3.128c0.152-0.075,0.3-0.153,0.449-0.232
			L-849.655,253.004z"/>
		<path fill="#534741" d="M-851.05,253.844c-0.147,0.079-0.295,0.159-0.445,0.235l4.534,3.02c0.169-0.064,0.337-0.127,0.503-0.197
			L-851.05,253.844z"/>
		<polygon fill="#534741" points="-817.196,222.036 -817.446,221.34 -817.938,221.011 -817.938,221.542 		"/>
		<polygon fill="#534741" points="-834.852,217.359 -834.852,216.828 -839.788,213.543 -839.788,214.073 		"/>
		<path fill="#534741" d="M-854.272,255.239c-0.179,0.057-0.361,0.115-0.542,0.168l4.069,2.71l0.598-0.133L-854.272,255.239z"/>
		<path fill="#534741" d="M-866.13,257.958l-0.598,0.133l4.003,2.666c0.111-0.022,0.22-0.041,0.331-0.068l0.275-0.06
			L-866.13,257.958z"/>
		<path fill="#534741" d="M-894.372,260.389c-0.102,0.109-0.205,0.219-0.308,0.328l5.008,3.332c0.109-0.103,0.218-0.208,0.326-0.314
			L-894.372,260.389z"/>
		<path fill="#534741" d="M-852.74,258.559l0.599-0.133l-4.013-2.67c-0.005,0-0.011,0.002-0.016,0.003l-0.582,0.129L-852.74,258.559
			z"/>
		<path fill="#534741" d="M-848.375,252.086c-0.124,0.098-0.248,0.191-0.372,0.284l4.824,3.212c0.137-0.084,0.27-0.173,0.403-0.263
			L-848.375,252.086z"/>
		<polygon fill="#534741" points="-861.666,220.769 -861.666,220.237 -866.6,216.953 -866.6,217.484 		"/>
		<polygon fill="#534741" points="-839.788,210.535 -834.852,213.82 -834.852,213.289 -839.788,210.004 		"/>
		<polygon fill="#534741" points="-834.852,215.589 -834.852,215.059 -839.788,211.773 -839.788,212.304 		"/>
		<polygon fill="#534741" points="-817.938,228.088 -817.938,228.619 -813.897,231.311 -814.146,230.614 		"/>
		<polygon fill="#534741" points="-813.005,237.213 -813.005,236.681 -817.938,233.396 -817.938,233.927 		"/>
		<polygon fill="#534741" points="-815.548,226.672 -815.795,225.977 -817.938,224.549 -817.938,225.081 		"/>
		<polygon fill="#534741" points="-817.938,231.627 -817.938,232.159 -813.005,235.443 -813.005,234.913 		"/>
		<polygon fill="#534741" points="-816.373,224.354 -816.62,223.657 -817.938,222.781 -817.938,223.312 		"/>
		<polygon fill="#534741" points="-817.938,229.857 -817.938,230.389 -813.069,233.629 -813.319,232.934 		"/>
		<path fill="#534741" d="M-818.28,245.583c-0.059,0.14-0.119,0.274-0.189,0.404l5.135,3.418c0.085-0.118,0.152-0.249,0.204-0.395
			L-818.28,245.583z"/>
		<polygon fill="#534741" points="-788.274,240.76 -788.875,240.891 -784.862,243.562 -784.265,243.43 		"/>
		<path fill="#534741" d="M-814.243,250.04l-4.832-3.218c-0.104,0.111-0.215,0.212-0.334,0.311l4.584,3.05l0.322-0.071
			C-814.412,250.09-814.327,250.066-814.243,250.04z"/>
		<path fill="#534741" d="M-817.948,244.035c-0.008,0.171-0.021,0.338-0.047,0.5l4.99,3.323v-0.53L-817.948,244.035z"/>
		<polygon fill="#534741" points="-817.938,238.733 -817.938,239.264 -813.005,242.549 -813.005,242.019 		"/>
		<polygon fill="#534741" points="-817.938,240.503 -817.938,241.034 -813.005,244.318 -813.005,243.788 		"/>
		<polygon fill="#534741" points="-817.938,242.273 -817.938,242.803 -813.005,246.087 -813.005,245.558 		"/>
		<polygon fill="#534741" points="-824.228,248.702 -824.825,248.835 -820.813,251.505 -820.214,251.372 		"/>
		<polygon fill="#534741" points="-826.222,249.143 -826.821,249.275 -822.81,251.944 -822.21,251.812 		"/>
		<polygon fill="#534741" points="-828.216,249.583 -828.425,249.628 -828.425,249.977 -824.805,252.386 -824.206,252.253 		"/>
		<polygon fill="#534741" points="-822.231,248.26 -822.828,248.393 -818.817,251.064 -818.219,250.932 		"/>
		<path fill="#534741" d="M-820.362,247.734c-0.162,0.075-0.328,0.14-0.502,0.197l4.041,2.69l0.6-0.131L-820.362,247.734z"/>
		<polygon fill="#534741" points="-794.263,242.082 -794.86,242.214 -790.851,244.884 -790.251,244.752 		"/>
		<polygon fill="#534741" points="-796.258,242.522 -796.856,242.655 -792.845,245.325 -792.246,245.193 		"/>
		<polygon fill="#534741" points="-792.267,241.641 -792.864,241.773 -788.854,244.444 -788.256,244.312 		"/>
		<polygon fill="#534741" points="-817.938,236.935 -817.938,237.466 -813.005,240.751 -813.005,240.22 		"/>
		<polygon fill="#534741" points="-790.272,241.2 -790.868,241.333 -786.858,244.002 -786.26,243.871 		"/>
		<path fill="#534741" d="M-798.233,246.516l-2.463-1.642l0.197,0.563c0.018,0.047,0.036,0.092,0.057,0.137l1.572,1.048
			c0.137-0.008,0.277-0.026,0.428-0.059L-798.233,246.516z"/>
		<polygon fill="#534741" points="-817.938,235.166 -817.938,235.696 -813.005,238.982 -813.005,238.451 		"/>
		<polygon fill="#534741" points="-798.254,242.963 -798.853,243.095 -794.84,245.767 -794.241,245.634 		"/>
		<polygon fill="#534741" points="-800.249,243.404 -800.849,243.537 -796.836,246.207 -796.237,246.074 		"/>
		<polygon fill="#534741" points="-861.666,229.615 -861.666,229.084 -866.6,225.799 -866.6,226.331 		"/>
		<polygon fill="#534741" points="-861.666,231.384 -861.666,230.854 -866.6,227.568 -866.6,228.099 		"/>
		<polygon fill="#534741" points="-861.666,233.153 -861.666,232.623 -866.6,229.338 -866.6,229.869 		"/>
		<polygon fill="#534741" points="-861.666,234.922 -861.666,234.392 -866.6,231.107 -866.6,231.638 		"/>
		<polygon fill="#534741" points="-861.666,236.692 -861.666,236.162 -866.6,232.876 -866.6,233.408 		"/>
		<polygon fill="#534741" points="-861.666,226.076 -861.666,225.545 -866.6,222.261 -866.6,222.792 		"/>
		<polygon fill="#534741" points="-861.666,224.307 -861.666,223.776 -866.6,220.491 -866.6,221.023 		"/>
		<polygon fill="#534741" points="-861.666,238.461 -861.666,237.931 -866.6,234.646 -866.6,235.177 		"/>
		<polygon fill="#534741" points="-861.666,222.538 -861.666,222.007 -866.6,218.722 -866.6,219.253 		"/>
		<polygon fill="#534741" points="-861.666,227.845 -861.666,227.315 -866.6,224.03 -866.6,224.561 		"/>
		<polygon fill="#534741" points="-863.238,239.184 -862.64,239.052 -866.6,236.415 -866.6,236.945 		"/>
		<path fill="#534741" d="M-843.317,246.608c-0.081,0.122-0.164,0.244-0.25,0.364l5.106,3.398c0.086-0.118,0.173-0.239,0.255-0.36
			L-843.317,246.608z"/>
		<path fill="#534741" d="M-842.533,245.36c-0.075,0.126-0.149,0.253-0.227,0.379l5.129,3.415c0.079-0.125,0.154-0.252,0.229-0.378
			L-842.533,245.36z"/>
		<path fill="#534741" d="M-828.425,251.214v0.392c0,0.049,0.003,0.095,0.005,0.143l1.621,1.078l0.597-0.133L-828.425,251.214z"/>
		<path fill="#534741" d="M-841.834,244.058c-0.064,0.132-0.131,0.264-0.201,0.396l5.143,3.423c0.071-0.131,0.135-0.265,0.202-0.396
			L-841.834,244.058z"/>
		<path fill="#534741" d="M-839.088,251.193l-5.087-3.387c-0.089,0.118-0.179,0.234-0.272,0.35l5.075,3.378
			c0.093-0.11,0.187-0.22,0.278-0.335C-839.091,251.198-839.089,251.196-839.088,251.193z"/>
		<polygon fill="#534741" points="-865.233,239.625 -864.635,239.493 -866.6,238.185 -866.6,238.715 		"/>
		<path fill="#534741" d="M-847.197,251.101c-0.114,0.103-0.228,0.203-0.344,0.303l4.919,3.276c0.123-0.094,0.244-0.191,0.365-0.289
			L-847.197,251.101z"/>
		<path fill="#534741" d="M-845.106,248.956c-0.097,0.113-0.195,0.224-0.293,0.334l5.038,3.354c0.104-0.108,0.205-0.216,0.307-0.327
			L-845.106,248.956z"/>
		<path fill="#534741" d="M-846.11,250.056c-0.104,0.109-0.21,0.216-0.316,0.32l4.987,3.32c0.112-0.101,0.223-0.205,0.334-0.309
			L-846.11,250.056z"/>
		<polygon fill="#534741" points="-804.423,198.162 -805.555,197.408 -805.31,198.103 -804.423,198.693 		"/>
		<path fill="#534741" d="M-888.568,248.33c-0.018,0.163-0.04,0.326-0.063,0.488l5.042,3.357c0.016-0.168,0.028-0.334,0.039-0.504
			L-888.568,248.33z"/>
		<path fill="#534741" d="M-888.818,249.931c-0.031,0.155-0.063,0.312-0.099,0.464l5.095,3.392c0.029-0.157,0.059-0.314,0.084-0.472
			L-888.818,249.931z"/>
		<path fill="#534741" d="M-868.125,258.4l-0.599,0.132l3.787,2.521c0.232-0.014,0.468-0.035,0.706-0.061L-868.125,258.4z"/>
		<path fill="#534741" d="M-889.189,251.454c-0.043,0.149-0.086,0.296-0.133,0.443l5.128,3.414c0.043-0.149,0.085-0.295,0.126-0.447
			L-889.189,251.454z"/>
		<polygon fill="#534741" points="-864.135,257.52 -864.733,257.652 -860.722,260.32 -860.123,260.189 		"/>
		<path fill="#534741" d="M-892.491,258.103c-0.087,0.117-0.174,0.237-0.264,0.354l5.088,3.388c0.092-0.116,0.182-0.233,0.271-0.352
			L-892.491,258.103z"/>
		<path fill="#534741" d="M-890.91,255.618c-0.07,0.129-0.144,0.257-0.217,0.386l5.134,3.417c0.075-0.129,0.148-0.256,0.22-0.384
			L-890.91,255.618z"/>
		<path fill="#534741" d="M-889.667,252.907c-0.051,0.139-0.106,0.282-0.163,0.421l5.144,3.424c0.054-0.141,0.11-0.282,0.161-0.422
			L-889.667,252.907z"/>
		<path fill="#534741" d="M-891.662,256.887c-0.079,0.123-0.159,0.246-0.24,0.369l5.115,3.404c0.085-0.122,0.164-0.244,0.245-0.365
			L-891.662,256.887z"/>
		<path fill="#534741" d="M-890.243,254.292c-0.062,0.135-0.126,0.268-0.192,0.405l5.145,3.422c0.065-0.132,0.131-0.268,0.193-0.4
			L-890.243,254.292z"/>
		<path fill="#534741" d="M-870.148,258.824c-0.215,0.036-0.43,0.073-0.643,0.104l3.005,2c0.318,0.051,0.641,0.086,0.969,0.114
			L-870.148,258.824z"/>
		<polygon fill="#534741" points="-862.139,257.078 -862.738,257.21 -858.727,259.88 -858.128,259.748 		"/>
		<polygon fill="#534741" points="-860.144,256.637 -860.743,256.769 -856.731,259.439 -856.132,259.308 		"/>
		<polygon fill="#534741" points="-858.148,256.197 -858.747,256.33 -854.735,258.998 -854.137,258.867 		"/>
		<polygon fill="#534741" points="-910.029,267.659 -910.628,267.791 -906.616,270.46 -906.017,270.329 		"/>
		<polygon fill="#534741" points="-914.562,269.948 -914.562,270.48 -912.602,271.784 -912.003,271.651 		"/>
		<path fill="#534741" d="M-883.509,249.927l-4.942-3.289c-0.004,0.172-0.012,0.344-0.02,0.516l4.962,3.305V249.927z"/>
		<polygon fill="#534741" points="-912.025,268.098 -912.623,268.231 -908.611,270.903 -908.014,270.77 		"/>
		<polygon fill="#534741" points="-914.019,268.539 -914.562,268.66 -914.562,268.709 -910.607,271.342 -910.008,271.21 		"/>
		<path fill="#534741" d="M-893.396,259.27c-0.094,0.114-0.189,0.229-0.285,0.341l5.053,3.364c0.1-0.11,0.2-0.22,0.298-0.331
			L-893.396,259.27z"/>
		<polygon fill="#534741" points="-883.509,242.851 -888.443,239.566 -888.443,240.097 -883.509,243.381 		"/>
		<polygon fill="#534741" points="-883.509,241.082 -888.443,237.797 -888.443,238.328 -883.509,241.612 		"/>
		<polygon fill="#534741" points="-883.509,248.158 -888.443,244.874 -888.443,245.404 -883.509,248.689 		"/>
		<polygon fill="#534741" points="-883.509,244.62 -888.443,241.336 -888.443,241.866 -883.509,245.151 		"/>
		<path fill="#534741" d="M-896.567,262.465c-0.121,0.1-0.24,0.195-0.361,0.29l4.863,3.239c0.132-0.087,0.262-0.178,0.39-0.27
			L-896.567,262.465z"/>
		<path fill="#534741" d="M-897.806,263.41c-0.13,0.091-0.261,0.182-0.393,0.271l4.752,3.163c0.145-0.078,0.29-0.157,0.433-0.243
			L-897.806,263.41z"/>
		<polygon fill="#534741" points="-908.033,267.218 -908.632,267.35 -904.621,270.02 -904.023,269.888 		"/>
		<path fill="#534741" d="M-895.426,261.457c-0.11,0.104-0.221,0.208-0.333,0.309l4.946,3.293c0.119-0.096,0.237-0.194,0.354-0.294
			L-895.426,261.457z"/>
		<path fill="#534741" d="M-899.156,264.282c-0.142,0.083-0.284,0.165-0.428,0.245l4.605,3.065c0.16-0.068,0.319-0.138,0.478-0.211
			L-899.156,264.282z"/>
		<path fill="#534741" d="M-900.633,265.067c-0.155,0.076-0.312,0.146-0.47,0.219l4.402,2.929c0.18-0.054,0.358-0.114,0.536-0.173
			L-900.633,265.067z"/>
		<path fill="#534741" d="M-904.061,266.323c-0.193,0.05-0.387,0.097-0.583,0.144l4.013,2.67l0.599-0.13L-904.061,266.323z"/>
		<polygon fill="#534741" points="-906.038,266.776 -906.637,266.908 -902.626,269.579 -902.027,269.446 		"/>
		<path fill="#534741" d="M-902.257,265.755c-0.172,0.062-0.346,0.125-0.521,0.184l4.145,2.759l0.598-0.133L-902.257,265.755z"/>
		<polygon fill="#534741" points="-883.509,246.39 -888.443,243.105 -888.443,243.635 -883.509,246.919 		"/>
		<polygon fill="#534741" points="-751.84,183.629 -755.853,180.958 -756.448,181.09 -752.438,183.761 		"/>
		<polygon fill="#534741" points="-804.423,194.624 -807.198,192.776 -806.95,193.471 -804.423,195.154 		"/>
		<polygon fill="#534741" points="-804.423,196.392 -806.377,195.093 -806.13,195.787 -804.423,196.923 		"/>
		<polygon fill="#534741" points="-804.423,192.853 -808.021,190.46 -807.774,191.155 -804.423,193.384 		"/>
		<polygon fill="#534741" points="-779.211,218.486 -784.146,215.201 -784.146,215.732 -779.211,219.017 		"/>
		<polygon fill="#534741" points="-779.211,220.255 -784.146,216.97 -784.146,217.502 -779.211,220.786 		"/>
		<polygon fill="#534741" points="-804.423,199.931 -804.733,199.724 -804.487,200.419 -804.423,200.462 		"/>
		<polygon fill="#534741" points="-804.423,191.523 -804.628,190.949 -808.841,188.143 -808.595,188.838 -804.423,191.616 		"/>
		<path fill="#534741" d="M-807.006,184.237c-0.032-0.089-0.067-0.171-0.104-0.25l-1.414-0.94c-0.168,0-0.348,0.021-0.539,0.064
			l-0.121,0.027l2.339,1.556L-807.006,184.237z"/>
		<polygon fill="#534741" points="-806.271,186.316 -810.485,183.511 -810.237,184.206 -806.022,187.011 		"/>
		<polygon fill="#534741" points="-805.448,188.631 -809.663,185.828 -809.416,186.523 -805.2,189.327 		"/>
		<polygon fill="#534741" points="-779.211,200.794 -784.146,197.508 -784.146,198.039 -779.211,201.325 		"/>
		<polygon fill="#534741" points="-834.852,195.597 -839.788,192.311 -839.788,192.841 -834.852,196.128 		"/>
		<polygon fill="#534741" points="-834.852,197.365 -839.788,194.081 -839.788,194.612 -834.852,197.896 		"/>
		<polygon fill="#534741" points="-834.852,193.827 -839.788,190.542 -839.788,191.073 -834.852,194.357 		"/>
		<polygon fill="#534741" points="-779.211,222.024 -784.146,218.74 -784.146,219.271 -779.211,222.555 		"/>
		<polygon fill="#534741" points="-834.852,199.134 -839.788,195.85 -839.788,196.38 -834.852,199.665 		"/>
		<polygon fill="#534741" points="-779.211,225.563 -784.146,222.278 -784.146,222.809 -779.211,226.094 		"/>
		<polygon fill="#534741" points="-779.211,223.794 -784.146,220.509 -784.146,221.04 -779.211,224.324 		"/>
		<polygon fill="#534741" points="-834.852,192.057 -838.516,189.618 -839.116,189.751 -834.852,192.589 		"/>
		<path fill="#534741" d="M-834.852,190.389c0-0.035-0.002-0.068-0.005-0.103l-1.665-1.107l-0.599,0.13l2.268,1.51L-834.852,190.389
			L-834.852,190.389z"/>
		<polygon fill="#534741" points="-779.211,199.024 -784.146,195.739 -784.146,196.271 -779.211,199.555 		"/>
		<path fill="#534741" d="M-779.211,178.095c0-0.113-0.007-0.217-0.019-0.315l-1.418-0.945c-0.021,0.005-0.041,0.007-0.062,0.012
			l-0.537,0.12l2.035,1.357V178.095z"/>
		<polygon fill="#534741" points="-758.596,189.747 -762.302,187.281 -762.302,187.811 -759.194,189.879 		"/>
		<polygon fill="#534741" points="-779.211,179.562 -782.644,177.275 -783.243,177.408 -779.211,180.092 		"/>
		<polygon fill="#534741" points="-757.366,188.796 -762.302,185.511 -762.302,186.042 -757.366,189.327 		"/>
		<polygon fill="#534741" points="-757.366,187.026 -762.302,183.742 -762.302,184.273 -757.366,187.557 		"/>
		<path fill="#534741" d="M-756.34,184.623l0.509-0.112l-4.011-2.671l-0.599,0.133l4.017,2.674
			C-756.396,184.639-756.368,184.629-756.34,184.623z"/>
		<polygon fill="#534741" points="-753.837,184.069 -757.847,181.399 -758.444,181.531 -754.435,184.201 		"/>
		<polygon fill="#534741" points="-779.211,181.331 -784.146,178.045 -784.146,178.578 -779.211,181.862 		"/>
		<path fill="#534741" d="M-757.262,185.327l-4.577-3.046l-0.463,0.103v0.12l4.941,3.289
			C-757.353,185.619-757.317,185.464-757.262,185.327z"/>
		<polygon fill="#534741" points="-834.852,200.904 -839.788,197.619 -839.788,198.15 -834.852,201.435 		"/>
		<polygon fill="#534741" points="-779.211,193.716 -784.146,190.431 -784.146,190.962 -779.211,194.247 		"/>
		<polygon fill="#534741" points="-779.211,195.485 -784.146,192.2 -784.146,192.731 -779.211,196.015 		"/>
		<polygon fill="#534741" points="-779.211,197.254 -784.146,193.969 -784.146,194.501 -779.211,197.786 		"/>
		<polygon fill="#534741" points="-779.211,191.946 -784.146,188.662 -784.146,189.192 -779.211,192.478 		"/>
		<polygon fill="#534741" points="-779.211,190.177 -784.146,186.892 -784.146,187.422 -779.211,190.708 		"/>
		<polygon fill="#534741" points="-779.211,184.87 -784.146,181.584 -784.146,182.115 -779.211,185.401 		"/>
		<polygon fill="#534741" points="-779.211,183.099 -784.146,179.815 -784.146,180.346 -779.211,183.631 		"/>
		<polygon fill="#534741" points="-779.211,186.64 -784.146,183.354 -784.146,183.884 -779.211,187.17 		"/>
		<polygon fill="#534741" points="-779.211,188.409 -784.146,185.123 -784.146,185.654 -779.211,188.939 		"/>
		<polygon fill="#534741" points="-883.509,221.619 -888.443,218.335 -888.443,218.865 -883.509,222.149 		"/>
		<polygon fill="#534741" points="-883.509,218.081 -888.443,214.795 -888.443,215.326 -883.509,218.611 		"/>
		<polygon fill="#534741" points="-883.509,216.311 -888.443,213.026 -888.443,213.557 -883.509,216.842 		"/>
		<polygon fill="#534741" points="-883.509,214.542 -888.443,211.257 -888.443,211.788 -883.509,215.072 		"/>
		<polygon fill="#534741" points="-834.852,202.673 -839.788,199.388 -839.788,199.919 -834.852,203.204 		"/>
		<polygon fill="#534741" points="-883.509,212.773 -888.443,209.488 -888.443,210.018 -883.509,213.303 		"/>
		<polygon fill="#534741" points="-883.509,239.313 -888.443,236.027 -888.443,236.557 -883.509,239.843 		"/>
		<polygon fill="#534741" points="-883.509,209.233 -888.443,205.949 -888.443,206.48 -883.509,209.764 		"/>
		<polygon fill="#534741" points="-883.509,207.464 -888.443,204.18 -888.443,204.71 -883.509,207.995 		"/>
		<polygon fill="#534741" points="-883.509,211.003 -888.443,207.718 -888.443,208.249 -883.509,211.534 		"/>
		<polygon fill="#534741" points="-883.509,225.157 -888.443,221.873 -888.443,222.404 -883.509,225.689 		"/>
		<polygon fill="#534741" points="-883.509,234.004 -888.443,230.719 -888.443,231.25 -883.509,234.536 		"/>
		<polygon fill="#534741" points="-883.509,235.774 -888.443,232.488 -888.443,233.019 -883.509,236.304 		"/>
		<polygon fill="#534741" points="-883.509,232.235 -888.443,228.95 -888.443,229.481 -883.509,232.765 		"/>
		<polygon fill="#534741" points="-883.509,237.543 -888.443,234.258 -888.443,234.789 -883.509,238.073 		"/>
		<polygon fill="#534741" points="-883.509,205.696 -888.443,202.41 -888.443,202.941 -883.509,206.225 		"/>
		<polygon fill="#534741" points="-883.509,230.466 -888.443,227.181 -888.443,227.711 -883.509,230.996 		"/>
		<polygon fill="#534741" points="-883.509,226.927 -888.443,223.642 -888.443,224.172 -883.509,227.458 		"/>
		<polygon fill="#534741" points="-883.509,223.389 -888.443,220.104 -888.443,220.633 -883.509,223.919 		"/>
		<polygon fill="#534741" points="-883.509,228.697 -888.443,225.412 -888.443,225.942 -883.509,229.227 		"/>
		<polygon fill="#534741" points="-883.509,219.849 -888.443,216.564 -888.443,217.095 -883.509,220.38 		"/>
		<polygon fill="#534741" points="-861.666,197.209 -864.458,195.35 -865.055,195.482 -861.666,197.739 		"/>
		<path fill="#534741" d="M-863.054,195.045l1.366,0.909C-861.793,195.215-862.248,194.912-863.054,195.045z"/>
		<polygon fill="#534741" points="-834.852,211.521 -839.788,208.235 -839.788,208.765 -834.852,212.051 		"/>
		<polygon fill="#534741" points="-861.666,198.978 -866.452,195.791 -866.6,195.824 -866.6,196.224 -861.666,199.508 		"/>
		<polygon fill="#534741" points="-861.666,200.747 -866.6,197.462 -866.6,197.992 -861.666,201.278 		"/>
		<polygon fill="#534741" points="-834.852,206.212 -839.788,202.927 -839.788,203.458 -834.852,206.742 		"/>
		<polygon fill="#534741" points="-834.852,204.443 -839.788,201.158 -839.788,201.688 -834.852,204.973 		"/>
		<polygon fill="#534741" points="-834.852,209.75 -839.788,206.466 -839.788,206.997 -834.852,210.281 		"/>
		<polygon fill="#534741" points="-834.852,207.981 -839.788,204.696 -839.788,205.227 -834.852,208.512 		"/>
		<polygon fill="#534741" points="-861.666,211.391 -866.6,208.106 -866.6,208.637 -861.666,211.922 		"/>
		<polygon fill="#534741" points="-861.666,213.161 -866.6,209.876 -866.6,210.407 -861.666,213.691 		"/>
		<path fill="#534741" d="M-883.662,200.286l-0.714-0.477c-0.137-0.008-0.291,0.006-0.46,0.044l-0.205,0.045l1.524,1.014
			C-883.534,200.661-883.583,200.451-883.662,200.286z"/>
		<polygon fill="#534741" points="-883.509,203.926 -888.435,200.648 -888.443,200.649 -888.443,201.171 -883.509,204.457 		"/>
		<polygon fill="#534741" points="-883.509,202.157 -886.439,200.206 -887.037,200.338 -883.509,202.688 		"/>
		<polygon fill="#534741" points="-861.666,207.824 -866.6,204.539 -866.6,205.07 -861.666,208.355 		"/>
		<polygon fill="#534741" points="-861.666,204.286 -866.6,201.001 -866.6,201.531 -861.666,204.816 		"/>
		<polygon fill="#534741" points="-861.666,209.622 -866.6,206.337 -866.6,206.868 -861.666,210.152 		"/>
		<polygon fill="#534741" points="-861.666,206.055 -866.6,202.771 -866.6,203.3 -861.666,206.586 		"/>
		<polygon fill="#534741" points="-861.666,202.516 -866.6,199.231 -866.6,199.762 -861.666,203.047 		"/>
	</g>
	<g>
		<path fill="#E3E2D5" d="M-905.351,264.137l-15.034,3.322c-1.027,0.226-1.541-0.186-1.541-1.241v-10
			c0-1.053,0.514-1.693,1.541-1.918l12.551-2.774c1.026-0.227,1.541-0.866,1.541-1.919v-49.479c0-1.053,0.515-1.693,1.543-1.92
			l12.55-2.772c0.884-0.196,1.327,0.233,1.327,1.286v49.392c0,4.093-1.413,7.899-4.24,11.42
			C-897.94,261.053-901.353,263.254-905.351,264.137z"/>
		<path fill="#E3E2D5" d="M-869.03,191.895v47.111c0,2.63,1.285,3.663,3.855,3.095l3.684-0.814c2.569-0.568,3.854-2.168,3.854-4.8
			v-47.11c0-1.053,0.514-1.693,1.542-1.92l12.335-2.725c1.028-0.228,1.543,0.185,1.543,1.238v49.391
			c0,4.096-1.414,7.902-4.241,11.421c-2.827,3.521-6.24,5.722-10.237,6.605l-13.063,2.885c-4.14,0.914-7.624,0.237-10.451-2.035
			c-2.827-2.269-4.239-5.451-4.239-9.545v-49.391c0-1.054,0.512-1.693,1.541-1.92l12.336-2.726
			C-869.544,190.428-869.03,190.841-869.03,191.895z"/>
		<path fill="#E3E2D5" d="M-801.993,214.719v-37.636c0-1.052,0.516-1.692,1.541-1.919l12.379-2.736c1-0.22,1.498,0.196,1.498,1.249
			v62.638c0,1.053-0.498,1.69-1.498,1.911l-17.731,3.917c-1.027,0.228-1.714-0.147-2.058-1.125l-12.506-35.136v37.899
			c0,1.052-0.5,1.689-1.498,1.91l-12.379,2.735c-1.029,0.228-1.543-0.186-1.543-1.239v-62.638c0-1.054,0.514-1.693,1.543-1.92
			l17.82-3.937c1.025-0.227,1.711,0.147,2.054,1.125L-801.993,214.719z"/>
		<path fill="#E3E2D5" d="M-780.149,221.649v-49.391c0-1.053,0.515-1.693,1.543-1.92l35.463-7.835
			c1.027-0.228,1.543,0.187,1.543,1.239v10c0,1.053-0.516,1.693-1.543,1.92l-20.561,4.542c-0.688,0.151-1.027,0.578-1.027,1.28
			v11.053c0,0.703,0.342,0.978,1.027,0.826l17.133-3.785c1.027-0.227,1.545,0.187,1.545,1.238v10.001
			c0,1.053-0.518,1.692-1.545,1.92l-17.133,3.785c-0.688,0.152-1.027,0.579-1.027,1.28v6.404c0,3.802,1.854,5.292,5.569,4.472
			l17.089-3.776c1.026-0.227,1.543,0.186,1.543,1.24v10c0,1.053-0.517,1.692-1.543,1.919l-23.6,5.214
			c-3.999,0.883-7.411,0.189-10.238-2.081C-778.737,228.925-780.149,225.743-780.149,221.649z"/>
	</g>
	<path fill="#B6A999" d="M-729.179,143.363c9.328-13.566,14.787-29.997,14.787-47.705c0-46.562-37.745-84.305-84.307-84.305
		c-46.56,0-84.305,37.744-84.305,84.305c0,17.708,5.46,34.138,14.787,47.705H-729.179z"/>
	<path fill="none" d="M-729.179,143.363c9.328-13.566,14.787-29.997,14.787-47.705c0-46.562-37.745-84.305-84.307-84.305
		c-46.56,0-84.305,37.744-84.305,84.305c0,17.708,5.46,34.138,14.787,47.705H-729.179z"/>
	<polygon fill="#534741" points="-920.988,186.184 -920.988,186.184 -729.179,143.363 -867.524,143.363 	"/>
	<path opacity="0.5" fill="#382F2B" enable-background="new    " d="M-878.161,170.079c3.88,0.354,7.339-0.018,9.305-0.869
		c1.24-1.026,16.01-0.468,18.29,0.29c1.949,0.828,5.115,1.367,8.694,1.367c5.924,0,10.727-1.479,10.727-3.301
		c0-0.541-0.428-1.052-1.183-1.504c0.326-0.089,0.575-0.188,0.72-0.286l11.849-8.072c0.007-0.004,0.016-0.011,0.022-0.016
		c0.03-0.022,2.904-2.141,10.145-5.774c2.492,0.214,6.496,0.457,11.597,0.408c3.945-0.039,7.962-0.251,11.938-0.629
		c8.381-0.744,18.43-2.488,25.619-4.449c4.593-1.252,7.453-2.448,8.174-3.406c0.494-0.12,0.931-0.25,1.289-0.383h-112.908
		c-2.301,0.21-4.494,0.656-5.43,1.149c-0.524,0.276-0.583,0.531-0.21,0.727c-1.509,0.527-2.619,1.074-3.31,1.632
		c-0.799,0.646-1.005,1.274-0.614,1.871c0.382,0.589,1.318,1.111,2.784,1.552c1.506,0.457,3.498,0.801,5.917,1.023
		c3.201,0.386,7.074,0.56,11.515,0.512c3.395-0.035,6.507-0.194,8.769-0.346c-5.829,2.764-11.521,4.994-14.682,6.231l-0.259,0.101
		c-1.011,0.333-9.809,3.219-16.289,5.338c-0.591-0.087-1.2-0.161-1.823-0.219c-5.9-0.54-10.828,0.602-11.005,2.549
		C-888.7,167.522-884.061,169.539-878.161,170.079z M-867.209,165.86l7.902-2.395l12.499-0.032l-1.461,1.484
		c-1.565,0.359-2.803,0.847-3.547,1.411C-853.942,167.316-861.858,167.412-867.209,165.86z"/>
	<g>
		<g>
			<path fill="#382F2B" d="M-798.696,11.354c-5.691,0-11.252,0.566-16.627,1.641v130.459h50.264V18.331
				C-775.364,13.843-786.739,11.354-798.696,11.354z"/>
			<path fill="#B6A999" d="M-798.696,11.354c-6.181,0-12.205,0.665-18.004,1.927v130.173h50.264V17.748
				C-776.374,13.628-787.271,11.354-798.696,11.354z"/>
			<g>
				<path fill="#382F2B" d="M-781.532,13.102h-32.35l-0.162,55.205v72.311h24.803l2.736,1.396h18.229V17.01
					C-772.539,15.36-776.969,14.047-781.532,13.102z"/>
			</g>
		</g>
		<path fill="#E3E2D5" d="M-777.588,14.018h-0.002l-32.835,2.373l0.34,132.043h1.296l33.866-133.68l0.001-0.001
			C-775.805,14.495-776.692,14.249-777.588,14.018z"/>
		<path fill="#B6A999" d="M-775.448,14.6l-33.601,2.799l0.26,131.036l39.806-7.812V16.739
			C-771.101,15.943-773.258,15.228-775.448,14.6z"/>
		<path fill="#382F2B" d="M-802.093,95.308c0,0.459-0.373,0.831-0.831,0.831h-1.657c-0.46,0-0.831-0.371-0.831-0.831v-4.799
			c0-0.458,0.371-0.831,0.831-0.831h1.657c0.458,0,0.831,0.373,0.831,0.831V95.308z"/>
		<g>
			<g>
				<path fill="#382F2B" d="M-791.312,29.66v-3.347c0-0.481,0.336-0.921,0.752-0.982l8.912-1.81
					c-0.004-0.463-0.338-0.789-0.752-0.728l-10.658,1.563c-0.414,0.061-0.75,0.501-0.75,0.983v3.856c0,0.483,0.336,0.817,0.75,0.751
					l0.443-0.071C-792.612,29.872-791.312,29.661-791.312,29.66z"/>
			</g>
			<path fill="#C4B7A9" d="M-782.399,22.794c0.416-0.061,0.752,0.267,0.752,0.734v3.734c0,0.467-0.336,0.899-0.752,0.967
				l-10.658,1.717c-0.414,0.066-0.75-0.268-0.75-0.751v-3.856c0-0.482,0.336-0.922,0.75-0.983L-782.399,22.794 M-782.399,22.221
				l-10.658,1.546c-0.694,0.101-1.26,0.84-1.26,1.647v3.861c0,0.809,0.564,1.374,1.26,1.26l10.658-1.735
				c0.695-0.113,1.262-0.839,1.262-1.619v-3.729C-781.138,22.672-781.703,22.12-782.399,22.221L-782.399,22.221z"/>
			<path fill="#382F2B" d="M-775.282,35.636c0-0.874-0.187-1.806-1.092-2.397h0.002l-0.65-0.457l-0.982,0.274
				c-2.879,0.504-13.466,2.361-15.952,2.796c-1.921,0.337-2.825,2.467-2.878,3.738l-0.004,0.705l21.557-3.995V35.636
				L-775.282,35.636z"/>
			<path fill="#C4B7A9" d="M-779.104,32.248c-1.25,0.217-14.625,2.537-15.875,2.754c-2.771,0.482-2.729,2.974-2.729,4.341
				c0.197-0.036,21.138-3.879,21.335-3.915C-776.374,34.136-776.333,31.767-779.104,32.248z"/>
			<path fill="#382F2B" d="M-775.282,42.196c0-0.874-0.187-1.804-1.092-2.379h0.002l-0.65-0.444l-0.982,0.292
				c-2.879,0.555-13.466,2.597-15.952,3.077c-1.921,0.37-2.825,2.517-2.878,3.787l-0.004,0.705l21.557-4.374V42.196L-775.282,42.196
				z"/>
			<path fill="#C4B7A9" d="M-779.104,38.735c-1.25,0.239-14.625,2.794-15.875,3.033c-2.771,0.53-2.729,3.021-2.729,4.389
				c0.197-0.04,21.138-4.25,21.335-4.291C-776.374,40.575-776.333,38.205-779.104,38.735z"/>
			<path fill="#382F2B" d="M-775.282,48.875c0-0.874-0.187-1.799-1.092-2.358h0.002l-0.65-0.433l-0.982,0.309
				c-2.879,0.605-13.466,2.838-15.952,3.362c-1.921,0.404-2.825,2.567-2.878,3.841l-0.004,0.704l21.557-4.76V48.875L-775.282,48.875
				z"/>
			<path fill="#C4B7A9" d="M-779.104,45.342c-1.25,0.262-14.625,3.057-15.875,3.317c-2.771,0.579-2.729,3.069-2.729,4.438
				c0.197-0.044,21.138-4.629,21.335-4.673C-776.374,47.132-776.333,44.763-779.104,45.342z"/>
		</g>
		<g opacity="0.7">
			<path fill="#382F2B" d="M-866.914,45.911v97.542h50.263V13.238C-837.176,17.652-854.927,29.539-866.914,45.911z"/>
			<path fill="#B6A999" d="M-868.142,47.848v95.606h50.263V13.546C-838.619,18.373-856.419,30.852-868.142,47.848z"/>
			<path fill="#382F2B" d="M-820.44,14.185c-17.914,4.769-33.479,15.285-44.605,29.456l-0.549,96.981l0.709,1.078h45.165V15.263
				l-0.709-1.078H-820.44z"/>
			<path fill="#B6A999" d="M-865.594,44.348v96.274h45.166V14.185h-0.011C-838.648,19.031-854.434,29.82-865.594,44.348z"/>
			<g>
				<path fill="#382F2B" d="M-837.064,21.793h-2.299c-0.49,0.271-0.977,0.546-1.461,0.825h4.592
					C-836.237,22.162-836.607,21.793-837.064,21.793z"/>
			</g>
			<path fill="#C4B7A9" d="M-837.064,21.231h-1.262c-0.346,0.185-0.692,0.373-1.037,0.562h2.299c0.459,0,0.832,0.372,0.832,0.831
				v3.673c0,0.46-0.373,0.831-0.832,0.831h-10.744c-0.26,0.186-0.517,0.374-0.774,0.562h11.518c0.768,0,1.394-0.625,1.394-1.394
				v-3.673C-835.67,21.855-836.296,21.231-837.064,21.231z"/>
			<path fill="#382F2B" d="M-858.762,86.903c0,0.459-0.371,0.83-0.83,0.83h-1.658c-0.458,0-0.831-0.371-0.831-0.83v-4.798
				c0-0.459,0.373-0.831,0.831-0.831h1.658c0.459,0,0.83,0.372,0.83,0.831V86.903z"/>
			<path fill="#382F2B" d="M-829.522,35.282c0-0.854-0.201-1.802-1.183-2.537l0.003,0.001l-0.707-0.558l-1.063,0.099
				c-3.116,0-14.58,0-17.272,0c-2.082,0-3.06,1.827-3.118,2.995l-0.002,0.65h23.34L-829.522,35.282L-829.522,35.282z"/>
			<path fill="#C4B7A9" d="M-833.425,31.635c-1.379,0-16.165,0-17.544,0c-3.065,0-3.019,2.356-3.019,3.646
				c0.219,0,23.365,0,23.584,0C-830.403,33.992-830.358,31.635-833.425,31.635z"/>
			<path fill="#382F2B" d="M-829.522,41.707c0-0.856-0.201-1.803-1.183-2.538l0.003,0.001l-0.707-0.557l-1.063,0.099
				c-3.116,0-14.58,0-17.272,0c-2.082,0-3.06,1.826-3.118,2.995l-0.002,0.651h23.34L-829.522,41.707L-829.522,41.707z"/>
			<path fill="#C4B7A9" d="M-833.425,38.061c-1.379,0-16.165,0-17.544,0c-3.065,0-3.019,2.357-3.019,3.646
				c0.219,0,23.365,0,23.584,0C-830.403,40.418-830.358,38.061-833.425,38.061z"/>
			<path fill="#382F2B" d="M-829.522,48.25c0-0.856-0.201-1.801-1.183-2.537h0.003l-0.707-0.556l-1.063,0.099
				c-3.116,0-14.58,0-17.272,0c-2.082,0-3.06,1.825-3.118,2.994l-0.002,0.652h23.34L-829.522,48.25L-829.522,48.25z"/>
			<path fill="#C4B7A9" d="M-833.425,44.604c-1.379,0-16.165,0-17.544,0c-3.065,0-3.019,2.357-3.019,3.646
				c0.219,0,23.365,0,23.584,0C-830.403,46.961-830.358,44.604-833.425,44.604z"/>
		</g>
		<g opacity="0.9">
			<g>
				<path fill="#382F2B" d="M-714.797,87.447v16.315c0.265-2.707,0.401-5.45,0.405-8.228c0-0.172-0.004-0.346-0.006-0.519
					c0-0.195,0-0.389-0.004-0.583c-0.479-33.546-20.549-62.352-49.283-75.487v0.091C-736.993,31.241-717.776,56.963-714.797,87.447z
					"/>
				<polygon fill="#382F2B" points="-729.168,143.348 -729.168,143.348 -729.163,143.338 				"/>
			</g>
			<path fill="#382F2B" d="M-716.636,115.06V76.257c-5.859-24.874-22.732-45.496-45.193-56.434l-0.682,120.897l0.707,1.077h33.672
				C-722.851,133.739-718.911,124.721-716.636,115.06z"/>
			<path fill="#B6A999" d="M-717.346,117.852V73.46c-6.496-23.867-23.216-43.52-45.165-53.966l-0.297,121.227h35.373
				C-723.003,133.727-719.573,126.037-717.346,117.852z"/>
			<path fill="#382F2B" d="M-755.68,87c0,0.459-0.37,0.832-0.83,0.832h-1.658c-0.459,0-0.831-0.372-0.831-0.832v-4.797
				c0-0.459,0.372-0.832,0.831-0.832h1.658c0.46,0,0.83,0.373,0.83,0.832V87z"/>
			<path fill="#382F2B" d="M-742.987,32.385c-1.629,0-2.961,0-3.677,0c-2.079,0-3.06,1.825-3.116,2.994l-0.002,0.651h10.682
				C-740.356,34.775-741.653,33.559-742.987,32.385z"/>
			<path fill="#C4B7A9" d="M-743.733,31.733c-2.109,0-3.738,0-4.153,0c-3.066,0-3.021,2.357-3.021,3.646c0.106,0,5.529,0,11.148,0
				C-741.046,34.122-742.37,32.906-743.733,31.733z"/>
			<path fill="#382F2B" d="M-736.442,38.81c-4.129,0-8.656,0-10.222,0c-2.079,0-3.06,1.826-3.116,2.994l-0.002,0.652h16.484
				C-734.313,41.21-735.36,39.995-736.442,38.81z"/>
			<path fill="#C4B7A9" d="M-737.045,38.158c-4.621,0-10.035,0-10.843,0c-3.066,0-3.02,2.356-3.02,3.646c0.146,0,10.143,0,17.071,0
				C-734.871,40.558-735.94,39.342-737.045,38.158z"/>
			<path fill="#382F2B" d="M-731.039,45.353c-4.364,0-13.291,0-15.625,0c-2.079,0-3.06,1.827-3.116,2.995L-749.782,49h21.312
				C-729.297,47.76-730.153,46.545-731.039,45.353z"/>
			<path fill="#C4B7A9" d="M-731.528,44.702c-3.869,0-15.16,0-16.358,0c-3.066,0-3.021,2.357-3.021,3.646c0.187,0,16.732,0,21.998,0
				C-729.752,47.107-730.626,45.893-731.528,44.702z"/>
		</g>
	</g>
	<path opacity="0.1" fill="#3A332C" enable-background="new    " d="M-751.005,143.363h-32.436l-25.4,5.071h-1.291l-0.008-4.981
		h-28.866c-0.037-1.231,0.068-2.522,0.326-3.683c-0.568-0.699-0.89-1.581-0.89-2.513c0-2.199,1.79-3.989,3.988-3.989
		c0.191,0,0.381,0.014,0.566,0.041c1.768-1.364,4.205-2.078,7.132-2.078c1.966,0,4.094,0.323,6.27,0.945
		c0.062-14.185,10.889-25.968,24.893-27.316c0.087-0.068,2.482-0.13,2.677-0.13c3.722,0,7.33,0.729,10.729,2.167
		c3.285,1.389,6.23,3.376,8.764,5.908c2.529,2.53,4.518,5.479,5.906,8.762c1.438,3.4,2.168,7.011,2.168,10.731
		c0,0.489-0.014,0.979-0.038,1.468c-0.017,0.282,4.573-0.549,9.696,1.495c0.565-0.298,1.203-0.46,1.854-0.46
		c2.199,0,3.988,1.79,3.988,3.989c0,0.661-0.168,1.305-0.475,1.88C-751.2,141.52-751.058,142.422-751.005,143.363z"/>
	<ellipse opacity="0.2" fill="#3A332C" enable-background="new    " cx="-862.563" cy="167.37" rx="38.357" ry="8.929"/>
	<g>
		<path fill="#382F2B" d="M-918.378,70.796c-0.059-2.956,2.298-5.408,5.253-5.467c0.256-0.004,0.51,0.008,0.764,0.04
			c2.338-1.879,5.594-2.906,9.526-2.983c2.642-0.052,5.512,0.325,8.45,1.103c-0.296-19.063,13.938-35.187,32.721-37.374
			c0.117-0.095,3.333-0.241,3.594-0.247c5-0.099,9.873,0.785,14.48,2.625c4.448,1.779,8.464,4.371,11.935,7.704
			c3.469,3.334,6.217,7.243,8.172,11.618c2.021,4.53,3.099,9.364,3.199,14.364c0.012,0.657,0.008,1.315-0.014,1.974
			c-0.012,0.378,6.132-0.861,13.072,1.75c0.75-0.417,1.604-0.65,2.479-0.667c2.956-0.059,5.407,2.297,5.467,5.253
			c0.018,0.889-0.188,1.761-0.588,2.541c1.278,4.059,0.858,9.042-1.222,14.212c-3.265,8.119-9.94,15.281-17.013,18.259
			c-3.307,1.531-7.002,2.348-10.986,2.427c-5.156,0.103-9.791-1.042-12.81-2.035c0.133,15.646,1.605,24.779,1.621,24.877
			c0.005,0.023,0.008,0.047,0.01,0.071l4.698,34.669c0.104,0.77-0.155,1.544-0.7,2.095c-0.144,0.147-3.599,3.581-9.031,3.688
			c-2.172,0.043-4.358-0.447-6.5-1.458c-0.679-0.322-1.179-0.932-1.36-1.662l-3.107-12.524l-12.897,0.258l-3.722,12.29
			c-0.25,0.821-0.903,1.458-1.729,1.686c-0.157,0.043-1.582,0.423-3.567,0.462c-2.901,0.057-7.004-0.604-10.083-4.091
			c-0.545-0.618-0.752-1.467-0.55-2.268c1.474-5.856,7.48-30.488,7.984-32.557l0.057-0.448c0.698-5.464,1.955-15.292,2.243-27.478
			c-2.017,0.613-4.893,1.243-8.316,1.311c-4.48,0.089-8.825-0.797-12.916-2.636c-2.95-1.083-5.705-2.713-8.19-4.842
			c-2.412-2.066-4.445-4.494-6.043-7.214c-1.618-2.757-2.689-5.645-3.186-8.586c-0.429-2.547-0.405-5.023,0.068-7.387
			C-917.896,73.227-918.354,72.049-918.378,70.796z"/>
		<path fill="#534741" d="M-842.748,131.176l4.698,34.67c0,0-5.199,5.257-12.682,1.725l-3.588-14.464l-16.715,0.334l-4.25,14.029
			c0,0-6.885,1.905-11.105-2.872c1.552-6.163,8.023-32.713,8.023-32.713L-842.748,131.176z"/>
		<path fill="#382F2B" d="M-851.337,137.099l6.354,31.677c4.237-0.116,6.933-2.929,6.933-2.929l-4.613-34.036
			C-842.663,131.811-846.904,136.404-851.337,137.099z"/>
		<path fill="#382F2B" d="M-874.536,153.511l-5.369,14.262c1.872,0.086,4.622-0.303,4.622-0.303l3.814-12.59L-874.536,153.511z"/>
		<path fill="#E3E2D5" d="M-911.991,68.51c-7.652,10.622,0.323,26.684,13.173,31.349c12.139,5.5,22.845,0.074,22.846-0.083
			c0-0.031-0.021-4.469-0.021-4.469C-884.722,86.252-909.578,65.588-911.991,68.51z"/>
		<path fill="#E3E2D5" d="M-803.805,70.655c6.715,9.335-3.233,27.503-15.312,32.556c-11.82,5.508-25.282-0.967-25.282-0.967
			l-1.599-12.689C-845.996,89.555-808.079,65.495-803.805,70.655z"/>
		<path fill="#E3E2D5" d="M-876.126,89.219c0.996,20.984-1.733,38.768-2.393,44.368c-0.33,2.8,10.507,5.065,19.936,4.42
			c9.431-0.645,16.358-2.794,15.894-6.833c0,0-2.45-14.825-1.404-39.704C-844.605,85.123-875.441,73.571-876.126,89.219z"/>
		<polygon opacity="0.1" fill="#3A332C" enable-background="new    " points="-850.918,103.708 -850.454,107.232 -855.187,115.952 
			-855.434,119.425 -856.208,119.441 -856.285,115.566 		"/>
		<polygon opacity="0.1" fill="#3A332C" enable-background="new    " points="-864.598,102.292 -864.55,104.708 -868.682,109.117 
			-865.996,114.616 -866.629,122.176 -868.411,122.212 -868.467,119.399 -867.876,112.279 -869.158,109.855 -869.901,107.01 		"/>
		<path fill="#B6A999" d="M-891.878,63.603c0.248,12.464,7.065,23.254,17.082,29.133c5.317,3.121,9.544-24.944,16.158-25.076
			c3.774-0.075,9.386,29.049,12.762,27.864c13.699-4.81,23.395-17.988,23.089-33.295c-0.38-19.078-16.154-34.238-35.232-33.858
			C-877.099,28.751-892.258,44.525-891.878,63.603z"/>
		<g opacity="0.7">
			<path fill="#3A332C" d="M-830.396,51.504c-0.103-5.202-1.502-10.074-3.878-14.317c6.882,6.171,11.289,15.07,11.487,25.042
				c0.306,15.307-9.391,28.485-23.089,33.295c-1.733,0.608-4.055-6.77-6.415-14.085C-839.402,77.635-830.112,65.588-830.396,51.504z
				"/>
			<path fill="#3A332C" d="M-891.254,56.318c1.763,12.802,11.421,23.017,23.826,25.687c-2.465,6.417-4.789,12.246-7.368,10.732
				c-10.016-5.879-16.834-16.669-17.082-29.133C-891.928,61.109-891.71,58.673-891.254,56.318z"/>
		</g>
		<path fill="#3A332C" d="M-852.057,40.881c-3.037,52.062,13.724,55.16,13.724,55.16s-6.745-6.011-9.156-20.207
			C-849.272,65.342-846.582,49.567-852.057,40.881z"/>
		
			<ellipse transform="matrix(0.0199 0.9998 -0.9998 0.0199 -806.8196 890.3201)" opacity="0.1" fill="#FFFFFF" enable-background="new    " cx="-857.519" cy="33.64" rx="4.171" ry="11.587"/>
		<g>
			<path fill="#3A332C" d="M-857.359,41.332l0.44-0.037c0.075,0.882,0.116,1.471,0.117,1.477l-0.441,0.031
				C-857.244,42.796-857.285,42.21-857.359,41.332z M-857.589,38.839l0.439-0.045c0.053,0.514,0.101,1.012,0.142,1.47l-0.44,0.039
				C-857.489,39.846-857.537,39.351-857.589,38.839z M-857.875,36.354l0.438-0.057c0.06,0.449,0.12,0.943,0.179,1.467l-0.44,0.05
				C-857.757,37.293-857.817,36.801-857.875,36.354z M-858.275,33.897l0.432-0.092c0.086,0.406,0.175,0.898,0.262,1.465
				l-0.436,0.066C-858.104,34.778-858.19,34.294-858.275,33.897z M-858.882,31.489l0.424-0.128c0.135,0.448,0.266,0.929,0.388,1.432
				l-0.43,0.105C-858.62,32.403-858.749,31.929-858.882,31.489z M-859.764,29.189l0.396-0.197c0.2,0.402,0.395,0.865,0.583,1.379
				l-0.416,0.15C-859.382,30.025-859.571,29.576-859.764,29.189z"/>
		</g>
		<path fill="#534741" d="M-854.869,42.46c-0.623-0.677-1.245-1.347-1.896-1.967c-0.006-0.005-0.012-0.012-0.018-0.018
			c0.132-0.137,0.262-0.276,0.396-0.414c0.066-0.069-0.04-0.17-0.106-0.102c-0.135,0.138-0.267,0.278-0.398,0.415"/>
		<path fill="#534741" d="M-865.094,69.231c1.917-8.314,3.389-16.719,4.865-25.12c1.101-1.181,2.209-2.355,3.331-3.517
			c0.711,0.685,1.394,1.397,2.074,2.114c2.696,15.46,7.653,49.08,7.653,49.08l-2.701,1.936c0,0-0.786,3.232-5.021,6.139
			c0.95-2.98-0.308-3.954-0.308-3.954s-0.559,3.262-4.113,5.442c-1.71-2.021-2.781-3.918-2.666-5.586
			c-1.072,0.95-2.293,3.14-2.495,6.1c-0.637-1.526-1.938-3.289-3.503-4.308c0,0-2.888-0.202-4.778-1.529
			c-0.13-0.355-0.179-0.937-0.17-1.672C-869.542,86.246-867.067,77.788-865.094,69.231z"/>
		<path opacity="0.3" enable-background="new    " d="M-859.521,75.241c1.917-8.313,1.024-8.05,2.5-16.451
			c1.102-1.18-1-17.033,0.122-18.195c0.711,0.685,1.394,1.397,2.074,2.114c2.696,15.46,7.653,49.08,7.653,49.08l-2.701,1.936
			c0,0-0.786,3.232-5.021,6.139c0.95-2.98-0.308-3.954-0.308-3.954s-0.559,3.262-4.113,5.442c-1.084-1.28-1.479-4.299-0.705-6.656
			c1.782,0.406,2.464-0.619,2.464-0.619s-2.538-3.064-2.057-6.162c0.619,0.795,2.542-0.313,1.974-0.683
			C-857.639,87.232-861.161,80.31-859.521,75.241z"/>
		<path fill="#B6A999" d="M-857.365,39.802c0,0-0.994,0.451-0.796,1.201c1.067,2.303,2.719,9.354,2.672,18.324
			c-0.028,5.678-0.548,14.003-0.082,18.076c0.125,3.916,5.188,19.452,13.731,23.956c0.647-0.059,0.91-0.372,0.91-0.372
			l-9.457-22.902l-1.553-3.761l-2.116-28.479L-857.365,39.802z"/>
		<path fill="#3A332C" d="M-862.92,39.913l-0.241,0.449c-0.57,4.689-0.203,10-0.729,13.24c-1.178,7.248-4.073,13.214-6.657,20.97
			c-1.335,3.956-3.552,12.203-4.718,15.485c-2.854,8.044-4.007,9.146-4.007,9.146l0.867,0.623
			C-878.405,99.826-856.981,57.48-862.92,39.913z"/>
		<path fill="#EFEEE8" d="M-857.365,39.802c2.003,9.205-2.484,27.107-7.292,41.062c-4.104,11.905-7.003,19.003-8.518,20.764
			c-2.204-0.868-5.229-1.802-5.229-1.802s5.813-14.704,8.19-23.409c7.371-20.591,7.426-20.587,7.294-36.504
			C-862.92,39.913-861.042,38.995-857.365,39.802z"/>
		<path fill="#EFEEE8" d="M-852.057,40.881c-2.666-1.132-5.308-1.079-5.308-1.079s2.256,8.037,2.631,17.718
			c0.283,7.331-0.637,17.245,0.717,22.312c4.741,17.748,13.094,21.483,13.087,21.155c-0.01-0.547,3.008-4.525,3.008-4.525
			s-7.383-6.973-10.143-19.755c-1.445-6.686-0.774-15.229-1.184-22.849C-849.551,48.213-850.812,42.672-852.057,40.881z"/>
		<path d="M-859.096,82.646c0,0,1.006,3.77,2.381,5.156c-0.9,1.039-2.279,0.908-2.279,0.908s-0.42,1.298,0.135,3.018
			c-1.632-1.722-0.754-3.812-0.754-3.812s1.206,0.349,1.974-0.683C-858.755,85.806-859.096,82.646-859.096,82.646z"/>
		<g>
			
				<ellipse transform="matrix(0.0204 0.9998 -0.9998 0.0204 -787.7076 901.1644)" fill="#534741" cx="-853.714" cy="48.619" rx="1.162" ry="1.035"/>
			
				<ellipse transform="matrix(0.0202 0.9998 -0.9998 0.0202 -793.9657 907.639)" fill="#534741" cx="-860.051" cy="48.746" rx="1.162" ry="1.035"/>
			
				<ellipse transform="matrix(0.0204 0.9998 -0.9998 0.0204 -787.1559 916.1599)" fill="#534741" cx="-861.082" cy="56.405" rx="1.163" ry="1.035"/>
			
				<ellipse transform="matrix(0.0195 0.9998 -0.9998 0.0195 -780.3431 927.3924)" fill="#534741" cx="-863.018" cy="65.825" rx="1.162" ry="1.034"/>
			
				<ellipse transform="matrix(-0.189 0.982 -0.982 -0.189 -954.5411 942.1976)" fill="#534741" cx="-866.338" cy="76.934" rx="1.568" ry="1.214"/>
			
				<ellipse transform="matrix(0.2138 0.9769 -0.9769 0.2138 -591.1132 893.4801)" fill="#534741" cx="-850.623" cy="79.517" rx="1.567" ry="1.213"/>
			
				<ellipse transform="matrix(0.0202 0.9998 -0.9998 0.0202 -778.4922 908.3031)" fill="#534741" cx="-852.661" cy="56.966" rx="1.161" ry="1.035"/>
			
				<ellipse transform="matrix(0.0198 0.9998 -0.9998 0.0198 -768.878 917.4447)" fill="#534741" cx="-852.313" cy="66.613" rx="1.162" ry="1.034"/>
		</g>
		<path fill="#FFFFFF" d="M-861.412,55.762c-0.455,0.598,0.246,1.624,0.737,1.488l4.955-4.044l-0.208-2.147L-861.412,55.762z"/>
		<path fill="#FFFFFF" d="M-855.488,58.76l-7.729,6.149c-0.581,1.012,0.12,2.039,0.798,1.905l6.918-6.314L-855.488,58.76z"/>
		<polygon opacity="0.1" enable-background="new    " points="-856.927,61.803 -857.793,60.594 -858.321,61.015 -857.493,62.319 		
			"/>
		<path fill="#FFFFFF" d="M-855.682,67.637c-2.641,1.983-9.986,7.515-10.403,8.015c-0.939,1.1-0.184,2.845-0.063,2.842
			c0.098-0.002,7.678-6.059,10.407-8.243L-855.682,67.637z"/>
		<polygon opacity="0.1" enable-background="new    " points="-859.856,70.784 -860.632,71.374 -858.998,72.854 -857.994,72.053 		
			"/>
		<path fill="#FFFFFF" d="M-851.307,80.695l-9.858-11.014l0.649-2.352l9.872,10.695C-850.212,78.506-850.117,79.698-851.307,80.695z
			"/>
		<path fill="#FFFFFF" d="M-855.045,80.432l-14.011,8.17c-0.919,1.504-0.474,2.598-0.474,2.598l15.052-8.787L-855.045,80.432z"/>
		<polygon opacity="0.1" enable-background="new    " points="-859.093,82.792 -859.968,83.302 -858.418,84.713 -857.326,84.077 		
			"/>
		<polygon fill="#FFFFFF" points="-850.871,86.363 -863.582,77.655 -864.296,79.784 -850.819,88.911 		"/>
		<path opacity="0.1" fill="#3A332C" enable-background="new    " d="M-809.581,84.689c-3.316,7.077-15.105,12.87-17.525,13.477
			c-6.353,6.58-11.129,2.786-11.129,2.786s-2.889,2.339-6.161,1.292c-6.64-0.877-6.956-5.943-6.956-5.943s-3.397-1.096-2.039-6.599
			C-851.44,84.481-815.163,86.509-809.581,84.689z"/>
		<g>
			<path fill="#B6A999" d="M-866.175,101.489l-4.446,6.589l1.928-0.039l3.335-4.045
				C-864.273,101.965-866.175,101.489-866.175,101.489z"/>
			<path fill="#B6A999" d="M-868.693,108.04l1.855,4.565c-0.002,1.929-0.562,8.148-0.67,8.672l-1.765-0.006
				c0.029-0.438,0.618-9.334,0.618-9.334L-868.693,108.04z"/>
			<path fill="#B6A999" d="M-850.512,104.351c-0.1-0.276-0.89-7.378-0.89-7.378l0.583-8.062l-1.527-2.518l-1.815,11.918l2.474,7.562
				L-850.512,104.351z"/>
			<path fill="#B6A999" d="M-855.012,118.333l-1.632,0.032c-0.16,0.281,1.085-7.431,1.085-7.431L-855.012,118.333z"/>
		</g>
		<g>
			<path fill="#FFFFFF" d="M-869.529,91.2l4.172,12.794c0.209-0.396,1.048-1.779,1.112-3.713l-4.034-12.133L-869.529,91.2z"/>
			<polygon fill="#FFFFFF" points="-855.541,110.75 -850.992,100.566 -850.508,104.523 -855.272,114.402 			"/>
			<polygon fill="#FFFFFF" points="-870.621,108.078 -868.655,111.937 -868.693,108.04 			"/>
		</g>
		<path fill="#3A332C" d="M-855.418,80.968c-3.805,6.338,2.026,8.733,2.026,8.733s-1.087,3.333,2.873,5.458
			c1.581,7.099,8.737,6.472,11.842,4.382c6.199,2.044,9.785-3.229,10.062-3.874c15.457-3.819,19.221-11.303,19.221-11.303
			l-40.567,1.491C-849.961,85.856-851.011,85.252-855.418,80.968z"/>
		<path fill="#3A332C" d="M-822.831,64.79c0,0-10.346,1.68-17.637,10.071c-3.916,6.855,18.755-5.988,18.755-5.988L-822.831,64.79z"
			/>
		<path fill="#E3E2D5" d="M-855.108,80.468c0,0,1.782-0.571,3.688,1.145c1.207-0.002,2.453-0.252,3.957-1.296
			c1.292-3.342,5.97-4.594,5.97-4.594s3.649-3.754,14.401-7.502c6.81-2.217,15.45-1.969,20.394,0.396
			c0.506-0.528,1.213-0.862,2.002-0.877c1.578-0.032,2.885,1.222,2.916,2.8c0.019,0.91-0.393,1.727-1.045,2.263
			c0.045,0.246,0.069,0.498,0.069,0.757c-0.712,3.856-5.37,10.992-12.285,15.416c-6.604,4.226-15.499,5.833-15.499,5.833
			s-2.403,4.982-7.819,3.027c-3.057,2.154-6.081,1.83-6.081,1.83s-4.123-0.153-4.717-5.501c-3.072-1.208-2.795-5.029-2.795-5.029
			s-1.883-0.659-3.106-2.256C-856.116,85.501-857.025,82.935-855.108,80.468z"/>
		<path opacity="0.05" fill="#5F1311" enable-background="new    " d="M-850.115,89.637c0,0-0.297,1.381-1.374,1.993
			c-0.253-0.585-0.35-1.417-0.35-1.417L-850.115,89.637z"/>
		<path fill="#3A332C" d="M-850.115,89.637c-1.62-0.362-2.616-0.795-2.616-0.795l0.459,1.281
			C-852.272,90.122-850.813,90.6-850.115,89.637z"/>
		<path fill="#3A332C" d="M-845.893,94.71c-2.84-0.038-4.275-1.115-4.275-1.115s0.081,1.269,1.1,1.963
			C-846.823,96.31-845.893,94.71-845.893,94.71z"/>
		<path fill="#3A332C" d="M-838.36,97.835c1.311-0.89,2.706-0.994,2.706-0.994l-2.433,1.726l-0.417-0.582
			C-838.504,97.985-839.671,98.725-838.36,97.835z"/>
		<path fill="#3A332C" d="M-891.858,64.67c0,0,8.111,3.247,14.11,11.738c-6.863-0.078-16.466-8.951-16.466-8.951L-891.858,64.67z"/>
		<path opacity="0.1" fill="#3A332C" enable-background="new    " d="M-911.417,78.437c5.178,16.865,20.159,16.312,20.159,16.312
			c2.093,6.305,8.531,5.164,8.531,5.164c1.871,0.936,3.01,1.507,3.01,1.507l1.708-0.725l-3.365-2.422l-8.233-5.884
			C-889.609,92.389-904.511,89.638-911.417,78.437z"/>
		<path fill="#3A332C" d="M-911.417,78.437c4.195,11.136,21.228,14.449,21.228,14.449s-0.028,7.022,8.814,5.386
			c3.147,2.858,5.381,3.112,7.349,3.031c4.559-0.402,6.13-4.062,6.061-5.308c3.606-0.984,5.148-5.396,3.463-8.599
			c3.099-3.258-0.405-5.814-0.405-5.814s-20.964,3.948-20.795,4.3C-885.534,86.236-916.41,58.849-911.417,78.437z"/>
		<path fill="#E3E2D5" d="M-915.875,70.747c-0.031-1.578,1.223-2.883,2.801-2.915c0.5-0.01,0.972,0.11,1.386,0.327
			c3.787-4.143,12.097-4.193,20.329-1.072c6.21,2.189,12.102,7.488,15.258,11.086c3.012-0.305,5.77,1.333,7.281,3.256
			c2.653-0.882,3.914,0.153,3.914,0.153s2.866,2.509-1.289,6.112c1.768,1.699,1.208,5.275-3.371,7.485
			c0.808,1.912-3.759,8.091-11.472,1.844c-8.63,2.1-7.828-6.011-7.828-6.011s-7.97-0.95-14.467-4.786
			c-5.086-3.003-9.232-7.828-9.844-12.686C-914.657,73.46-915.845,72.252-915.875,70.747z"/>
		<path fill="#3A332C" d="M-866.196,87.695c0,0-0.838,0.688-1.958,1.039c2.127,0.858,2.804,0.468,2.804,0.468l0.46-1.532
			L-866.196,87.695z"/>
		<path fill="#3A332C" d="M-869.567,95.18c0,0-0.87,0.479-2.027,0.533c1.49,1.083,2.796,0.462,2.796,0.462l0.582-0.949
			L-869.567,95.18z"/>
		<path opacity="0.1" fill="#3A332C" enable-background="new    " d="M-844.412,102.627c0,0-0.585,11.966,1.723,28.548
			c-0.262,7.681-21.198,6.907-21.198,6.907s10.23-1.884,11.667-7.102S-844.412,102.627-844.412,102.627z"/>
		<polygon fill="#3A332C" points="-881.039,97.024 -885.528,94.634 -881.375,98.273 -880.062,98.378 		"/>
		<polygon fill="#3A332C" points="-871.034,153.441 -874.536,153.511 -869.165,155.908 		"/>
		<path fill="#3A332C" d="M-842.68,131.678c0,0-4.029,5.256-14.621,6.23c9.227,0.444,15.023-3.269,15.023-3.269l0.974-2.858"/>
		<g opacity="0.5">
			<path opacity="0.5" fill="#FFFFFF" enable-background="new    " d="M-842.049,95.094c-2.749-1.88-3.998-8.065-3.998-8.065
				s1.954,1.337,2.6,5.322C-843.039,93.346-841.904,94.127-842.049,95.094z"/>
			<path opacity="0.5" fill="#FFFFFF" enable-background="new    " d="M-872.37,86.842c0,0-2.133,3.37-4.694,4.876
				c-0.89,1.613-0.601,3.97-0.601,3.97s0.118-2.146,1.839-3.623C-874.106,90.588-872.37,86.842-872.37,86.842z"/>
			<path opacity="0.5" fill="#FFFFFF" enable-background="new    " d="M-806.657,68.574c0,0-15.213-7.583-34.835,7.148
				c-4.972,1.629-5.907,4.557-5.907,4.557s4.025-3.339,7.604-2.241C-825.79,65.539-806.657,68.574-806.657,68.574z"/>
			<path opacity="0.5" fill="#FFFFFF" enable-background="new    " d="M-876.102,78.174c-20.436-15.187-36.882-8.07-36.882-8.07
				s-1.425-1.037-2.77-0.239c1.08-2.676,3.466-2.061,4.085-1.695c0.529-0.698,2.84-3.186,8.912-3.284
				C-894.875,64.918-885.465,67.749-876.102,78.174z"/>
			<path opacity="0.5" fill="#FFFFFF" enable-background="new    " d="M-875.934,101.594l-0.26,34.281c0,0-2.453-0.934-2.325-2.288
				c0.219-1.445,1.493-12.304,2.147-20.792C-875.875,106.366-875.934,101.594-875.934,101.594z"/>
		</g>
		<path fill="#FFFFFF" d="M-858.356,58.04l5.717,6.861c1.126,1.017,0.521,2.474-0.162,2.643l-5.987-7.451L-858.356,58.04z"/>
		<polygon opacity="0.1" enable-background="new    " points="-857.335,52.265 -856.934,54.197 -856.283,53.668 		"/>
		<path fill="#FFFFFF" d="M-852.584,56.312c0.559,0.562,0.194,1.797-0.416,1.736l-4.408-5.879l0.229-1.771L-852.584,56.312z"/>
		<g>
			<path opacity="0.4" fill="#B6A999" enable-background="new    " d="M-860.25,49.529l3.161-0.061l0.032-0.366
				C-857.056,49.103-859.282,49.244-860.25,49.529z"/>
			<polygon opacity="0.4" fill="#B6A999" enable-background="new    " points="-853.699,49.398 -855.607,48.466 -856.245,48.667 
				-856.111,49.593 -855.481,49.38 			"/>
			<polygon opacity="0.4" fill="#B6A999" enable-background="new    " points="-851.307,80.695 -854.421,77.743 -855.57,77.403 
				-855.715,75.56 			"/>
			<polygon opacity="0.4" fill="#B6A999" enable-background="new    " points="-863.218,76.529 -863.082,76.105 -866.149,78.494 			
				"/>
			<polygon opacity="0.4" fill="#B6A999" enable-background="new    " points="-857.79,54.897 -857.873,55.392 -860.105,56.798 			
				"/>
			<polygon opacity="0.4" fill="#B6A999" enable-background="new    " points="-855.623,54.547 -855.572,55.471 -854.833,55.834 
				-853.102,58 			"/>
			<polygon opacity="0.4" fill="#B6A999" enable-background="new    " points="-852.801,67.544 -854.727,65.657 -855.622,65.442 
				-855.583,64.082 			"/>
			<polygon opacity="0.4" fill="#B6A999" enable-background="new    " points="-859.764,64.393 -859.94,65.098 -862.419,66.814 			
				"/>
		</g>
		<path fill="#FFFFFF" d="M-853.606,47.826c-1.367-0.27-4.236-0.58-6.675,0.133c-0.554,0.776,0.031,1.571,0.031,1.571
			s3.229-0.881,6.55-0.131C-853.347,49.451-852.801,48.392-853.606,47.826z"/>
		<path fill="#3A332C" d="M-872.37,86.842c0,0-0.326,2.244-1.502,3.497c-1.176,1.254-1.176,1.254-2.18,2.326
			c-1.006,1.07-1.789,3.528-1.789,3.528s0.157-2.204,0.859-3.543c0.703-1.34,2.238-2.203,2.947-3.279
			C-873.328,88.295-872.37,86.842-872.37,86.842z"/>
		<path fill="#3A332C" d="M-846.046,87.029c1.648,2.194,1.326,3.952,2.025,5.33c0.458,1.155,1.972,2.736,1.972,2.736
			s-1.537-1.232-2.278-2.39C-845.419,90.998-845.085,88.982-846.046,87.029z"/>
		<path opacity="0.1" fill="#382F2B" enable-background="new    " d="M-802.112,69.262c-0.554,3.402-3.935,3.821-3.935,3.821
			s-1.992,9.384-26.437,18.142c-1.384,3.54-5.842,5.248-8.136,4.681c-3.461,3.775-8.36-0.674-8.36-0.674s0.148,2.556,3.003,3.949
			c1.781,0.852,4.558,0.602,7.676-1.382c4.522,1.917,7.095-1.929,7.82-3.028c12.929-1.729,20.897-10.082,20.897-10.082
			s-1.801,3.506-7.962,6.776c-2.789,1.58-6.424,3.116-11.072,4.204c-3.709,5.23-8.009,4.629-10.062,3.874
			c-1.373,0.88-3.529,1.609-5.427,1.39c0,0-0.262,1.153-0.293,1.312c13.573,5.672,22.655,2.801,28.293-0.573
			c5.785-3.04,10.72-10.848,12.265-14.266c2.746-6.067,2.665-11.474,1.173-14.74C-802.429,72.403-801.13,71.235-802.112,69.262z"/>
		<path opacity="0.1" fill="#3A332C" enable-background="new    " d="M-911.639,78.377c-2.356,14.85,10.365,20.424,10.365,20.424
			s11.26,7.6,23.265,1.895c0.56-0.067-1.464-0.49-3.365-2.422c0.037-0.007-7.639,2.123-8.814-5.386
			c-9.53-2.236-14.94-5.995-17.908-9.191c-2.577-2.773-3.312-5.161-3.319-5.258c-0.018-0.2,4.609,9.972,22.551,12.576
			c0.008,8.675,7.688,5.973,7.828,6.011c7.79,6.353,11.414-0.541,11.414-0.541s-3.551,3.465-10.587-1.018
			c-6.386,0.227-6.444-7.363-6.444-7.363S-904.195,72.425-911.639,78.377z"/>
	</g>
	<polygon fill="#534741" points="-742.507,374.774 -922.442,414.289 -922.442,418.49 -742.507,378.977 	"/>
	<rect x="-922.442" y="477.488" fill="#534741" width="179.46" height="0.957"/>
	<g>
		<polygon fill="#E2E1D3" points="-852.312,447.861 -847.667,447.861 -849.964,441.139 		"/>
		<polygon fill="#E2E1D3" points="-793.624,447.861 -788.979,447.861 -791.274,441.139 		"/>
		<path fill="#E2E1D3" d="M-787.392,434.158h-7.793l-4.131,11.18l-0.903-11.18h-8.317l-2.697,6.125l-2.699-6.125h-8.317
			l-0.226,2.709l-0.021,0.225l-0.107-0.123c-0.315-0.336-3.254-3.285-8.896-3.285c-5.485,0-10.015,3.418-11.674,8.291l-2.904-7.816
			h-7.791l-4.133,11.182l-0.902-11.182h-8.318l-2.7,6.127l-2.699-6.127h-8.316l-1.233,15.236h-1.475v9.016h5.878
			c2.274,0,3.887-1.143,4.52-2.922h6.725c0.657,1.922,2.24,2.922,4.449,2.922h5.796c2.321,0,3.741-0.982,4.679-3.209
			c0.055-0.135,0.661-1.615,0.661-1.615h1.9l0.418,1.24c0.854,2.4,2.452,3.584,5.033,3.584h24.504c2.275,0,3.891-1.143,4.521-2.922
			h6.729c0.655,1.922,2.239,2.922,4.45,2.922h6.101c2.432,0,3.918-1.164,4.688-3.623l0.348-1.201h1.898l0.416,1.24
			c0.854,2.4,2.453,3.584,5.035,3.584h5.252v-9.016h-2.116L-787.392,434.158z M-859.157,455.348h-2.917
			c-1.214,0-1.626-0.518-1.73-1.752l-0.645-11.002l-4.104,9.604h-2.735l-4.105-9.627l-0.619,11.025
			c-0.105,1.234-0.543,1.752-1.755,1.752h-2.918v-2.865h0.8c0.361,0,0.542-0.205,0.567-0.568l1.189-14.895h3.509l4.671,11.178h0.054
			l4.671-11.178h3.511l1.188,14.895c0.024,0.363,0.206,0.568,0.567,0.568h0.801V455.348L-859.157,455.348z M-841.574,455.348h-2.014
			c-1.292,0-1.755-0.332-2.169-1.5l-1.134-3.195h-6.195l-1.136,3.195c-0.415,1.168-0.854,1.5-2.143,1.5h-2.041v-2.865h0.415
			c0.438,0,0.646-0.104,0.8-0.568l5.445-14.895h3.538l5.422,14.895c0.154,0.465,0.362,0.568,0.8,0.568h0.413L-841.574,455.348
			L-841.574,455.348z M-823.604,455.348h-2.892v-0.875c0-0.391,0.027-0.775,0.027-0.775h-0.056c0,0-1.959,1.959-5.393,1.959
			c-4.802,0-8.906-3.664-8.906-9.576c0-5.266,4.002-9.369,9.319-9.369c4.49,0,6.685,2.322,6.685,2.322l-1.908,2.426
			c0,0-1.911-1.625-4.699-1.625c-3.173,0-5.885,2.506-5.885,6.225c0,4,2.733,6.449,6.017,6.449c2.916,0,4.646-1.906,4.646-1.906
			v-1.369c0-0.387-0.207-0.568-0.567-0.568h-1.11v-2.865h2.971c1.236,0,1.752,0.514,1.752,1.73V455.348L-823.604,455.348z
			 M-800.472,455.348h-2.913c-1.214,0-1.628-0.518-1.731-1.752l-0.645-11.002l-4.105,9.604h-2.736l-4.102-9.627l-0.623,11.025
			c-0.104,1.234-0.541,1.752-1.757,1.752h-2.914v-2.865h0.8c0.362,0,0.541-0.205,0.566-0.568l1.188-14.895h3.512l4.674,11.178h0.05
			l4.673-11.178h3.512l1.188,14.895c0.023,0.363,0.206,0.568,0.564,0.568h0.801V455.348L-800.472,455.348z M-782.889,455.348h-2.013
			c-1.291,0-1.756-0.332-2.168-1.5l-1.136-3.195h-6.194l-1.137,3.195c-0.412,1.168-0.853,1.5-2.144,1.5h-2.039v-2.865h0.414
			c0.438,0,0.646-0.104,0.801-0.568l5.444-14.895h3.535l5.422,14.895c0.154,0.465,0.359,0.568,0.804,0.568h0.409L-782.889,455.348
			L-782.889,455.348z"/>
		<polygon fill="#E2E1D3" points="-830.676,464.934 -831.647,462.963 -832.616,464.934 -834.79,465.248 -833.221,466.775 
			-833.588,468.936 -831.647,467.918 -829.705,468.936 -830.078,466.775 -828.505,465.248 		"/>
		<path fill="#E2E1D3" d="M-871.694,463.918c0.034-0.205,0.096-0.371,0.18-0.506c0.084-0.137,0.194-0.238,0.332-0.303
			c0.138-0.068,0.307-0.104,0.508-0.104c0.201,0,0.372,0.033,0.509,0.104c0.137,0.064,0.247,0.166,0.333,0.303
			c0.084,0.135,0.145,0.301,0.18,0.506c0.037,0.199,0.055,0.434,0.055,0.701h1.077c0-0.369-0.04-0.705-0.122-1.014
			c-0.082-0.307-0.208-0.568-0.382-0.789c-0.172-0.217-0.395-0.387-0.667-0.51c-0.274-0.121-0.601-0.184-0.982-0.184
			c-0.404,0-0.744,0.068-1.018,0.207c-0.273,0.137-0.496,0.326-0.665,0.572c-0.168,0.244-0.288,0.533-0.361,0.873
			c-0.073,0.342-0.109,0.709-0.109,1.113v2.146c0,0.404,0.036,0.777,0.109,1.117c0.073,0.342,0.193,0.633,0.361,0.877
			c0.169,0.246,0.391,0.438,0.665,0.574c0.274,0.135,0.614,0.205,1.018,0.205s0.743-0.066,1.018-0.203
			c0.274-0.131,0.496-0.312,0.664-0.539s0.289-0.492,0.361-0.793c0.074-0.307,0.11-0.627,0.11-0.959v-0.273h-1.077v0.273
			c0,0.201-0.019,0.396-0.055,0.59c-0.035,0.193-0.096,0.369-0.18,0.516c-0.085,0.154-0.195,0.273-0.333,0.367
			c-0.137,0.094-0.308,0.139-0.509,0.139c-0.202,0-0.371-0.045-0.508-0.139c-0.138-0.094-0.248-0.213-0.332-0.367
			c-0.084-0.146-0.146-0.322-0.18-0.516c-0.038-0.193-0.056-0.389-0.056-0.59v-2.697
			C-871.75,464.352-871.732,464.119-871.694,463.918z"/>
		<path fill="#E2E1D3" d="M-859.557,462.869c-0.167-0.229-0.387-0.41-0.664-0.541c-0.275-0.137-0.619-0.203-1.032-0.203
			c-0.281,0-0.527,0.033-0.744,0.094c-0.215,0.061-0.403,0.146-0.561,0.254c-0.159,0.111-0.292,0.242-0.402,0.396
			c-0.109,0.156-0.197,0.324-0.262,0.51c-0.067,0.186-0.113,0.383-0.141,0.592c-0.029,0.215-0.042,0.428-0.042,0.648v2.697
			c0,0.225,0.013,0.438,0.042,0.65c0.028,0.207,0.074,0.404,0.141,0.594c0.065,0.182,0.153,0.352,0.262,0.51
			c0.109,0.15,0.243,0.281,0.402,0.393c0.158,0.111,0.346,0.195,0.561,0.258c0.217,0.062,0.463,0.092,0.744,0.092
			c0.414,0,0.757-0.066,1.032-0.203c0.277-0.131,0.498-0.312,0.664-0.539c0.165-0.227,0.283-0.492,0.353-0.793
			c0.069-0.305,0.104-0.627,0.104-0.959v-2.697c0-0.334-0.034-0.654-0.104-0.957C-859.274,463.363-859.392,463.098-859.557,462.869z
			 M-860.176,467.584c0,0.201-0.019,0.387-0.054,0.549c-0.037,0.168-0.098,0.311-0.18,0.428c-0.085,0.121-0.195,0.209-0.333,0.271
			c-0.137,0.064-0.307,0.098-0.509,0.098s-0.372-0.033-0.508-0.098c-0.137-0.062-0.249-0.15-0.334-0.271
			c-0.083-0.117-0.145-0.26-0.18-0.428c-0.036-0.162-0.053-0.348-0.053-0.549v-3.23c0-0.201,0.017-0.387,0.053-0.555
			c0.035-0.162,0.097-0.305,0.18-0.42c0.085-0.117,0.197-0.209,0.334-0.273c0.137-0.062,0.307-0.098,0.508-0.098
			c0.202,0,0.372,0.033,0.509,0.098c0.138,0.064,0.248,0.156,0.333,0.273c0.083,0.115,0.144,0.258,0.18,0.42
			c0.035,0.168,0.054,0.354,0.054,0.555V467.584z"/>
		<polygon fill="#E2E1D3" points="-851.158,467.119 -853.145,462.203 -853.85,462.203 -853.85,469.736 -852.775,469.736 
			-852.775,464.727 -850.848,469.736 -850.083,469.736 -850.083,462.203 -851.158,462.203 		"/>
		<polygon fill="#E2E1D3" points="-844.7,469.736 -843.623,469.736 -843.623,466.236 -842.277,466.236 -842.277,465.43 
			-843.623,465.43 -843.623,463.008 -841.736,463.008 -841.736,462.203 -844.7,462.203 		"/>
		<path fill="#E2E1D3" d="M-817.953,465.648c0.103-0.176,0.187-0.346,0.253-0.514c0.067-0.172,0.118-0.346,0.151-0.521
			c0.03-0.178,0.047-0.367,0.047-0.568c0-0.268-0.034-0.521-0.106-0.76c-0.067-0.238-0.178-0.445-0.332-0.623
			c-0.148-0.176-0.344-0.312-0.584-0.42c-0.235-0.104-0.521-0.156-0.862-0.156c-0.335,0-0.621,0.055-0.862,0.16
			c-0.236,0.105-0.434,0.254-0.582,0.449c-0.152,0.193-0.264,0.43-0.334,0.701c-0.066,0.275-0.105,0.58-0.105,0.918v0.27h1.078
			v-0.27c0-0.199,0.019-0.383,0.051-0.555c0.033-0.16,0.084-0.305,0.152-0.422c0.064-0.119,0.152-0.209,0.252-0.271
			c0.098-0.064,0.219-0.102,0.352-0.102c0.136,0,0.255,0.033,0.357,0.098c0.098,0.061,0.184,0.141,0.25,0.244
			c0.065,0.1,0.115,0.211,0.151,0.344c0.033,0.129,0.052,0.262,0.052,0.393c0,0.1-0.008,0.197-0.021,0.305
			c-0.013,0.105-0.048,0.229-0.103,0.379c-0.051,0.139-0.131,0.309-0.24,0.502c-0.106,0.197-0.256,0.428-0.448,0.703l-1.888,2.688
			v1.076h3.772v-1.076h-2.69l1.885-2.42C-818.173,466.002-818.055,465.814-817.953,465.648z"/>
		<path fill="#E2E1D3" d="M-808.854,462.834c-0.11-0.164-0.233-0.297-0.373-0.395c-0.135-0.1-0.275-0.174-0.414-0.227
			c-0.141-0.051-0.275-0.088-0.401-0.102c-0.127-0.02-0.235-0.025-0.325-0.025s-0.197,0.008-0.326,0.025
			c-0.129,0.014-0.262,0.051-0.401,0.102c-0.14,0.053-0.279,0.127-0.417,0.227c-0.139,0.098-0.26,0.23-0.37,0.395
			c-0.106,0.166-0.197,0.371-0.267,0.611c-0.067,0.242-0.103,0.533-0.103,0.869v3.232c0,0.396,0.054,0.736,0.155,1.018
			c0.107,0.281,0.244,0.514,0.422,0.693c0.175,0.18,0.375,0.309,0.602,0.395c0.229,0.082,0.463,0.119,0.705,0.119
			c0.24,0,0.475-0.037,0.701-0.119c0.227-0.086,0.43-0.215,0.604-0.395c0.176-0.182,0.313-0.412,0.42-0.693
			c0.104-0.281,0.158-0.621,0.158-1.018v-3.232c0-0.336-0.033-0.627-0.104-0.869C-808.655,463.205-808.745,463-808.854,462.834z
			 M-809.562,467.547c0,0.076-0.006,0.164-0.012,0.262c-0.007,0.096-0.021,0.195-0.039,0.293c-0.019,0.102-0.049,0.197-0.086,0.295
			c-0.037,0.094-0.089,0.18-0.146,0.25c-0.06,0.074-0.132,0.135-0.22,0.18c-0.088,0.043-0.188,0.064-0.308,0.064
			c-0.118,0-0.22-0.021-0.308-0.064c-0.086-0.045-0.159-0.104-0.219-0.18c-0.059-0.07-0.105-0.156-0.144-0.25
			c-0.041-0.098-0.069-0.193-0.088-0.295c-0.021-0.098-0.035-0.197-0.039-0.293c-0.007-0.098-0.012-0.186-0.012-0.262v-3.232
			c0-0.082,0.003-0.17,0.008-0.27c0.004-0.096,0.015-0.197,0.032-0.295c0.019-0.1,0.044-0.193,0.076-0.293
			c0.037-0.092,0.082-0.174,0.143-0.25c0.062-0.072,0.134-0.129,0.227-0.17c0.088-0.047,0.197-0.07,0.322-0.07
			c0.131,0,0.234,0.023,0.325,0.07c0.09,0.041,0.164,0.098,0.226,0.17c0.059,0.076,0.105,0.158,0.143,0.25
			c0.031,0.1,0.059,0.193,0.074,0.293c0.018,0.098,0.029,0.199,0.035,0.295c0.004,0.1,0.006,0.188,0.006,0.27v3.232H-809.562z"/>
		<path fill="#E2E1D3" d="M-802.575,462.518c-0.121,0.102-0.24,0.182-0.359,0.25c-0.137,0.078-0.278,0.145-0.438,0.201v0.809h0.809
			v5.92h1.076v-7.535h-0.809C-802.362,462.295-802.456,462.412-802.575,462.518z"/>
		<path fill="#E2E1D3" d="M-794.103,467.799h-2.156v-1.258l1.891-4.414h1.348v4.596h0.83v1.076h-0.83v1.881h-1.08v-1.881H-794.103z
			 M-794.103,466.723l0.135-3.244l-1.211,3.244H-794.103z"/>
	</g>
	<path fill="#C4B7A9" d="M-777.588,14.018L-777.588,14.018l-32.837,2.373l1.376,1.008l33.789-2.743
		C-776.03,14.433-776.808,14.219-777.588,14.018z"/>
	<g>
		<g>
			<path fill="#FFFFFF" d="M-914.278,390.709l-4.646,1.028v14.934l-2.461,0.543v-14.936l-1.905,0.42v-2.377l1.858-0.409v-20.791
				l2.554-0.562v20.788l4.552-1.008v-20.784l2.509-0.558v38.103l-2.461,0.545V390.709L-914.278,390.709z"/>
			<path fill="#FFFFFF" d="M-908.478,389.429l-2.275,0.502v-2.379l2.229-0.492v-20.787l8.731-1.929v2.426l-6.177,1.365v18.359
				l6.364-1.404v2.377l-6.364,1.406v12.603l6.364-1.402v2.33l-8.873,1.961L-908.478,389.429L-908.478,389.429z"/>
			<path fill="#FFFFFF" d="M-889.34,387.151c0-0.062,0-0.135,0-0.215c0-0.079-0.017-0.162-0.046-0.251
				c-0.063-0.366-0.233-0.672-0.511-0.91c-0.279-0.237-0.682-0.301-1.208-0.185l-2.693,0.594v14.939c0-0.033-0.179-0.01-0.535,0.07
				c-0.356,0.076-0.751,0.164-1.184,0.26c-0.124,0.027-0.249,0.055-0.372,0.082c-0.124,0.027-0.248,0.055-0.371,0.082v-14.936
				l-2.137,0.473v-2.331l2.137-0.474v-20.786l5.248-1.161c1.145-0.251,2.121-0.063,2.926,0.567c0.805,0.63,1.208,1.535,1.208,2.707
				v15.079c0,0.511-0.085,1.019-0.255,1.53c-0.171,0.515-0.412,0.979-0.72,1.396c0.309,0.249,0.549,0.594,0.72,1.03
				c0.169,0.438,0.255,1.07,0.255,1.895v8.657c0,0.475,0.131,0.819,0.396,1.03c0.261,0.212,0.548,0.33,0.858,0.355
				c0.247,0.039,0.488,0.045,0.72,0.008c0.232-0.035,0.395-0.062,0.488-0.082c0.03-0.006,0.061-0.014,0.092-0.02v2.566
				c-0.032-0.023-0.07-0.031-0.116-0.021c-0.047,0.01-0.102,0.021-0.164,0.037c-1.177,0.162-2.26,0.115-3.25-0.139
				c-0.991-0.258-1.486-1.322-1.486-3.192V387.151z M-889.782,365.082c-0.325-0.277-0.72-0.363-1.184-0.262l-2.88,0.638v18.359
				l2.694-0.596c0.527-0.115,0.968-0.34,1.323-0.674c0.357-0.332,0.535-0.752,0.535-1.256v-15.08
				C-889.294,365.734-889.457,365.36-889.782,365.082z"/>
			<path fill="#FFFFFF" d="M-881.212,383.405l-2.276,0.504v-2.379l2.23-0.492v-20.79l8.731-1.93v2.43l-6.176,1.364v18.361
				l6.363-1.406v2.379l-6.363,1.403v12.608l6.363-1.408v2.332l-8.872,1.962V383.405z"/>
			<path fill="#FFFFFF" d="M-853.064,392.122l-1.998-24.103l-2.973,25.2l-2.136,0.472l-3.297-37.374l2.462-0.542l2.322,23.556
				l2.555-24.633l2.322-0.515l2.275,23.188l2.417-24.223l2.416-0.535l-4.228,39.035L-853.064,392.122z"/>
			<path fill="#FFFFFF" d="M-844.007,375.183l-2.277,0.506v-2.378l2.23-0.493v-20.79l8.731-1.93v2.427l-6.177,1.365v18.36
				l6.363-1.403v2.376l-6.363,1.406v12.605l6.363-1.408v2.332l-8.871,1.961L-844.007,375.183L-844.007,375.183z"/>
			<path fill="#FFFFFF" d="M-822.038,385.363c-1.207,0.233-2.26,0.048-3.156-0.563c-0.898-0.609-1.348-1.533-1.348-2.768v-29.685
				c0-1.396,0.471-2.539,1.417-3.428c0.942-0.891,1.989-1.479,3.134-1.765c0.03-0.008,0.053-0.011,0.069-0.014
				c0.015-0.004,0.039-0.01,0.071-0.017c1.299-0.288,2.398-0.164,3.298,0.366c0.896,0.532,1.345,1.462,1.345,2.794v4.519
				l-2.414,0.534v-4.519c0-0.03,0-0.07,0-0.118c0-0.047-0.016-0.084-0.047-0.108c-0.062-0.368-0.304-0.672-0.72-0.913
				c-0.419-0.24-0.905-0.299-1.462-0.174c-0.651,0.144-1.187,0.426-1.604,0.853c-0.418,0.425-0.627,0.907-0.627,1.446v29.684
				c0,0.602,0.209,1.041,0.627,1.312c0.418,0.272,0.905,0.346,1.464,0.222c0.68-0.147,1.254-0.466,1.717-0.949
				c0.465-0.483,0.697-1.024,0.697-1.628v-10.656l-2.369,0.523v-2.379c1.487-0.327,3.066-0.676,4.737-1.047v13.08
				c0,1.304-0.485,2.447-1.462,3.439c-0.975,0.993-2.1,1.629-3.368,1.909L-822.038,385.363L-822.038,385.363z"/>
			<path fill="#FFFFFF" d="M-810.799,382.735c-1.238,0.243-2.347,0.188-3.323-0.168c-0.973-0.354-1.462-1.391-1.462-3.102v-29.634
				c0-1.207,0.479-2.311,1.44-3.317c0.957-1.004,2.091-1.652,3.39-1.938c1.271-0.28,2.362-0.115,3.274,0.492
				c0.914,0.607,1.371,1.497,1.371,2.668v29.685c0,1.679-0.449,2.903-1.349,3.675c-0.897,0.77-1.901,1.276-3.021,1.524
				c-0.028,0.004-0.073,0.016-0.137,0.029c-0.031,0.006-0.062,0.016-0.094,0.02c-0.029,0.01-0.062,0.016-0.093,0.02v0.047H-810.799z
				 M-809.151,347.219c-0.354-0.237-0.75-0.34-1.184-0.309c-0.062-0.017-0.134-0.019-0.209-0.002
				c-0.076,0.018-0.146,0.033-0.21,0.048c-0.062,0.012-0.114,0.024-0.163,0.035c-0.046,0.011-0.098,0.039-0.161,0.082
				c-0.493,0.175-0.944,0.463-1.347,0.868c-0.402,0.406-0.604,0.833-0.604,1.277v29.685c0,0.633,0.201,1.086,0.604,1.362
				s0.943,0.339,1.626,0.188s1.215-0.451,1.604-0.901c0.385-0.449,0.58-0.977,0.58-1.577V348.29
				C-808.614,347.815-808.794,347.458-809.151,347.219z"/>
			<path fill="#FFFFFF" d="M-790.78,363.426l-2.647,0.584l-1.718,15.318l-2.465,0.543l1.721-15.317l-1.904,0.42v-2.378l2.23-0.492
				l2.506-21.342l2.139-0.472l4.273,37.159l-2.322,0.513L-790.78,363.426z M-793.196,361.579l2.137-0.471l-0.975-9.679
				L-793.196,361.579z"/>
			<path fill="#FFFFFF" d="M-780.983,376.293c-1.207,0.232-2.26,0.045-3.158-0.565c-0.897-0.606-1.346-1.53-1.346-2.769v-29.684
				c0-1.394,0.471-2.538,1.416-3.428c0.943-0.89,1.986-1.479,3.135-1.764c0.029-0.005,0.054-0.011,0.07-0.015
				c0.014-0.003,0.038-0.008,0.069-0.014c1.298-0.287,2.397-0.166,3.296,0.365c0.9,0.532,1.348,1.461,1.348,2.793v4.521
				l-2.414,0.534v-4.519c0-0.033,0-0.072,0-0.119c0-0.048-0.017-0.083-0.047-0.109c-0.062-0.366-0.302-0.67-0.72-0.911
				c-0.417-0.241-0.903-0.3-1.463-0.176c-0.649,0.143-1.187,0.429-1.603,0.854c-0.42,0.424-0.627,0.907-0.627,1.446v29.683
				c0,0.604,0.207,1.041,0.627,1.313c0.416,0.272,0.902,0.349,1.463,0.22c0.68-0.146,1.252-0.464,1.718-0.945
				c0.464-0.484,0.696-1.028,0.696-1.629v-10.66l-2.369,0.522v-2.378c1.488-0.327,3.066-0.677,4.738-1.047v13.083
				c0,1.302-0.488,2.446-1.463,3.438c-0.978,0.992-2.1,1.627-3.367,1.91V376.293L-780.983,376.293z"/>
			<path fill="#FFFFFF" d="M-767.696,358.323l-2.646,0.585l-1.718,15.316l-2.465,0.546l1.721-15.318l-1.904,0.422v-2.379
				l2.229-0.494l2.509-21.342l2.136-0.473l4.273,37.16l-2.322,0.513L-767.696,358.323z M-770.11,356.48l2.137-0.472l-0.977-9.68
				L-770.11,356.48z"/>
			<path fill="#FFFFFF" d="M-762.216,333.949l2.557-0.566v38.103l-2.557,0.565V333.949z"/>
			<path fill="#FFFFFF" d="M-755.714,347.02v23.594l-2.555,0.565v-38.104l2.369-0.521l4.644,23.424v-24.45l2.508-0.556v38.056
				l-2.461,0.592L-755.714,347.02z"/>
			<path fill="#FFFFFF" d="M-746.052,368.478c-0.495,0.078-0.92-0.017-1.277-0.288c-0.355-0.268-0.533-0.659-0.533-1.167
				c0-0.539,0.178-1.021,0.533-1.45c0.357-0.426,0.782-0.695,1.277-0.805c0.525-0.115,0.969-0.038,1.324,0.231
				c0.354,0.272,0.533,0.676,0.533,1.216c0,0.504-0.179,0.974-0.533,1.4c-0.355,0.428-0.799,0.699-1.324,0.813V368.478z
				 M-747.399,330.673l2.461-0.543v33.489l-2.461,0.542V330.673z"/>
		</g>
	</g>
</g>
</svg>
