<?xml version="1.0" encoding="utf-8"?>
<!-- Generator: Adobe Illustrator 16.2.1, SVG Export Plug-In . SVG Version: 6.00 Build 0)  -->
<!DOCTYPE svg PUBLIC "-//W3C//DTD SVG 1.1//EN" "http://www.w3.org/Graphics/SVG/1.1/DTD/svg11.dtd">
<svg version="1.1" id="Capa_1" xmlns="http://www.w3.org/2000/svg" xmlns:xlink="http://www.w3.org/1999/xlink" x="0px" y="0px"
	 width="58.229px" height="51.173px" viewBox="-701.959 593.22 58.229 51.173"
	 enable-background="new -701.959 593.22 58.229 51.173" xml:space="preserve">
<g>
	<path opacity="0.3" fill="#524640" enable-background="new    " d="M-677.312,638.765c0.161,0.369,0.254,0.81,0.254,1.337v4.075
		c0.288,0.03,0.579,0.057,0.872,0.079v-2.616C-676.186,641.642-676.255,639.582-677.312,638.765z"/>
	<path opacity="0.3" fill="#524640" enable-background="new    " d="M-656.272,638.673c0-3.159-7.316-5.721-16.344-5.721
		c-9.026,0-16.344,2.562-16.344,5.721c0,2.254,3.728,4.204,9.144,5.137v-3.635c0,0-0.143-1.744-1.741-2.324
		c0,0-0.944-0.654,0.071-1.018c0,0,2.931-0.243,4.026,1.623c-0.113-0.361-0.129-0.92,0.985-0.667c0,0,3.051,0.435,3.195,3.994
		l0.027,2.604c0.212,0.004,0.424,0.004,0.636,0.004c0.061,0,0.121,0,0.18,0l0.028-2.607c0.146-3.56,3.195-3.994,3.195-3.994
		c1.117-0.253,1.099,0.308,0.985,0.667c1.096-1.864,4.026-1.623,4.026-1.623c1.018,0.364,0.071,1.018,0.071,1.018
		c-1.596,0.58-1.741,2.324-1.741,2.324v3.71C-660.21,642.987-656.272,640.988-656.272,638.673z"/>
	<path opacity="0.3" fill="#524640" enable-background="new    " d="M-669.503,641.642v2.647c0.293-0.02,0.585-0.043,0.871-0.068
		v-4.118c0-0.527,0.096-0.969,0.254-1.338C-669.43,639.582-669.503,641.642-669.503,641.642z"/>
	<path fill="#524640" d="M-668.339,638.735c0,0,0.065-0.119,0.111-0.276c-0.056,0.096-0.104,0.199-0.148,0.306
		C-668.365,638.754-668.354,638.744-668.339,638.735z"/>
	<path opacity="0.5" fill="#524640" enable-background="new    " d="M-669.503,641.642c0,0,0.072-2.06,1.127-2.877
		c0.045-0.106,0.094-0.21,0.148-0.305c0.113-0.361,0.131-0.922-0.985-0.67c0,0-3.049,0.437-3.194,3.996l-0.028,2.606
		c1.002-0.004,1.982-0.039,2.932-0.104V641.642L-669.503,641.642z"/>
	<path opacity="0.5" fill="#524640" enable-background="new    " d="M-677.056,640.103c0-0.527-0.095-0.969-0.254-1.338
		c-0.013-0.01-0.023-0.021-0.037-0.029c0,0-0.065-0.119-0.114-0.276c-1.096-1.865-4.026-1.623-4.026-1.623
		c-1.016,0.361-0.071,1.016-0.071,1.016c1.598,0.579,1.741,2.326,1.741,2.326v3.634c0.88,0.15,1.803,0.275,2.76,0.368V640.103z"/>
	<path opacity="0.5" fill="#524640" enable-background="new    " d="M-664.129,637.852c0,0,0.944-0.653-0.072-1.016
		c0,0-2.931-0.244-4.026,1.623c-0.048,0.157-0.114,0.276-0.114,0.276c-0.012,0.009-0.023,0.02-0.037,0.029
		c-0.16,0.369-0.253,0.811-0.253,1.338v4.118c0.957-0.082,1.88-0.196,2.76-0.335v-3.711
		C-665.871,640.175-665.726,638.433-664.129,637.852z"/>
	<path fill="#524640" d="M-677.312,638.765c-0.044-0.107-0.093-0.21-0.148-0.306c0.048,0.157,0.114,0.276,0.114,0.276
		C-677.334,638.744-677.323,638.754-677.312,638.765z"/>
	<path opacity="0.5" fill="#524640" enable-background="new    " d="M-676.186,641.642v2.614c0.949,0.074,1.931,0.121,2.933,0.134
		l-0.027-2.604c-0.144-3.56-3.195-3.994-3.195-3.994c-1.115-0.253-1.098,0.306-0.985,0.668c0.056,0.095,0.104,0.198,0.148,0.306
		C-676.255,639.582-676.186,641.642-676.186,641.642z"/>
	<path opacity="0.25" fill="#524640" enable-background="new    " d="M-691.283,621.854l-0.475,1.645c0,0-0.124,0.594,0.438,0.699
		c0.583-0.013,0.535-0.558,0.496-0.735L-691.283,621.854L-691.283,621.854z"/>
	<path fill="#524640" d="M-643.773,614.962l0.043-0.213c-4.794-0.958-9.715-0.967-12.692-0.845c0.489-1.762,0.635-3.789,0.635-6.05
		c0-3.243-1.217-5.837-3.194-7.808c0.345-1.116,0.807-3.593-0.462-6.765c0,0-2.236-0.71-7.297,2.678
		c-1.982-0.496-4.094-0.74-6.207-0.74c-2.325,0-4.672,0.295-6.864,0.897c-5.221-3.563-7.528-2.833-7.528-2.833
		c-1.504,3.763-0.573,6.549-0.29,7.241c-1.769,1.908-2.849,4.345-2.849,7.332c0,2.255,0.257,4.278,0.884,6.037
		c-3.002-0.108-7.744-0.068-12.367,0.857l0.042,0.213c4.652-0.929,9.423-0.963,12.406-0.85c0.139,0.366,0.292,0.718,0.465,1.06
		c-2.949,0.096-7.989,0.472-12.815,1.834l0.059,0.209c4.867-1.372,9.947-1.74,12.871-1.828c1.761,3.286,5.238,5.408,11.42,6.074
		c-0.876,0.589-1.772,1.592-2.134,3.287c-1.197,0.574-4.983,1.969-7.254-1.938c0,0-1.271-2.326-3.707-2.508
		c0,0-2.361-0.036-0.162,1.473c0,0,1.579,0.745,2.669,3.542c0,0,1.422,4.77,8.283,3.239v4.927c0,0-0.146,1.745-1.744,2.326
		c0,0-0.944,0.654,0.072,1.016c0,0,4.431,0.364,4.431-3.267v-5.374c0,0-0.175-2.133,0.87-2.872v8.826c0,0-0.071,2.106-1.162,2.907
		c0,0-0.727,1.305,0.872,0.944c0,0,3.05-0.438,3.195-3.996l0.069-8.933h0.735l0.07,8.933c0.144,3.559,3.192,3.996,3.192,3.996
		c1.6,0.36,0.871-0.944,0.871-0.944c-1.089-0.8-1.162-2.907-1.162-2.907v-8.75c1.046,0.815,0.871,2.796,0.871,2.796v5.374
		c0,3.631,4.431,3.267,4.431,3.267c1.018-0.361,0.072-1.016,0.072-1.016c-1.599-0.581-1.743-2.326-1.743-2.326v-7.045
		c0-2.747-1.158-4.202-2.288-4.969c6.592-0.652,9.758-2.785,11.215-6.093c2.889,0.081,8.087,0.431,13.059,1.834l0.058-0.209
		c-4.944-1.395-10.108-1.756-13.023-1.841c0.137-0.333,0.259-0.68,0.365-1.039C-653.528,613.999-648.586,614.001-643.773,614.962z
		 M-690.024,621.21c-0.26,0-0.472-0.144-0.472-0.325s0.211-0.327,0.472-0.327c0.262,0,0.473,0.146,0.473,0.327
		C-689.552,621.066-689.762,621.21-690.024,621.21z M-689.188,621.609c0-0.177,0.212-0.324,0.472-0.324
		c0.262,0,0.474,0.146,0.474,0.324c0,0.184-0.212,0.329-0.474,0.329C-688.976,621.938-689.188,621.793-689.188,621.609z
		 M-688.387,622.557c0-0.181,0.212-0.325,0.471-0.325c0.261,0,0.473,0.145,0.473,0.325c0,0.18-0.212,0.326-0.473,0.326
		C-688.177,622.883-688.387,622.736-688.387,622.557z M-687.19,623.974c-0.261,0-0.473-0.146-0.473-0.325
		c0-0.182,0.212-0.329,0.473-0.329c0.26,0,0.473,0.146,0.473,0.329C-686.719,623.828-686.93,623.974-687.19,623.974z
		 M-686.391,624.99c-0.262,0-0.475-0.146-0.475-0.328c0-0.18,0.212-0.326,0.475-0.326c0.259,0,0.472,0.146,0.472,0.326
		C-685.919,624.844-686.132,624.99-686.391,624.99z M-685.301,625.861c-0.262,0-0.473-0.146-0.473-0.327
		c0-0.181,0.211-0.328,0.473-0.328c0.26,0,0.473,0.146,0.473,0.328C-684.828,625.717-685.041,625.861-685.301,625.861z
		 M-683.775,626.443c-0.262,0-0.473-0.146-0.473-0.328s0.211-0.327,0.473-0.327c0.259,0,0.472,0.146,0.472,0.327
		C-683.304,626.298-683.516,626.443-683.775,626.443z M-682.257,626.443c-0.262,0-0.473-0.146-0.473-0.328s0.211-0.327,0.473-0.327
		c0.26,0,0.472,0.146,0.472,0.327S-681.998,626.443-682.257,626.443z M-680.717,626.188c-0.262,0-0.473-0.146-0.473-0.327
		c0-0.178,0.211-0.324,0.473-0.324c0.26,0,0.473,0.145,0.473,0.324C-680.245,626.043-680.458,626.188-680.717,626.188z
		 M-672.997,620.246c-7.189,0-13.013-1.082-13.013-8.028c0-1.664,0.817-3.207,2.22-4.49c2.339-2.135,6.299-1.004,10.792-1.004
		c4.474,0,8.419-1.144,10.764,0.979c1.419,1.287,2.25,2.839,2.25,4.515C-659.984,620.034-665.81,620.246-672.997,620.246z"/>
	<g>
		<ellipse fill="#524640" cx="-680" cy="612.664" rx="1.803" ry="2.599"/>
		<ellipse fill="#524640" cx="-665.473" cy="612.664" rx="1.803" ry="2.599"/>
		<circle fill="#524640" cx="-672.958" cy="616.079" r="0.677"/>
		<path fill="#524640" d="M-671.526,617.512c-0.112-0.041-0.238,0.02-0.278,0.133c-0.175,0.491-0.641,0.822-1.162,0.822
			c-0.52,0-0.987-0.33-1.162-0.822c-0.04-0.112-0.165-0.174-0.279-0.133c-0.111,0.039-0.171,0.165-0.133,0.277
			c0.237,0.665,0.867,1.111,1.572,1.111c0.704,0,1.335-0.446,1.57-1.111C-671.354,617.676-671.413,617.551-671.526,617.512z"/>
	</g>
	<g opacity="0.12">
		<ellipse fill="#524640" cx="-690.024" cy="620.884" rx="0.474" ry="0.326"/>
		<path fill="#524640" d="M-688.243,621.609c0-0.177-0.212-0.324-0.475-0.324c-0.259,0-0.472,0.146-0.472,0.324
			c0,0.184,0.213,0.329,0.472,0.329C-688.454,621.938-688.243,621.793-688.243,621.609z"/>
		<ellipse fill="#524640" cx="-687.915" cy="622.557" rx="0.472" ry="0.326"/>
		<ellipse fill="#524640" cx="-687.19" cy="623.646" rx="0.472" ry="0.327"/>
		<ellipse fill="#524640" cx="-686.391" cy="624.663" rx="0.474" ry="0.327"/>
		<ellipse fill="#524640" cx="-685.301" cy="625.534" rx="0.472" ry="0.328"/>
		<ellipse fill="#524640" cx="-683.775" cy="626.116" rx="0.474" ry="0.328"/>
		<ellipse fill="#524640" cx="-682.257" cy="626.116" rx="0.475" ry="0.328"/>
		<path fill="#524640" d="M-680.717,625.537c0.261,0,0.473,0.146,0.473,0.327c0,0.181-0.212,0.326-0.473,0.326
			c-0.262,0-0.473-0.146-0.473-0.326C-681.189,625.683-680.978,625.537-680.717,625.537z"/>
	</g>
	<path fill="#524640" d="M-680.034,608.718c1.497,0,2.71,1.745,2.71,3.898c0,2.152-1.213,3.897-2.71,3.897
		c-1.494,0-2.708-1.745-2.708-3.897C-682.743,610.463-681.528,608.718-680.034,608.718 M-680.034,608.411
		c-1.662,0-3.015,1.886-3.015,4.205s1.354,4.204,3.015,4.204c1.665,0,3.018-1.885,3.018-4.204
		C-677.016,610.298-678.37,608.411-680.034,608.411L-680.034,608.411z"/>
	<path fill="#524640" d="M-665.506,608.718c1.496,0,2.708,1.745,2.708,3.898c0,2.152-1.212,3.897-2.708,3.897
		c-1.494,0-2.707-1.745-2.707-3.897C-668.213,610.463-667,608.718-665.506,608.718 M-665.506,608.411
		c-1.663,0-3.016,1.886-3.016,4.205s1.354,4.204,3.016,4.204c1.664,0,3.017-1.885,3.017-4.204
		C-662.489,610.298-663.843,608.411-665.506,608.411L-665.506,608.411z"/>
</g>
</svg>
