<?xml version="1.0" encoding="utf-8"?>
<!-- Generator: Adobe Illustrator 16.2.1, SVG Export Plug-In . SVG Version: 6.00 Build 0)  -->
<!DOCTYPE svg PUBLIC "-//W3C//DTD SVG 1.1//EN" "http://www.w3.org/Graphics/SVG/1.1/DTD/svg11.dtd">
<svg version="1.1" id="Capa_1" xmlns="http://www.w3.org/2000/svg" xmlns:xlink="http://www.w3.org/1999/xlink" x="0px" y="0px"
	 width="89.164px" height="37.521px" viewBox="-598.084 593.281 89.164 37.521"
	 enable-background="new -598.084 593.281 89.164 37.521" xml:space="preserve">
<g>
	<rect x="-570.083" y="626.255" fill="#524640" width="1.009" height="4.464"/>
	<polygon fill="#524640" points="-560.171,627.139 -558.806,627.139 -558.806,630.719 -557.796,630.719 -557.796,627.139 
		-556.435,627.139 -556.435,626.255 -560.171,626.255 	"/>
	<polygon fill="#524640" points="-553.011,628.881 -551.324,628.881 -551.324,627.997 -553.011,627.997 -553.011,627.139 
		-551.045,627.139 -551.045,626.255 -554.021,626.255 -554.021,630.719 -550.932,630.719 -550.932,629.836 -553.011,629.836 	"/>
	<polygon fill="#524640" points="-529.65,627.139 -528.285,627.139 -528.285,630.719 -527.273,630.719 -527.273,627.139 
		-525.913,627.139 -525.913,626.255 -529.65,626.255 	"/>
	<rect x="-523.316" y="626.255" fill="#524640" width="1.009" height="4.464"/>
	<polygon fill="#524640" points="-512.217,628.881 -510.528,628.881 -510.528,627.997 -512.217,627.997 -512.217,627.139 
		-510.25,627.139 -510.25,626.255 -513.225,626.255 -513.225,630.719 -510.137,630.719 -510.137,629.836 -512.217,629.836 	"/>
	<path fill="#524640" d="M-534.002,627.137c0.492,0,0.947,0.269,1.187,0.699l0.034,0.062h1.014l-0.054-0.159
		c-0.321-0.928-1.198-1.553-2.181-1.553c-1.273,0-2.309,1.035-2.309,2.31c0,1.272,1.035,2.307,2.309,2.307
		c0.982,0,1.859-0.624,2.181-1.554l0.054-0.156h-1.016l-0.032,0.062c-0.239,0.431-0.694,0.697-1.187,0.697
		c-0.748,0-1.357-0.608-1.357-1.355C-535.359,627.747-534.75,627.137-534.002,627.137z"/>
	<polygon fill="#524640" points="-563.177,629 -565.084,626.256 -566.098,626.256 -566.098,630.719 -565.084,630.719 
		-565.084,627.972 -563.192,630.719 -563.177,630.716 -563.177,630.719 -562.164,630.719 -562.164,626.256 -563.177,626.256 	"/>
	<path fill="#524640" d="M-544.854,627.896c0-0.902-0.727-1.63-1.625-1.638v-0.004h-1.707v0.001v4.463h1.014v-1.185h0.276
		l0.836,1.185h1.221l-0.948-1.349C-545.238,629.104-544.854,628.547-544.854,627.896z M-546.488,628.521h-0.684v-1.252h0.684v0.002
		c0.344,0.004,0.621,0.281,0.621,0.626C-545.867,628.24-546.145,628.519-546.488,628.521z"/>
	<path fill="#524640" d="M-540.975,626.255l-1.771,4.464h1.1l0.406-1.021h1.468l0.405,1.021h1.099l-1.771-4.464H-540.975z
		 M-540.86,628.737l0.354-0.893l0.354,0.893H-540.86z"/>
	<polygon fill="#524640" points="-517.775,629.13 -518.914,626.255 -520.013,626.255 -518.241,630.719 -517.305,630.719 
		-515.534,626.255 -516.634,626.255 	"/>
	<path fill="#524640" d="M-575.351,615.468c-0.151,0.286-0.341,0.551-0.59,0.799c-0.551,0.571-1.254,0.857-2.072,0.857
		c-0.818,0-1.503-0.286-2.074-0.857c-0.552-0.55-0.836-1.254-0.836-2.055c0-0.817,0.284-1.502,0.836-2.092
		c0.571-0.571,1.256-0.855,2.074-0.855c0.818,0,1.521,0.284,2.072,0.855c0.249,0.248,0.439,0.531,0.61,0.837h5.402
		c-0.247-1.73-1.026-3.215-2.339-4.489c-1.371-1.389-3-2.17-4.874-2.354c-0.269-0.021-0.544-0.035-0.833-0.042
		c-0.003,0-0.004,0-0.007,0c-0.014,0-0.028,0-0.043-0.002c-2.24,0.004-4.14,0.801-5.734,2.397c-1.599,1.578-2.378,3.5-2.378,5.744
		c0,2.246,0.78,4.167,2.378,5.746c0.471,0.469,0.968,0.869,1.492,1.197c1.173,0.703,2.54,1.125,3.998,1.175
		c0.069,0.002,0.138,0.005,0.208,0.005c0.021,0,0.04,0,0.062,0c2.238-0.003,4.156-0.783,5.732-2.377
		c1.313-1.274,2.073-2.777,2.339-4.49H-575.351z"/>
	<path fill="#524640" d="M-516.28,621.688c0.015,0,0.032-0.004,0.047-0.004h0.001c0.003,0,0.003,0,0.003,0
		c1.961-0.062,3.676-0.787,5.079-2.207c1.505-1.47,2.229-3.255,2.229-5.343c0-2.089-0.725-3.856-2.229-5.344
		c-1.414-1.431-3.131-2.157-5.13-2.229h-3.794h-1.464h-4.058l-1.887,6.143l-1.874-6.104l0.013-0.038h-0.023h-5.499h-0.024
		l0.012,0.038l-1.871,6.104l-1.888-6.142h-5.521l0.829,2.705c-0.22-0.275-0.459-0.543-0.723-0.8
		c-1.559-1.597-3.479-2.394-5.737-2.396h-0.002h-0.005h-0.003c-2.243,0-4.164,0.8-5.743,2.396c-0.679,0.67-1.211,1.402-1.603,2.195
		c-0.185-0.984-0.653-1.847-1.411-2.591c-0.902-0.921-1.98-1.418-3.236-1.505h-8.491c1.947,1.968,3.15,4.672,3.15,7.657
		c0,2.89-1.128,5.515-2.965,7.464h5.176v-4.085l2.333,4.085h5.571l-2.724-4.828c0.196-0.143,0.566-0.424,1.079-0.865
		c0.301-0.252,0.551-0.556,0.765-0.9c0.185,1.869,0.969,3.495,2.354,4.864c1.579,1.597,3.5,2.377,5.743,2.377
		c2.266,0,4.187-0.78,5.747-2.377c1.493-1.457,2.285-3.205,2.4-5.229l2.136,6.959h0.009h5.515h0.008l1.869-6.091l1.87,6.091h0.007
		h5.516h0.006l3.184-10.368v10.368H-516.28z M-516.687,611.269c0.053-0.02,0.143-0.02,0.212-0.02c0.76,0,1.45,0.283,1.999,0.85
		c0.565,0.565,0.85,1.239,0.85,2.035c0,0.795-0.284,1.485-0.85,2.034c-0.549,0.567-1.239,0.849-1.999,0.849h-0.212V611.269z
		 M-561.986,612.245c0,0.032,0,0.032,0,0.032c0,0.039,0,0.039,0,0.074v0.07c-0.036,0.282-0.16,0.511-0.39,0.741
		c-0.213,0.213-0.477,0.354-0.795,0.354h-1.74c-0.003-0.001-0.008-0.001-0.008-0.001h-0.003v-2.562h1.751
		c0.318,0.017,0.582,0.141,0.795,0.37c0.267,0.249,0.371,0.513,0.39,0.867V612.245z M-547.725,616.267
		c-0.571,0.59-1.236,0.876-2.075,0.876c-0.797,0-1.502-0.286-2.054-0.876c-0.588-0.552-0.873-1.255-0.873-2.055
		c0-0.817,0.285-1.502,0.873-2.092c0.552-0.571,1.256-0.855,2.054-0.855c0.839,0,1.504,0.284,2.075,0.855
		c0.57,0.59,0.876,1.274,0.876,2.092C-546.849,615.012-547.154,615.715-547.725,616.267z"/>
	<circle fill="#524640" cx="-595.226" cy="611.193" r="1.215"/>
	<circle fill="#524640" cx="-592.283" cy="605.897" r="0.558"/>
	<circle fill="#524640" cx="-594.455" cy="606.168" r="0.762"/>
	<circle fill="#524640" cx="-593.307" cy="602.573" r="1.516"/>
	<path fill="#524640" d="M-590.69,602.047c0.446,0.291,1.046,0.169,1.338-0.276c0.293-0.446,0.169-1.047-0.277-1.341
		c-0.446-0.292-1.046-0.169-1.339,0.277C-591.261,601.152-591.136,601.753-590.69,602.047z"/>
	<circle fill="#524640" cx="-588.664" cy="597.862" r="0.717"/>
	<circle fill="#524640" cx="-585.138" cy="599.045" r="1.124"/>
	<circle fill="#524640" cx="-585.185" cy="594.267" r="0.966"/>
	<path fill="#524640" d="M-581.625,596.559c0.655,0.431,1.534,0.248,1.963-0.405c0.348-0.53,0.294-1.207-0.085-1.674
		c0.164-0.014,0.321-0.098,0.418-0.247c0.169-0.257,0.098-0.603-0.16-0.771c-0.258-0.17-0.603-0.099-0.772,0.159
		c-0.087,0.133-0.111,0.289-0.077,0.432c-0.608-0.235-1.319-0.022-1.693,0.545C-582.461,595.252-582.279,596.128-581.625,596.559z"
		/>
	<circle fill="#524640" cx="-577.334" cy="597.947" r="1.123"/>
	<circle fill="#524640" cx="-575.278" cy="594.404" r="1.123"/>
	<circle fill="#524640" cx="-573.041" cy="596.434" r="0.717"/>
	<circle fill="#524640" cx="-569.13" cy="602.804" r="0.967"/>
	<circle fill="#524640" cx="-594.213" cy="621.943" r="0.967"/>
	<circle fill="#524640" cx="-597.368" cy="619.388" r="0.716"/>
	<path fill="#524640" d="M-588.897,614.198c0-6.016,4.877-10.893,10.892-10.893c2.7,0,5.169,0.984,7.073,2.612
		c0.484-0.232,1.132-1.008,1.013-1.018c0.083-0.479-0.116-0.985-0.548-1.271c-0.14-0.09-0.291-0.15-0.444-0.179l0.006-0.001
		c0,0-0.321-0.025-0.302-0.346c0.043-0.035,0.085-0.075,0.117-0.124c0.169-0.259,0.099-0.604-0.16-0.773
		c-0.257-0.17-0.604-0.099-0.772,0.16c-0.169,0.257-0.097,0.603,0.16,0.773c0.054,0.032,0.11,0.056,0.169,0.072
		c0.004,0.012,0.01,0.022,0.022,0.035c0.112,0.109,0.063,0.222,0.027,0.275c-0.153,0.065-0.297,0.157-0.418,0.28
		c-0.072-0.12-0.172-0.226-0.296-0.308c-0.246-0.161-0.537-0.195-0.801-0.12c0.14-0.567-0.081-1.182-0.598-1.521
		c-0.169-0.111-0.354-0.182-0.544-0.214c0.076-0.061,0.145-0.134,0.201-0.221c0.093-0.143,0.141-0.304,0.151-0.463
		c0,0.002,0.004,0.004,0.004,0.004s0.179-0.709,0.757-0.433c0.518,0.342,1.216,0.198,1.557-0.321c0.34-0.52,0.195-1.218-0.323-1.557
		c-0.519-0.342-1.216-0.195-1.556,0.322c-0.126,0.19-0.185,0.405-0.185,0.618v-0.001c0,0,0,0.005,0,0.012c0,0.001,0,0.001,0,0.001
		c0,0.092-0.021,0.611-0.57,0.566c-0.002,0-0.003,0-0.003,0c-0.036-0.029-0.07-0.061-0.109-0.088
		c-0.424-0.277-0.983-0.18-1.29,0.211c-0.085-0.193-0.225-0.367-0.415-0.491c-0.521-0.343-1.215-0.198-1.556,0.32
		c-0.057,0.089-0.099,0.18-0.129,0.273c-0.018-0.012-0.034-0.023-0.052-0.037c-0.281-0.184-0.615-0.227-0.915-0.142
		c0.058-0.062,0.112-0.13,0.161-0.202c0.43-0.654,0.249-1.533-0.407-1.964c-0.655-0.43-1.533-0.247-1.963,0.408
		c-0.226,0.344-0.281,0.752-0.188,1.123c-0.559-0.263-1.238-0.084-1.585,0.447c-0.218,0.332-0.257,0.728-0.143,1.079
		c0.01,0.027,0.019,0.057,0.031,0.083c0.012,0.033,0.029,0.064,0.045,0.098c0.234,0.439,0.605,0.335,0.86,0.49
		c0.001,0.002,0.004,0.005,0.006,0.006c0.242,0.13,0.408,0.383,0.408,0.677c0,0.425-0.344,0.77-0.77,0.77
		c-0.425,0-0.77-0.345-0.77-0.77c0-0.04,0.007-0.078,0.012-0.115c0-0.005,0-0.009,0-0.013c0.046-0.461-0.115-0.655-0.186-0.717
		c-0.011-0.009-0.021-0.019-0.033-0.024c-0.158-0.105-0.335-0.154-0.51-0.158l0-0.001c-0.004,0-0.006,0-0.009,0s-0.005,0-0.005,0
		c-0.04-0.004-0.083,0.001-0.13,0.012c-0.084,0.011-0.164,0.032-0.243,0.063c-0.111,0.028-0.234,0.053-0.367,0.048
		c-0.192-0.007-0.364-0.186-0.618-0.284c-0.002-0.001-0.002,0-0.004,0c-0.49-0.208-1.073-0.045-1.376,0.415
		c-0.15,0.229-0.203,0.491-0.174,0.74c0,0.004-0.001,0.005-0.001,0.01c0.002,0.013,0.006,0.024,0.008,0.039
		c0.027,0.173,0.094,0.337,0.199,0.482c0.018,0.063-0.019,0.084-0.088,0.082c-0.006,0.001-0.017,0.003-0.024,0.005
		c-0.04,0.003-0.079,0.014-0.118,0.022c-0.034,0.006-0.069,0.014-0.107,0.023c-0.077,0.019-0.125,0.052-0.161,0.077
		c-0.02,0.012-0.038,0.024-0.057,0.036c-0.045,0.017-0.125,0.013-0.159-0.156c-0.013-0.033-0.025-0.067-0.038-0.103
		c-0.007-0.02-0.015-0.037-0.022-0.057c-0.012-0.033-0.025-0.061-0.039-0.084c0-0.002-0.001,0-0.001-0.002
		c-0.086-0.166-0.213-0.312-0.379-0.422c-0.52-0.342-1.216-0.196-1.557,0.322c-0.341,0.518-0.198,1.216,0.321,1.556
		c0.241,0.158,0.521,0.21,0.784,0.17l0.031,0.021c0.142-0.076,0.304-0.124,0.476-0.124c0.561,0,1.017,0.456,1.017,1.018
		s-0.456,1.017-1.017,1.017c-0.562,0-1.017-0.455-1.017-1.017c0-0.005,0.002-0.011,0.002-0.018c-0.07-0.29-0.243-0.556-0.512-0.731
		c-0.56-0.367-1.313-0.212-1.681,0.349c-0.369,0.56-0.213,1.312,0.348,1.682c0.167,0.109,0.352,0.171,0.539,0.193
		c-0.39,0.002-0.771,0.189-1.003,0.538c-0.04-0.033-0.082-0.064-0.124-0.093c-0.7-0.46-1.64-0.264-2.1,0.435
		c-0.458,0.698-0.264,1.639,0.435,2.099c0.231,0.152,0.491,0.232,0.75,0.246c-0.043,0.048-0.084,0.099-0.12,0.152
		c-0.37,0.563-0.215,1.313,0.346,1.681c0.155,0.103,0.323,0.159,0.494,0.185c0.394,0.271,0.439,0.763,0.226,1.111
		c-0.053,0.07-0.455,0.563-1.062,0.152c-0.093-0.115-0.205-0.216-0.334-0.301c-0.699-0.459-1.638-0.265-2.098,0.436
		c-0.349,0.529-0.321,1.199,0.02,1.692c-0.232-0.066-0.479-0.036-0.692,0.071c0.035-0.399-0.144-0.805-0.501-1.039
		c-0.519-0.34-1.216-0.196-1.556,0.322c-0.341,0.52-0.198,1.216,0.322,1.556c0.376,0.248,0.846,0.239,1.206,0.018
		c0,0.316,0.151,0.625,0.435,0.812c0.446,0.293,1.045,0.17,1.338-0.276c0.028-0.044,0.05-0.086,0.07-0.131h0.001
		c0.045-0.098,0.071-0.202,0.081-0.306c0.142-0.336,0.397-0.378,0.508-0.378c0.013,0,0.027,0.002,0.042,0.002
		c0.008,0.001,0.013,0.002,0.013,0.002l-0.004-0.001c0.138-0.003,0.276-0.024,0.41-0.062c0,0,0,0.001,0,0.002
		c0.002-0.002,0.006-0.003,0.008-0.006c0.11-0.032,0.216-0.077,0.316-0.138c0.311-0.05,0.402,0.234,0.322,0.476
		c0,0.001-0.001,0.001-0.001,0.001c-0.032,0.048-0.055,0.098-0.079,0.15c-0.004,0.004-0.006,0.009-0.009,0.014
		c-0.037,0.044-0.047,0.084-0.042,0.122c-0.144,0.466,0.024,0.987,0.451,1.269c0.212,0.14,0.451,0.194,0.684,0.181
		c0.082-0.027,0.168-0.046,0.26-0.046c0.058-0.018,0.114-0.038,0.168-0.065c-0.009,0.026-0.015,0.054-0.022,0.078
		c0.363,0.07,0.638,0.388,0.638,0.771c0,0.434-0.352,0.783-0.784,0.783c-0.345,0-0.634-0.224-0.739-0.532
		c-0.025-0.045-0.049-0.1-0.069-0.169c-0.007-0.11-0.031-0.215-0.069-0.317c-0.001-0.005-0.001-0.009-0.002-0.014
		c0-0.002-0.001-0.002-0.003-0.003c-0.082-0.21-0.225-0.396-0.427-0.53c-0.519-0.34-1.215-0.196-1.555,0.321
		c-0.341,0.521-0.198,1.217,0.321,1.557c0.441,0.29,1.009,0.227,1.379-0.118c0.007-0.005,0.014-0.012,0.021-0.018
		c0.006-0.004,0.011-0.009,0.016-0.017c0.003-0.002,0.007-0.004,0.009-0.007c0.265-0.283,0.344-0.092,0.369,0.077
		c-0.16,0.575,0.061,1.214,0.587,1.561c0.021,0.014,0.045,0.027,0.068,0.04c-0.128,0.081-0.241,0.19-0.33,0.326
		c-0.34,0.519-0.196,1.214,0.322,1.556c0.515,0.339,1.203,0.199,1.547-0.309c-0.001,0.403,0.195,0.8,0.559,1.039
		c0.571,0.375,1.338,0.216,1.712-0.355c0.137-0.285,0.09-0.509,0.09-0.509l0.007,0.004c-0.003-0.025-0.006-0.052-0.006-0.075
		c0-0.264,0.211-0.476,0.474-0.476c0.262,0,0.475,0.212,0.475,0.476c0,0.155-0.076,0.29-0.192,0.379l0.001,0.001h-0.003
		c-0.052,0.039-0.113,0.067-0.178,0.083c-0.042,0.022-0.085,0.05-0.126,0.082c-0.017,0.016-0.033,0.031-0.05,0.048
		c-0.023,0.021-0.048,0.041-0.066,0.066c-0.043,0.049-0.083,0.1-0.119,0.155c-0.163,0.247-0.236,0.529-0.228,0.805
		c-0.139,0.76-0.672,0.409-0.672,0.409c-0.33-0.218-0.774-0.125-0.992,0.205c-0.217,0.331-0.124,0.775,0.206,0.994
		c0.331,0.217,0.775,0.126,0.992-0.205c0.021-0.031,0.036-0.064,0.051-0.097l0.001,0.003c0,0,0.001-0.004,0.004-0.012
		c0.008-0.021,0.015-0.038,0.022-0.059c0.069-0.166,0.285-0.558,0.733-0.363c0.081,0.092,0.174,0.176,0.281,0.246
		c0.122,0.081,0.253,0.14,0.386,0.177c-0.023,0.023-0.045,0.052-0.064,0.08c-0.17,0.258-0.098,0.604,0.159,0.773
		c0.257,0.169,0.604,0.096,0.773-0.161c0.148-0.227,0.111-0.521-0.077-0.704c0.299-0.092,0.566-0.284,0.75-0.563
		c0.066-0.101,0.115-0.207,0.154-0.315c0.113,0.255,0.298,0.479,0.547,0.644c0.7,0.459,1.639,0.266,2.098-0.436
		c0.061-0.091,0.108-0.186,0.146-0.286c0.04-0.104,0.064-0.201,0.082-0.295C-585.827,623.021-588.897,618.969-588.897,614.198z"/>
</g>
</svg>
