<?xml version="1.0" encoding="utf-8"?>
<!-- Generator: Adobe Illustrator 16.2.1, SVG Export Plug-In . SVG Version: 6.00 Build 0)  -->
<!DOCTYPE svg PUBLIC "-//W3C//DTD SVG 1.1//EN" "http://www.w3.org/Graphics/SVG/1.1/DTD/svg11.dtd">
<svg version="1.1" id="Capa_1" xmlns="http://www.w3.org/2000/svg" xmlns:xlink="http://www.w3.org/1999/xlink" x="0px" y="0px"
	 width="73.536px" height="61.897px" viewBox="-477.56 583.266 73.536 61.897"
	 enable-background="new -477.56 583.266 73.536 61.897" xml:space="preserve">
<g>
	<g>
		<path fill="#524640" d="M-469.074,611.885c-0.595,1.579-1.662,4.859-1.662,4.859l-1.965-1.964l1.531-4.427l-1.664-1.73
			l-3.029,2.995l-1.696-1.63l8.419-8.419l2.796,2.795c0,0,2.38,1.752,2.495,3.895c0.064,1.189-0.455,2.018-1.031,2.628
			c-0.662,0.699-1.56,1.462-3.062,1.331C-468.368,612.182-468.705,612.043-469.074,611.885z M-471.27,607.026
			c0,0,1.272,1.272,1.496,1.497c0.483,0.484,1.005,1.181,1.698,1.298c0.872,0.146,1.763-0.695,1.797-1.496
			c0.032-0.798-0.97-1.597-0.97-1.597l-1.859-1.865L-471.27,607.026z"/>
		<polygon fill="#524640" points="-414.83,603.398 -406.978,611.219 -408.441,612.717 -415.554,605.636 		"/>
		<g>
			<path fill="#524640" d="M-430.971,596.942c-0.201-0.109-1.027,0-1.364,0c-1.441,0-2.963,0.026-4.16-0.033
				c0.009-4.539,0.122-9.152,0.067-13.644c-2.82,2.465-6.009,5.28-8.953,7.82c-0.208,0.18-1.212,0.906-1.23,1.164
				c-0.007,0.105,0.194,0.395,0.268,0.565c0.597,1.415,1.147,2.789,1.696,4.127c-1.986,0-3.97,0-5.957,0
				c2.983,3.094,6.085,6.119,9.219,9.252c0.163,0.164,0.542,0.637,0.633,0.632c0.059-0.002,0.447-0.48,0.599-0.632
				c2.951-2.952,5.704-5.705,8.651-8.653C-431.387,597.427-430.873,596.996-430.971,596.942z M-440.756,606.42l-9.236-9.232h5.767
				l-1.987-4.699l9.507-8.388l-0.13,13.059l5.251,0.03L-440.756,606.42z"/>
			<path fill="#524640" d="M-437.02,584.785l-8.824,7.787l2.079,4.922h-5.488l8.496,8.491l8.439-8.494l-4.827-0.028L-437.02,584.785
				z M-438.59,591.918c-0.111,0.728-0.246,1.504-0.333,2.129c-0.165,1.18-0.59,3.739-1.079,4.547
				c-0.508,0.842-1.49,1.649-2.314,1.825c-1.149,0.243-2.335,0.273-2.719,0.105c-0.246-0.109-0.454-0.407-0.71-0.62
				c-0.755-0.629-1.613-1.265-2.23-1.896c1.612,0.04,3.212,0.093,4.859,0.1c-0.716-1.759-2.363-5.458-2.363-5.458l7.854-7.017
				C-437.625,585.633-438.273,589.83-438.59,591.918z"/>
		</g>
		<g>
			<path fill="#524640" d="M-449.291,601.344c-0.716-0.711-1.432-1.422-2.146-2.135c-0.713,0.712-1.427,1.422-2.143,2.132
				c-2.048,2.033-4.164,4.137-6.209,6.245c0.71,0.711,1.417,1.424,2.124,2.136c2.027,2.041,4.123,4.151,6.226,6.188
				c1.402-1.381,2.812-2.796,4.178-4.164c1.364-1.368,2.772-2.78,4.175-4.161C-445.128,605.478-447.244,603.376-449.291,601.344z
				 M-451.803,606.428c-0.148,0.169-0.301,0.383-0.433,0.498c-1.365,1.19-4.487,1.015-6.622,0.599
				c-0.062-0.125,0.193-0.334,0.332-0.466c2.369-2.208,4.767-4.737,7.122-6.987c0.028-0.007,0.032,0.012,0.034,0.033
				C-450.615,602.162-450.593,605.035-451.803,606.428z"/>
			<path fill="#524640" d="M-451.437,598.041c-3.182,3.175-6.392,6.319-9.518,9.551c3.165,3.169,6.298,6.37,9.518,9.484
				c3.192-3.143,6.326-6.343,9.519-9.484C-445.044,604.36-448.256,601.216-451.437,598.041z M-447.044,611.964
				c-1.4,1.402-2.848,2.854-4.285,4.269l-0.106,0.104l-0.107-0.104c-2.142-2.07-4.274-4.22-6.338-6.296
				c-0.742-0.747-1.485-1.495-2.23-2.241l-0.105-0.107l0.104-0.107c2.078-2.148,4.234-4.288,6.317-6.358
				c0.751-0.746,1.503-1.491,2.251-2.239l0.108-0.107l0.107,0.107c0.75,0.749,1.502,1.495,2.254,2.242
				c2.084,2.069,4.237,4.209,6.315,6.356l0.105,0.109l-0.108,0.106C-444.198,609.11-445.645,610.562-447.044,611.964z"/>
		</g>
		<g>
			<path fill="#524640" d="M-425.769,603.434c-1.363-1.366-2.771-2.778-4.171-4.158c-2.798,2.774-5.616,5.593-8.379,8.38
				c1.403,1.385,2.817,2.801,4.186,4.173c1.37,1.372,2.785,2.792,4.191,4.178c1.215-1.242,2.463-2.482,3.672-3.686
				c1.545-1.536,3.142-3.124,4.68-4.721C-422.992,606.218-424.403,604.804-425.769,603.434z M-430.305,606.493
				c-0.151,0.176-0.327,0.383-0.466,0.5c-1.425,1.205-4.447,1.025-6.622,0.599c-0.036-0.142,0.222-0.287,0.366-0.433
				c2.305-2.303,4.79-4.717,7.122-7.022C-429.11,602.183-429.093,605.091-430.305,606.493z"/>
			<path fill="#524640" d="M-429.939,598.107c-3.197,3.17-6.38,6.354-9.55,9.551c3.202,3.154,6.347,6.365,9.55,9.517
				c3.148-3.22,6.398-6.336,9.519-9.582C-423.613,604.449-426.747,601.25-429.939,598.107z M-426.053,612.539
				c-1.245,1.235-2.53,2.515-3.778,3.791l-0.106,0.11l-0.11-0.107c-1.442-1.423-2.896-2.879-4.302-4.289
				c-1.402-1.407-2.854-2.861-4.294-4.278l-0.108-0.108l0.107-0.108c2.834-2.859,5.726-5.752,8.595-8.597l0.108-0.106l0.107,0.105
				c1.437,1.414,2.884,2.862,4.281,4.266c1.401,1.404,2.849,2.856,4.286,4.271l0.106,0.106l-0.105,0.108
				C-422.837,609.34-424.472,610.966-426.053,612.539z"/>
		</g>
		<g>
			<path fill="#524640" d="M-440.621,608.689c-3.191,3.142-6.325,6.344-9.518,9.485c3.141,3.225,6.326,6.408,9.551,9.549
				c3.138-3.207,6.378-6.313,9.484-9.549C-434.296,615.033-437.43,611.831-440.621,608.689z M-436.718,623.103
				c-1.24,1.232-2.522,2.506-3.765,3.777l-0.106,0.11l-0.109-0.106c-2.889-2.814-5.782-5.707-8.6-8.6l-0.105-0.108l0.109-0.106
				c1.435-1.414,2.881-2.863,4.279-4.267c1.4-1.404,2.849-2.855,4.286-4.27l0.106-0.105l0.108,0.105
				c1.436,1.413,2.883,2.863,4.282,4.267c1.398,1.405,2.847,2.855,4.283,4.27l0.107,0.106l-0.104,0.108
				C-433.512,619.916-435.142,621.535-436.718,623.103z"/>
			<path fill="#524640" d="M-436.449,614.016c-1.362-1.367-2.771-2.779-4.172-4.159c-1.401,1.381-2.812,2.794-4.176,4.163
				c-1.364,1.367-2.773,2.78-4.175,4.161c2.747,2.817,5.564,5.633,8.378,8.376c1.21-1.236,2.455-2.474,3.66-3.671
				c1.539-1.531,3.131-3.113,4.663-4.705C-433.672,616.799-435.082,615.384-436.449,614.016z M-440.555,616.545
				c-0.23,0.379-0.616,0.813-0.932,1.063c-1.416,1.125-4.409,0.985-6.556,0.567c-0.063-0.135,0.197-0.331,0.333-0.467
				c2.303-2.304,4.835-4.668,7.121-7.021c0.027-0.006,0.031,0.013,0.033,0.033C-440.01,612.451-439.651,615.056-440.555,616.545z"/>
		</g>
		<path fill="#524640" d="M-411.37,615.646c-0.153-0.103-0.246-0.265-0.398-0.366c-0.105,1.643-1.612,2.864-3.262,2.695
			c-1.185-0.122-2.38-1.162-2.396-2.562c-0.02-1.584,1.312-2.762,2.464-3.294c-0.195-0.398-0.757-0.749-1.333-0.533
			c-0.802,0.301-1.329,1.428-1.597,2.23c-0.564-0.111-1.042-0.312-1.598-0.435c0.489-1.784,1.693-3.58,3.694-3.826
			c1.015-0.123,1.706,0.41,2.296,0.999c0.974,0.975,1.983,1.985,2.995,2.996c0.142,0.14,0.598,0.569,0.6,0.599
			c0.004,0.089-0.656,0.688-0.732,0.766C-410.944,615.22-411.188,615.413-411.37,615.646z M-415.496,614.979
			c0.013,0.708,0.798,1.174,1.432,0.933c0.415-0.159,1.272-1.023,1.063-1.832c-0.04-0.154-0.561-0.749-0.831-0.797
			c-0.027-0.006-0.033,0.033-0.033,0.033C-414.505,613.326-415.506,614.391-415.496,614.979z"/>
		<path fill="#524640" d="M-461.435,613.472c0,0-2.276,2.192-3.413,3.371c-0.409,0.425-1.041,0.959-0.897,1.796
			c0.126,0.757,1.218,1.533,2.096,1.1c0.82-0.405,2.1-1.92,2.1-1.92l2.227-2.208l1.7,1.655l-6.325,6.299l-1.679-1.672
			c0,0,0.3-0.228,0.413-0.391c-1.562-0.076-3.22-1.495-3.028-3.429c0.168-1.689,2.23-3.36,2.23-3.36l2.896-2.921L-461.435,613.472z"
			/>
		<path fill="#524640" d="M-420.488,614.047c0.299,0.623,0.777,1.242,0.999,1.832c-0.913,0.072-1.689,0.772-1.63,1.53
			c0.039,0.51,0.923,1.321,0.923,1.321l2.845,2.864l-1.497,1.496l-5.632-5.648l1.464-1.465c0,0,0.242,0.246,0.398,0.332
			C-422.512,614.951-421.835,614.164-420.488,614.047z"/>
		<path fill="#524640" d="M-454.398,617.242l2.517,0.824c0,0-2.422,2.368-2.85,2.87c1.634,0.172,2.896,1.394,2.763,3.261
			c-0.098,1.357-0.871,2.336-1.797,3.261c-0.99,0.99-2.066,1.92-3.76,1.798c-1.449-0.103-2.538-1.1-2.797-2.728
			c-0.13,0.107-0.363,0.324-0.363,0.324l-1.666-1.656L-454.398,617.242z M-457.593,623.731c-0.324,0.326-0.844,0.845-1.078,1.162
			c-0.303,0.409,0.345,1.764,1.012,1.934c0.206,0.051,0.41,0.09,0.666,0.032c0.879-0.197,2.027-1.352,2.43-2.229
			c0.571-1.25-0.33-2.25-1.731-2.163c-0.02,0.002-0.039,0.005-0.032,0.033C-456.719,622.88-457.1,623.238-457.593,623.731z"/>
		<path fill="#524640" d="M-429.474,618.042l2.197,2.162l1.397-1.33l1.404,1.405l-1.371,1.321c0,0,1.405,1.405,2.13,2.131
			c0.229,0.228,0.502,0.568,0.832,0.565c0.598-0.005,0.917-0.763,0.931-1.531c0.453,0.545,0.854,1.145,1.299,1.698
			c-0.3,1.159-1.237,2.461-2.763,2.062c-0.87-0.229-1.453-0.955-2.097-1.599c-0.659-0.659-1.28-1.329-1.83-1.83
			c-0.146,0.098-0.933,0.932-0.933,0.932l-1.397-1.43l0.932-0.899l-1.441-1.439L-429.474,618.042z"/>
		<path fill="#524640" d="M-426.377,630.652c-0.719-0.667-2.737-2.771-3.131-3.127c-0.326-0.298-0.799-0.731-1.329-0.731
			c-0.699,0-1.431,0.731-1.332,1.53c0.056,0.453,0.486,0.92,0.8,1.231c0.973,0.975,3.028,3.062,3.028,3.062l-1.5,1.431l-5.622-5.626
			l1.465-1.463c0,0,0.24,0.246,0.398,0.333c0.097-1.382,1.27-2.562,2.462-2.696c1.713-0.191,2.662,1.031,3.66,2.029
			c0.591,0.591,2.563,2.506,2.564,2.53C-424.911,629.243-426.194,630.42-426.377,630.652z"/>
		<polygon fill="#524640" points="-450.018,624.838 -448.187,626.671 -451.17,632.517 -445.326,629.531 -443.528,631.329 
			-455.296,636.643 -456.927,634.979 -453.933,633.648 		"/>
		<path fill="#524640" d="M-433.367,632.916c-1.101,1.151-2.259,2.245-3.36,3.395c1.078,0.989,2.871,0.017,2.795-1.464
			c0.647-0.053,1.281-0.117,1.931-0.166c0,1.387-0.361,2.106-0.964,2.794c-0.624,0.712-1.641,1.362-2.996,1.266
			c-2.039-0.146-4.142-2.277-4.16-4.459c-0.015-1.739,1.134-3.177,2.863-3.328C-435.306,630.78-434.337,632.003-433.367,632.916z
			 M-438.292,634.147c0.019,0.427,0.228,0.694,0.433,0.998c0.702-0.596,1.317-1.276,1.964-1.929
			C-436.735,632.372-438.344,632.932-438.292,634.147z"/>
		<path fill="#524640" d="M-442.617,634.913c-0.243,0.678-0.515,1.327-0.733,2.03c-1.666-0.433-2.988,0.793-2.895,2.296
			c0.104,1.653,1.944,3.518,3.527,3.694c1.788,0.199,2.977-1.236,2.464-3.096c0.695-0.146,1.329-0.354,2.029-0.499
			c0.681,1.963-0.137,3.574-1.232,4.593c-0.772,0.718-1.816,1.225-2.929,1.231c-2.695,0.014-5.078-2.363-5.756-4.493
			c-0.492-1.543-0.072-3.121,0.6-4.06C-446.674,635.396-444.775,634.057-442.617,634.913z"/>
	</g>
	<polygon fill="#524640" points="-408.495,599.652 -411.935,603.085 -412.625,602.41 -409.184,598.996 	"/>
	<path fill="#524640" d="M-409.556,605.511c0.306-0.332,1.274-1.26,1.438-1.44c0.137-0.15,0.337-0.37,0.337-0.613
		c0-0.322-0.337-0.659-0.704-0.612c-0.209,0.025-0.423,0.224-0.567,0.367c-0.448,0.449-1.409,1.395-1.409,1.395l-0.66-0.689
		l2.59-2.588l0.675,0.673c0,0-0.114,0.111-0.155,0.184c0.639,0.044,1.182,0.584,1.243,1.133c0.088,0.789-0.474,1.227-0.935,1.687
		c-0.271,0.271-1.154,1.179-1.164,1.179C-408.907,606.187-409.45,605.596-409.556,605.511z"/>
	<path fill="#524640" d="M-404.051,606.855c-0.306,0-0.568,0-0.921-0.023c0.042-0.211,0.113-0.398-0.081-0.739
		c-0.144-0.273-0.386-0.388-0.61-0.393c-0.328-0.024-0.71,0.224-0.956,0.604c-0.242,0.38-0.163,0.803,0.144,1.072
		c0.209,0.186,0.566,0.203,0.843,0.188c0.024,0.299,0.013,0.545,0.035,0.845c-0.645,0.029-1.126-0.022-1.522-0.372
		c-0.326-0.287-0.627-0.756-0.58-1.379c0.064-0.938,1.064-1.982,2.067-1.912c0.536,0.037,0.949,0.27,1.343,0.791
		C-404.028,605.884-403.985,606.392-404.051,606.855z"/>
	<circle fill="#524640" cx="-404.862" cy="609.364" r="0.654"/>
</g>
</svg>
