<?xml version="1.0" encoding="utf-8"?>
<!-- Generator: Adobe Illustrator 16.2.1, SVG Export Plug-In . SVG Version: 6.00 Build 0)  -->
<!DOCTYPE svg PUBLIC "-//W3C//DTD SVG 1.1//EN" "http://www.w3.org/Graphics/SVG/1.1/DTD/svg11.dtd">
<svg version="1.1" id="Capa_1" xmlns="http://www.w3.org/2000/svg" xmlns:xlink="http://www.w3.org/1999/xlink" x="0px" y="0px"
	 width="231.676px" height="76.654px" viewBox="-635.241 451.971 231.676 76.654"
	 enable-background="new -635.241 451.971 231.676 76.654" xml:space="preserve">
<g>
	<polygon fill="#524640" points="-611.952,520.623 -631.24,501.336 -635.241,505.336 -611.952,528.625 -588.663,505.336 
		-592.664,501.336 	"/>
	<polygon fill="#B5A898" points="-611.952,471.258 -631.24,451.971 -635.241,455.971 -611.952,479.26 -588.663,455.971 
		-592.664,451.971 	"/>
	<path fill="#B5A898" d="M-471.905,457.105c-0.545,0.242-1.131,0.406-1.746,0.479c0.628-0.378,1.109-0.974,1.338-1.685
		c-0.588,0.35-1.239,0.604-1.934,0.738c-0.555-0.591-1.346-0.96-2.221-0.96c-1.68,0-3.042,1.36-3.042,3.042
		c0,0.238,0.026,0.47,0.079,0.693c-2.528-0.127-4.77-1.34-6.271-3.18c-0.262,0.449-0.412,0.973-0.412,1.529
		c0,1.055,0.537,1.986,1.353,2.531c-0.499-0.017-0.968-0.152-1.378-0.381c0,0.014,0,0.025,0,0.039c0,1.474,1.049,2.703,2.44,2.982
		c-0.256,0.068-0.524,0.105-0.802,0.105c-0.196,0-0.387-0.019-0.572-0.055c0.387,1.209,1.511,2.09,2.842,2.113
		c-1.042,0.816-2.353,1.302-3.778,1.302c-0.246,0-0.487-0.015-0.726-0.042c1.346,0.863,2.945,1.366,4.664,1.366
		c5.595,0,8.656-4.636,8.656-8.655c0-0.132-0.002-0.264-0.01-0.394C-472.827,458.252-472.311,457.716-471.905,457.105z"/>
	<g>
		<g>
			<path fill="#B5A898" d="M-412.209,455.216c0.139,0.086,0.293,0.21,0.465,0.374c0.166,0.171,0.328,0.382,0.485,0.631
				c0.151,0.234,0.285,0.514,0.402,0.834c0.097,0.32,0.146,0.695,0.146,1.122c-0.014,0.784-0.187,1.412-0.521,1.883
				c-0.163,0.228-0.337,0.438-0.519,0.631c-0.203,0.191-0.418,0.388-0.646,0.589c-0.131,0.135-0.252,0.287-0.362,0.459
				c-0.131,0.178-0.196,0.385-0.196,0.619c0,0.229,0.067,0.418,0.201,0.566c0.113,0.145,0.225,0.27,0.331,0.375l0.744,0.609
				c0.462,0.377,0.867,0.793,1.216,1.25c0.328,0.463,0.499,1.069,0.512,1.817c0,1.062-0.469,2.003-1.406,2.823
				c-0.973,0.848-2.375,1.286-4.209,1.314c-1.535-0.015-2.682-0.343-3.439-0.981c-0.764-0.599-1.146-1.313-1.146-2.146
				c0-0.406,0.125-0.857,0.373-1.355c0.24-0.498,0.679-0.936,1.311-1.312c0.71-0.404,1.456-0.676,2.236-0.812
				c0.773-0.113,1.416-0.177,1.929-0.19c-0.157-0.209-0.299-0.431-0.423-0.668c-0.145-0.229-0.217-0.505-0.217-0.826
				c0-0.194,0.027-0.355,0.082-0.483c0.049-0.138,0.094-0.263,0.135-0.377c-0.249,0.028-0.482,0.043-0.704,0.043
				c-1.167-0.015-2.058-0.381-2.668-1.103c-0.642-0.668-0.961-1.449-0.961-2.341c0-1.075,0.454-2.053,1.36-2.929
				c0.623-0.514,1.271-0.848,1.942-1.005c0.665-0.136,1.288-0.203,1.87-0.203h4.383l-1.354,0.79L-412.209,455.216L-412.209,455.216z
				 M-411.364,467.834c0-0.557-0.18-1.041-0.543-1.454c-0.385-0.394-0.984-0.874-1.801-1.444c-0.141-0.015-0.305-0.021-0.492-0.021
				c-0.111-0.014-0.397,0-0.858,0.044c-0.454,0.062-0.918,0.167-1.394,0.311c-0.11,0.042-0.269,0.106-0.471,0.192
				c-0.201,0.092-0.408,0.225-0.617,0.396c-0.203,0.178-0.373,0.397-0.514,0.662c-0.16,0.277-0.24,0.612-0.24,1.006
				c0,0.77,0.35,1.403,1.047,1.902c0.662,0.499,1.57,0.756,2.723,0.771c1.031-0.016,1.82-0.243,2.365-0.687
				C-411.627,469.076-411.364,468.518-411.364,467.834z M-414.418,461.408c0.576-0.021,1.059-0.229,1.442-0.621
				c0.187-0.278,0.306-0.563,0.356-0.856c0.033-0.293,0.049-0.539,0.049-0.739c0-0.863-0.221-1.734-0.663-2.613
				c-0.207-0.422-0.479-0.766-0.818-1.028c-0.346-0.25-0.743-0.382-1.19-0.396c-0.594,0.015-1.088,0.254-1.481,0.717
				c-0.333,0.485-0.491,1.029-0.478,1.629c0,0.794,0.231,1.617,0.695,2.476c0.225,0.4,0.516,0.739,0.87,1.019
				C-415.282,461.272-414.875,461.408-414.418,461.408z"/>
		</g>
		<polygon id="PLUS" fill="#B5A898" points="-403.565,456.82 -405.866,456.82 -405.866,454.52 -406.979,454.52 -406.979,456.82 
			-409.28,456.82 -409.28,457.934 -406.979,457.934 -406.979,460.234 -405.866,460.234 -405.866,457.934 -403.565,457.934 		"/>
	</g>
	<g>
		<path fill="#B5A898" d="M-548.336,458.195h1.946v-0.884v-0.864v-0.145c0-0.833,0.021-2.119,0.626-2.916
			c0.638-0.843,1.514-1.416,3.02-1.416c2.454,0,3.488,0.352,3.488,0.352l-0.487,2.881c0,0-0.811-0.232-1.567-0.232
			c-0.757,0-1.434,0.27-1.434,1.025v0.308v1.009v0.883h3.102l-0.216,2.813h-2.886v9.778h-3.646v-9.778h-1.946V458.195
			L-548.336,458.195z"/>
	</g>
	<path fill="#524640" d="M-471.905,507.11c-0.545,0.242-1.131,0.406-1.746,0.479c0.628-0.378,1.109-0.974,1.338-1.685
		c-0.588,0.35-1.239,0.604-1.934,0.738c-0.555-0.591-1.346-0.96-2.221-0.96c-1.68,0-3.042,1.36-3.042,3.042
		c0,0.238,0.026,0.47,0.079,0.693c-2.528-0.127-4.77-1.34-6.271-3.18c-0.262,0.449-0.412,0.973-0.412,1.529
		c0,1.055,0.537,1.986,1.353,2.531c-0.499-0.017-0.968-0.152-1.378-0.381c0,0.014,0,0.025,0,0.039c0,1.474,1.049,2.703,2.44,2.982
		c-0.256,0.068-0.524,0.105-0.802,0.105c-0.196,0-0.387-0.019-0.572-0.055c0.387,1.209,1.511,2.09,2.842,2.113
		c-1.042,0.816-2.353,1.302-3.778,1.302c-0.246,0-0.487-0.015-0.726-0.042c1.346,0.863,2.945,1.366,4.664,1.366
		c5.595,0,8.656-4.636,8.656-8.655c0-0.132-0.002-0.264-0.01-0.394C-472.827,508.257-472.311,507.721-471.905,507.11z"/>
	<g>
		<g>
			<path fill="#524640" d="M-412.209,505.221c0.139,0.086,0.293,0.21,0.465,0.374c0.166,0.171,0.328,0.382,0.485,0.631
				c0.151,0.234,0.285,0.514,0.402,0.834c0.097,0.32,0.146,0.695,0.146,1.122c-0.014,0.784-0.187,1.412-0.521,1.883
				c-0.163,0.228-0.337,0.438-0.519,0.631c-0.203,0.191-0.418,0.388-0.646,0.589c-0.131,0.135-0.252,0.287-0.362,0.459
				c-0.131,0.178-0.196,0.385-0.196,0.619c0,0.229,0.067,0.418,0.201,0.566c0.113,0.145,0.225,0.27,0.331,0.375l0.744,0.609
				c0.462,0.377,0.867,0.793,1.216,1.25c0.328,0.463,0.499,1.069,0.512,1.817c0,1.062-0.469,2.003-1.406,2.823
				c-0.973,0.848-2.375,1.286-4.209,1.314c-1.535-0.015-2.682-0.343-3.439-0.981c-0.764-0.599-1.146-1.313-1.146-2.146
				c0-0.406,0.125-0.857,0.373-1.355c0.24-0.498,0.679-0.936,1.311-1.312c0.71-0.404,1.456-0.676,2.236-0.812
				c0.773-0.113,1.416-0.177,1.929-0.19c-0.157-0.209-0.299-0.431-0.423-0.668c-0.145-0.229-0.217-0.505-0.217-0.826
				c0-0.194,0.027-0.355,0.082-0.483c0.049-0.138,0.094-0.263,0.135-0.377c-0.249,0.028-0.482,0.043-0.704,0.043
				c-1.167-0.015-2.058-0.381-2.668-1.103c-0.642-0.668-0.961-1.449-0.961-2.341c0-1.075,0.454-2.053,1.36-2.929
				c0.623-0.514,1.271-0.848,1.942-1.005c0.665-0.136,1.288-0.203,1.87-0.203h4.383l-1.354,0.79L-412.209,505.221L-412.209,505.221z
				 M-411.364,517.839c0-0.557-0.18-1.041-0.543-1.454c-0.385-0.394-0.984-0.874-1.801-1.444c-0.141-0.015-0.305-0.021-0.492-0.021
				c-0.111-0.014-0.397,0-0.858,0.044c-0.454,0.062-0.918,0.167-1.394,0.311c-0.11,0.042-0.269,0.106-0.471,0.192
				c-0.201,0.092-0.408,0.225-0.617,0.396c-0.203,0.178-0.373,0.397-0.514,0.662c-0.16,0.277-0.24,0.612-0.24,1.006
				c0,0.77,0.35,1.403,1.047,1.902c0.662,0.499,1.57,0.756,2.723,0.771c1.031-0.016,1.82-0.243,2.365-0.687
				C-411.627,519.081-411.364,518.522-411.364,517.839z M-414.418,511.413c0.576-0.021,1.059-0.229,1.442-0.621
				c0.187-0.278,0.306-0.563,0.356-0.856c0.033-0.293,0.049-0.539,0.049-0.739c0-0.863-0.221-1.734-0.663-2.613
				c-0.207-0.422-0.479-0.766-0.818-1.028c-0.346-0.25-0.743-0.382-1.19-0.396c-0.594,0.015-1.088,0.254-1.481,0.717
				c-0.333,0.485-0.491,1.029-0.478,1.629c0,0.794,0.231,1.617,0.695,2.476c0.225,0.4,0.516,0.739,0.87,1.019
				C-415.282,511.277-414.875,511.413-414.418,511.413z"/>
		</g>
		<polygon id="PLUS_1_" fill="#524640" points="-403.565,506.825 -405.866,506.825 -405.866,504.524 -406.979,504.524 
			-406.979,506.825 -409.28,506.825 -409.28,507.938 -406.979,507.938 -406.979,510.239 -405.866,510.239 -405.866,507.938 
			-403.565,507.938 		"/>
	</g>
	<g>
		<path fill="#524640" d="M-548.336,508.2h1.946v-0.884v-0.864v-0.145c0-0.833,0.021-2.119,0.626-2.916
			c0.638-0.843,1.514-1.416,3.02-1.416c2.454,0,3.488,0.352,3.488,0.352l-0.487,2.881c0,0-0.811-0.232-1.567-0.232
			c-0.757,0-1.434,0.27-1.434,1.025v0.308v1.009v0.883h3.102l-0.216,2.813h-2.886v9.778h-3.646v-9.778h-1.946V508.2L-548.336,508.2z
			"/>
	</g>
</g>
</svg>
