<?xml version="1.0" encoding="utf-8"?>
<!-- Generator: Adobe Illustrator 16.2.1, SVG Export Plug-In . SVG Version: 6.00 Build 0)  -->
<!DOCTYPE svg PUBLIC "-//W3C//DTD SVG 1.1//EN" "http://www.w3.org/Graphics/SVG/1.1/DTD/svg11.dtd">
<svg version="1.1" id="Capa_1" xmlns="http://www.w3.org/2000/svg" xmlns:xlink="http://www.w3.org/1999/xlink" x="0px" y="0px"
	 width="67.641px" height="7.261px" viewBox="510.382 261.43 67.641 7.261" enable-background="new 510.382 261.43 67.641 7.261"
	 xml:space="preserve">
<g>
	<polygon fill="#524640" points="514.199,261.43 515.379,263.82 518.017,264.203 516.108,266.063 516.559,268.691 514.199,267.451 
		511.84,268.691 512.29,266.063 510.382,264.203 513.02,263.82 	"/>
	<polygon fill="#524640" points="529.201,261.43 530.381,263.82 533.019,264.203 531.11,266.063 531.561,268.691 529.201,267.451 
		526.842,268.691 527.292,266.063 525.384,264.203 528.021,263.82 	"/>
	<polygon fill="#524640" points="544.202,261.43 545.382,263.82 548.02,264.203 546.111,266.063 546.562,268.691 544.202,267.451 
		541.843,268.691 542.293,266.063 540.385,264.203 543.022,263.82 	"/>
	<polygon fill="#524640" points="559.203,261.43 560.383,263.82 563.021,264.203 561.112,266.063 561.562,268.691 559.203,267.451 
		556.844,268.691 557.294,266.063 555.386,264.203 558.023,263.82 	"/>
	<polygon fill="#524640" points="574.205,261.43 575.385,263.82 578.022,264.203 576.114,266.063 576.564,268.691 574.205,267.451 
		571.846,268.691 572.296,266.063 570.388,264.203 573.025,263.82 	"/>
</g>
</svg>
